<mxfile host="Electron" agent="Mozilla/5.0 (Windows NT 10.0; Win64; x64) AppleWebKit/537.36 (KHTML, like Gecko) draw.io/25.0.1 Chrome/128.0.6613.186 Electron/32.2.6 Safari/537.36" border="50" scale="3" compressed="false" locked="false" version="25.0.1">
  <diagram name="Blank" id="YmL12bMKpDGza6XwsDPr">
    <mxGraphModel dx="1664" dy="508" grid="0" gridSize="10" guides="1" tooltips="1" connect="1" arrows="1" fold="1" page="0" pageScale="1" pageWidth="827" pageHeight="1169" background="none" math="1" shadow="0">
      <root>
        <mxCell id="X5NqExCQtvZxIxQ7pmgY-0" />
        <mxCell id="1" parent="X5NqExCQtvZxIxQ7pmgY-0" />
        <object label="INTELLEGENT WASTE MANAGEMENT" placeholders="1" id="Gr0Zq-AI6Quabplr0KPa-98">
          <mxCell style="ellipse;whiteSpace=wrap;html=1;strokeWidth=2;fillColor=#EDF5FF;fontSize=15;strokeColor=none;container=1;verticalAlign=top;spacingBottom=0;spacingTop=4;fontStyle=1;fontColor=#7EA6E0;metaEdit=1;" parent="1" vertex="1">
            <mxGeometry x="-766" y="214" width="761" height="615" as="geometry">
              <mxRectangle x="-576" y="218" width="250" height="60" as="alternateBounds" />
            </mxGeometry>
          </mxCell>
        </object>
        <mxCell id="Gr0Zq-AI6Quabplr0KPa-100" style="edgeStyle=orthogonalEdgeStyle;html=1;endArrow=none;endFill=0;strokeWidth=2;fontSize=12;fontColor=#0A3DA3;strokeColor=#0A3DA3;rounded=0;startSize=8;endSize=8;curved=0;entryX=0.007;entryY=0.714;entryDx=0;entryDy=0;entryPerimeter=0;" parent="Gr0Zq-AI6Quabplr0KPa-98" source="Gr0Zq-AI6Quabplr0KPa-103" target="Gr0Zq-AI6Quabplr0KPa-102" edge="1">
          <mxGeometry relative="1" as="geometry">
            <mxPoint x="271.6539642792974" y="214.91984598636887" as="targetPoint" />
            <Array as="points">
              <mxPoint x="322" y="386.9205298013245" />
              <mxPoint x="322" y="264.73509933774835" />
            </Array>
            <mxPoint x="85.016348773842" y="345.75947368421055" as="sourcePoint" />
          </mxGeometry>
        </mxCell>
        <object label="Arduino Uno R3" placeholders="1" id="Gr0Zq-AI6Quabplr0KPa-102">
          <mxCell style="image;html=1;image=data:image/jpeg,/9j/4AAQSkZJRgABAQAAAQABAAD/2wCEAAkGBxITEhUSEhMWFRIXGBgVGBgWFxYXFxshFhkaFxoXHRgYICggGBolGxcWITMhJSkrLi4uGx8zODMsNyotLysBCgoKDg0OGxAQGy8mICY4Mi0tLS01MC0tLS0rLTAtLS0tLS01LS0tLS0tLS0tLS0rLS0tLS0tLS0uLS0tLS0tLf/AABEIAOEA4QMBIgACEQEDEQH/xAAcAAEAAQUBAQAAAAAAAAAAAAAAAQMEBQYHAgj/xABHEAACAQMCAwQFCAcHAwQDAAABAhEAAxIEIQUxQRMiUWEGBzJx0RQVQlKBkZOxI1NUc5Kh8CQzcrLC0uE0NcEWJYPDYmOC/8QAGQEBAAMBAQAAAAAAAAAAAAAAAAECAwQF/8QALxEAAgEDAwMCBAUFAAAAAAAAAAECAxESEyFRMUFhBCIUUtHwIzKBofEzQkNxkf/aAAwDAQACEQMRAD8A7jSlKAUpSgFKVFATSopQE0qKUBNKilATSopQE0qKUBNKilATSlKAUpSgFKUoBSlKAUpSgFKUoBSlKAUpSgINKGlAKUpQClKUApSlAKUpQClKUApSlATSlKAUpSgFKUoBSlKAUpSgFKUoBSlRQClKUApXi7dVRLEKPEkAfeaoHilj9db/AI1+NTZkXRdUq0PFLH663/Gvxp862P11v+NfjSzF0XdKtBxSx+ut/wAa/Gh4pY/XW/41+NMXwMlyXdKtDxWx+ut/xr8afO2n/X2vxE+NMXwMkXdKs/nfT/r7X4ifGoPGNN+vtfiJ8aYvgZLkvaVZ/O+n/X2vxE+NR88ab9fa/ET40xfAyXJe0qy+edN+0WfxE+NR89ab9os/iJ8anF8DJcl9SrD56037RZ/ET41Pz1pv2iz+Inxpi+BkuS+pVh89ab9os/iJ8aDjWm/aLP4ifGmL4GS5L+lWHz3pf2iz+Inxp89ab9os/iJ8aYvgZLkv6VTsX0cZIwZfFSCPvFVKqSKUpQCpqKUBNRU1FAKUpQGq+sU/2dNp/Sjbx7rbfbWMW2SDOmFiWMJ3Z6QSBsPD7Kyvp8k2rQyxm8oy8JDCfdWLv6kW/wC91K3SSe8cU28PA8pnzrWb/BVvJjC2rK/gpCyiEdxRJiQo69OXWtL4pxVU1upRrAuBRafIblQEt7YkgBSSAY+tW1XOI2GI/tFlgDlAdOnj3jP8q0/inAxqtZqby3reCG1tOR/u0E7dOf3GsfTuV/edPqFD/GV/Q/TWr2vs270dmwdgvIMyiVQ+XMx1itp9cPCrNvRdpZVbV4MFGEJI3kGIG2xmtC1Gv0aW1TF/lSkSxJC7uYK9/YhY+j059axXE+MPcvY3bt97OwJch3Hd7+IO3Pl5V216ilPq+DipUnGPRGutqbvZwbhzyJnMcoHWaqM95igRmaAueLE+/l9tLaWyLmYfKB2eJEZT9LbliDy6xWW4Rw93QO6hLZUAODiThOXs7lgGXmN9uZ54p37m7XgxzG+HLsXFmCQZJXcd3ly5jnVAG+FORcMxGEzvz5ePSsz2XaaRrrsSy42xvAgYY7AxABjdd5G56WF3Rn9H+mnIgCcxjIBkTziYkR+caKEuTNyXBZXbl7FRk3abyJ3jpXp9U+awxw7uXL7Z61c/N9w3YF1mbDLIC6zRt3SFBYHceVU7PDma3cfJgFJkQY2E7yQdztyMdYG9ThLlkZR4KNrUvk0ttBx5c5H/ADVbh2raCbrARylJmBIXujaTtPITVPUaBRaR+0ksYxg7bSSDO8HYiB9oINeeI6O2jAW7ougiZClfsg1ZKd9pMq3DvFEC44uF2Ldm047sRJ5RVK2bgRlLMHJBXcz1mq15BigF1jylSGhT5bwY+yru7oD21tflORZQQ/e2y5CZkzy+2qab5L6i4MbduvgoDHITlufE9autS1xL2LFlUEBgTEeIg716t6dcrgbUFRiTMMS5xnEwdiZjckc9/GdRndVrty9LncpBAJkL0AUGN4HQE005cjNcFtb1Dy+TmI7u/WRHLymoTU3Am7Etl49Nv+aqajTIMcbuUmGJVhj7O/WRu3Lfu1W03Cw102ixB/wMGJ27uJggxJ38KnCXLIzjwjq3qK4pdZ3sM7G32ZuYkkgNmBInls3Sux1xH1GWlXW3wji4os7MAQDLIeTbiOX2V26sKqtKxpSd0KUpWZoKUpQE1FTUUBjtTxIqxGE+eUeXKPEGqfzuf1Y/j/4q34l7f3/5mq2qty6ii39J1fVW1tgBIbKS09CI5edatb9DgCDcxdd8olT/APyRyP38q3Gahzsa0VeajinsZuhByya3NVf0RtmybdwC42RfNyzNHRYO23j7651xttONQ1u2i2ypIxBJHPKdx4GI8q7VdOze4/lXDPTDSFNXlM9oM48OS/8AitKFV53ZFWHt2NhucQsHRCx2rh8gzJL4bXcuQ7vsgbVrt3tPlHaYWW6i2u9uMYJMGQOu5G9V7vF/71fkqqTH0SDbjn0G3PbaKvuB2HLK4XZuRgEyHt4gKeZzxEGNmO451u6cJpy6MxUpRaRgLWiur2lvs0e44EAsAyEHLIKCOhPMcjVDTXns3G2BJUK0jxUbqRuOezA+BFdOPyv5zL4/2vs4w7FOzxAG/wDff+efurSfSbTqL2WRNwibgKYYt3pEAkHkDtsJjeJOdKHu/QtUnsY/ht23i1u/ddLePdwVCWO3dkiVUkAmNtvGp4h2UobF66wUDe4YKkcgI5QAOVbHwDi40t64ulVLqMiOxYOYa1bycIRJIJJ54/cJrzxv0huPfBZn04IVi2nDhyGUQCGxJjwmOoreN9W1vv8A0Yy/p3uakvtZMQ/+IzO0b15RYVl2IMdeUEbjzIEVlxxvVR/1N/8AGu/b9Kp+e9V+03/xrn+6uzT8HHqW7mDKbAZbCYE8p5157HzH31nfnrV/tOo/Guf7qj571X7Vf/Gu/wC6mn4Iz8nvR+jll7aOdQqswErNud58XEfbHWqw9HrRK46oZqoaS1sAFVRgqnOZ78D/AAmry3rtSoeb9+46WxccfKLqqgLKI2aXbvrO4Ak84mrhtbrOxOoi72UA5DVak4i47opI7SdmtsPunnWDizoU4mtaXgqNqGsvcCqsnIFTttB2MbA5HwAar/Tej9h07utthSQ2LQp2bHIyRuB2hiOi/WFZy3c1rFgSyAFBL628gJu21dEVnuQzYsGjeJ3rGcQ4hqklk1OqUBjbdHvXMrbj6JIIkGDB8iDykzjfoRlZGDOhVeye3dIJusmTQkFOzOQIJ2GfPyrKabUE6/P5UN5/TNhBGOUQxKxOwBJ5CqB49q/2rUfjXf8AdXk8b1X7VqPxrv8Auq7pFFVN39R4Py3UEmSbTEnxm4pmu1Vxb1N3Ft666jXFLNZ7pDSGJKuQCebATPuNdprzvVK1Q7fTP2ClKVznQKUpQE1FTUUBgOJnv/19ZqtJq44s0XP6+s1WHa1k+ptFbFwDUO2xqmHo52PupcWIvcj7j+VcW9PLn9ptGdwm38Rrs91tj7jXB/Sm+z61kYiFIRemxVW6ebGtaP5jOr0Kram5hduFm/SKgb/8juTPciOUQR9tF4uwCCF/RhlmCCVLBgCVIOzCQRBBrzc0NwdshFsdmq5bmdvq9Cd99h0mrGyntT9Vj18K6qdlFswn1Rsel9ISbnbMwF0fT7TVZ8oiQx8hHkKsjN65jKy5Cg96NlK9RMSQJMnqedWWniNo5Vd6e2vaWwzYJ3+9J2iD4RMx49NvG9Cs3OxSrTWNzO8I9Hb/AGr9gnaqiKcv0a4tdQlDF3w8iD7jVh6Q8He25a+OyOMDa0+Tqqkqez2Wcpkz5k1l+BaKwHuA8TuWDCEMji2DJeVJyiV26/SJ6ybH0l0+nzAGvfU+13mYX4hVKxExk232Ctk3rL6P+DJ2039Ua4gEbctvzb+X/FDUdp/Ur8adoP6K/Gu9bHnyu2TFQVqO0H9R8ajtR/UfGpuiLM2SyyZ33dytrU2iouFWZUYulzFwokd62V2HgYq+/wDUFmzYWzbcXcDaRxiypdU/KDdUZAHH9MqgmDO4G1alY1rJODMs7HFgJ98Heqx4ze/XXN5+n9bn161g6aZsptGy8b1mk1R7NdR2SI6lGdLhzU2LFphCKT2im0RBABnnVvxG1c1N26tq2Tc1FwXEQlRcCW1aGaTClgZ3PSYIINYE8YvHY3XIMz3ieYg8vLavOj1Ti6rI7q5b2lLB+8YbvAEyQT0NVwxWxbLJ7oyet9E9ZaAL2oB8Htt1A+ixjcgfbVjxDhd2yFa4Bi84kEEGIP2bEc/Gsr6Vau+IU3rrLm6wbl51xAQhCHEZAz1B5SorXbt0tORM78yT+dVoVJzjeVi1anGDsjPcL9G9e1tdVZsXcF7y3FgHb6SiciPMCu3egHG7mr0i3boHaBijEbTjHejpIIrXuA+szQrpLYuEpet21Q2gjGSgjukDHEx1IjrWT9VmoFzSXHAjK/caPCcTH865K85zi3ONrPY3pRjGolF3utzcaUpXEdopSlATUVNRQFlqOFWXOTpJ95+NUjwHTfqx97fGslSosTdnOfWeo0li2+nARmuYkkZbYseTeYrm2j9K7sfpnYwZGCW9xHIyNt+tdP8AXJZy0tr97/oatB4HqX7BEGmW4FyEyFYnItv3SSseEcudbuMVSUmjDUeo1cw59LdYTIuACTsEQx5ct6xF+2+pvAhcrzEk4iCe7J+5V/lWT4vduvcvkWVIUKrFFYrbiGykEhSYIkyIyrF2mjB0eH39nIFYMcyBzBPLpW0FFrbqRKT79D1qtGygMLdxUhQWcLGUd4ArtEgx1ivTcPvLt2VzLcRg8fVI5b7mPfWZ4Bwu7rH7M3GCL3mJJMbdJOxgHett1HAL7NkdVc55f3g5khp2sjqAeXSqzqYbStcRjnur2OdW9HcLFRYaQ2BhbpOXLHrvPSq1/h95Bk9u4qjbcMoEnpkOsfyre7Ho5cRshfecw/8AffSBynez4/ZVrx3Qai5+jZ7rDHIM7pcSE6QEVl58+Xl4TSrQUl0/cVaU2u5gPR/hgudobmnv3VCEqyQqgggEztMSNt/dVvxqxYt7CzessQCouFDPeMmN5EeB51fej2hRvlDfKL2FvZezlMwzLIKkEgcifJaymv8AR9QtzDUXSoxt3WulGHZ4i42JYAiOU77g+ddLqWrbvbjcxVO9PpvzsahqrOAAYOLhxIUqCpRlkNkDzO23KDVt/XI/GvfEbNq3dcW2ztg9wyCTIncjbx5UAXHvKTcnnkMQIMrjG59neRHKutM5JIpk+X8j8a92ikNkGygYYmBMj2gZkRPIjeKjEeFU3H9f11/OpZRNM9lRQoKnTaooZETBG6htmBU7EeBO/T31ANSQ00RgIiqllEAYksHGJQBVKkzvkTygeRmvE0FQ1clTaLvUpdujtGTuy75BABJIyMgDlhsOm9TYY5W9Q4N2496BlcCAsgDS7spEGQI2671d3eMXk0PYqurKFXhkCfJwDcacibRbnlMOOdYzEHTLLEKb0XGxzwGIwbHmJJYSOeMb158qjUZKO1jvjC8ot73M1rfSN79u7p10qKySXK3kJAtsSQJSGE790jYACuq+pd54ef3zj+SV8+W9PbJcG6FxDYTbYh8Zj/BIHXxrvvqN/wC2n98/+VK5c24NM3cEppnQqUpWJqKUpQE1FTUUApSlAaL62z/ZrX7z/Sa0vgHycWFyv4McsgCikd5gN2YEjE+yOc1ufrc/6e1+8/0muP3XSFABBg5EkEEztAA2ERznevRpUFVoKL5POqTwrSZdcYVTdvlL3dYLzkdp7KkYrKkg77mIXbesVcsAIoxUEZd5RDNMtLHryiq+pU22KtGQ8CGH3rIP2GqyaZ7yg2LVxgoGZiRlBncDYctudaxp0YWV90Mqku2xlfRziKWHbGQrooJbowBnl9GSY+yetbL/AOoLQjK7bB/xrH3zWianuMy4ukQMXMsDAmSBG5kjyIqro+H9ravXSTNtZgLIOxO5kY8vPxrP1Hp6clm3Y0o16ieCNyPpRpv1tv8AET41hfSP0mTutbvW2UKylUOTNmIIJGw5c+nnyOpLYl1WNmJggNO09CfKp1dm2uSYtmGENlAgTIKnqdtwdornpenpzftZvUrzit0VfR+6csVuXCzJcZ1BuW1DKCUOVoyw3MgwB49ayGq4s9trtl1Z1u20VcrlxxbJWGZe0EyQT8TWJ4c9tO0LFgTbZVjs2EtAhp3Aidxvyq11eslp5kAeyoAXYbhQB9/j1roawneT2ME8o2j1Ky6gKmNvIF7ZF2cSrd4RjtK8hUH4/matPlCwdiFiBtPnuff+dehqYgEGT/P/AJrZeopcmMqFRroZ/gjWsbmdrtbvdKAgsABORI9+A8dz51b8ZuDuqbK22kzipUEbjl13H86teG8cu2S/YhgWQ23GIJKsQSIPjA3rxrONXLwU3MmVMgvd5AkSNvMVg6kXVyy2++xqqclSxx3PFt8SSVV5DDvgkDIRltyYcwfKhukhQVUYjGVEFpMyx+kek+FUzfG0q28RtsfAA8jNDdM44vlziDPvjwro+IpcmWjVtax6y8qnLypduKWbs0vYKY7wJcbb5BdhvNUze7ueL4fW72P38hT4in8xX4efymQ+XnsTaJPOAMQVxORaWmQciIgeP20QydkilQcbju6lsM1KqB3hPskMdxtl76t3LAhTbuBjyBDbxuY8edTByIweQAWBVpjfciOXLyrCcqMk0n1N4Kqmm10LNAg7SUVpDYHtCCh3xO3txtsRv5V331G/9tP75/8AKlcKhGJiPsrvXqWWOHn98/8AlSsKtFQhdM0hVc5pNG+0pSuQ6hSlKAmoqaigFKUoDQvW9/09r95/pNaL6vuF2b2rRLwS6jW7jFDJgqYGXLfr12IrePXD/wBPZ/eH/Ka5No9Vf05F22WtsynFgIkTBgnmJWJHhXqUIuVCy67nnVGlWbfgv/Wnw61p9cbVhAlsW0bETEsWk7nyFWvovbulWw1q2FLn9Gd52gnGeR2HnWO9JOINevG4zXL2wXNgAxA5SJMc/Oq/Bn0trE6nS3DccZKSSAVYNiQNv4hzri0pqW6+/wBTszg47MudfYZr1xWuK9wFibkhVbETO5jcCABz6VZ6bVOAyKYW4O8IU8wdpIMfZXrXvbNxjaUrbJ7obmB4GrfQakW71pm5K1tjHgpk/wAq9XFYWaPOUve7FLUWmVu85DA8mUSOnJh51Ny4pggENHfJYQxknICBiMYEb8p8q2ZuIr8p1Nzthi6GO88MZXYYK08iYO2/Oa1S1qX7yC6AhAlI3J5Hpt+dcsKijJJQtc6ZQbTvK9i+0ub3bC3RtNpACoWVLT4DKcjuZ51QtatkWUJQ3UK3MO6GEkQQNo8qy128t7WWXF1cAtndhG6EdzuzueUmOW8VhLloqqggggEEEQQZ5e+s/UyyirqxehG0nvc93NfdNtbJuv2SEFULtiMeUCYEV6vcVvs63WvXTcScHLvkuQgwZkSJFWF+zlG8V761xnUXlnid8O1xb10XHgMwuOGaNhkZkx51Cai8ENkXLnZtMoHbAzuSVmDVoKqK67SCT7z5/wDFAXV6/eYIrXbhCEFAbjkIRAUrJ7pEiCKltXqO07TtrpuAY59q+cTOOUzE9Ksy1XhS34j+poCkusvLkRduDMkuRccZHqW37x361SOpfDss37L6mbYc59mY578qpuZPlUUBXu6+6Spa7cLL7BLuSs88STtyHKj6u7mWF1ySsFy7SRt3SZkjyO1WVy2CysdwI292/wBlVGEyPHagLZ4N4DIIpwliCQO6JMKCT9gr6A9STzw2f/2v+SV886sd8+5f8or6E9R//bf/AJn/ACWt5v8ADsYJLU/6dBpSlcxuKUpQE0pSgFaJ60PSfUaIWOwKjtDcyyWfZxj3e0a3uuVevX2dL77v/wBdEDnXpT6b6zUlEuuCq94BVA3MiSefKsKmteRIkeWx+8g15yAuAkT3f/Jq8TVp1X+VaqckrJlXCL3aLW9q2PsggeZB/mAK8DU3JB6jyq7fUJziqRvAnl5U1JcsYRXYx9nijlizmZJJ5Dnua7B6K+rpBat6rWXWtscHVQFGI5rmXBEnbaNutcZ4xaC3biLyVmQcuSkgcvdXbbvrC0xZVN1xmltwAl8nfGMcRjiQGG3Wa0nWnilczjSipN2MT6y/RC9YU6u3c7W0NnBVQyrJP0RGIJNW/of6D29XbOpum4lj2QoxzZlEXCGEgIGkA8z9lZTivrD0zaXU2x2rk22EsrYgsCAC1x53YwAB+RjH8H9MrNnh2lDhwbb3bb4KWXv3TcAMXFILLyJBBMiqKtNRxuWdKDllYvvSn0MW/a7bS3GyA7qvspjaOQIOw3rl2n1SkiyVJaezUFxaCMWjvEqRs0zuB5iuh6X1haVWGKX22gjEDp7RJuwIliWIM+Vcv15Oov6i9bHdLvcjl3WLNMe7eqxbezexZq26Kt3iSdngLZFwHd+0BUwd4QII265GvVzilsupWywQTkpvZFvCG7MYx7jPlVO1oGa12vQGDs3io3MYjdh1mri3dKgA2bR2G7WxJ8yevvrZUL9DJ1rdSnb4pbDszWSUMYp2pBXxl8O9PuEVVsXGNrawSzlsLnaQB0jDHvRB3kTVTT6kFlU2bABIki0CQOpiegk1ndKdIfpW7axO9rfn7JC+yfAnnudoqJUWiY1UzWdTrwMU7HF0YC4TcJzx2ZYxhJPUTFen4ra7TIWP0cRgbrST9bPGR7qvuPJZxVbK2yTORRRIiIAYGDMmefKsaMUfJEDpyAvKPqiZCn60xvyqVQuiHV3PVviiAuWshgx7g7RxgPeB3/tqn85DssOzHa/rcm8Z/u/Z5bVcnWj9n0/8Df7qz+n0WkIXJ9KGIBMBoXZcgYfmDnHjt51Do2JVW5rdziiFkIshVX2h2lxs+XU7r15eNe14mmbN2IwKlQmdyFO3fy5n3HbetjXR6QAlvks7QAZHISCQx5HI+YAHM1bW7mn+TG41vTi/BIt4kyciIjORtDb7HffkCVInUNZuHJifz8hHT3V9DepAf+2//Nc/JateFeqjhzaNA4Zrz2wxvB2BBYTKrOOInYEHbnWR9T1nDQFJnG/cEjkYxE1WUk4OxVJqaubzSlKwNxSlKAUpSgFcp9ex7uk363fyt11avFyyre0oPvAP50B8qaewGY7gAAc/OfhVd9Oo+kv312b1vcKL6RBaQ7XJPZr4qwBIX7q4bd4bqVkFL0HnAeDHLpXTCk5RyRi6yUsWXGCzAMnwAJ/8V5uW16mJ8QR+dUdF8qs3BdtC8lwAgMFeQCCCJjlBNVNdqNXeAF03XAMjJXP5ip0WNZHr0b9BtdrQ7aezKISpZmVFyHNQWO5/kPGqXyy7pmOnu2Lc2271u6jMVI9qMmIQnqViZmum+rD03taPSfJtTbuqUZ3V1ts2QdixB6hgSfsitD9ONedbrLuoW06K8BQVMwqhQTHUxP21MYNys0VlNWumY70ju3QVW7YS0h76WwcQJ+lFpgJP1iJM+FU+F6y9lNpELEFdi0MJLYlC4Vxue6QeXlV56T6ttU1thZZCiBD3TLRESY3IAiqHBrz2WyNpmO4GzeW+3URVMJfKXyjyTxXX9oCo09m0BsyouALDYk9lj9xnlVPRcQUW7lu4cVKY21Re6CQxMkmd2xMkmqOv01xhKqR3maNwRMEdN6s3svK84gTzHvq8va/ylYty/uNg0dv/ANvue1vcB5dyJXvExzlcefWsnr+H3CujRkMmEACv1FsmAxOTSXJKgSenKtMIORM7RsPDb/iqaZgHcg7Rudv62pGs12IlRv3OhcI0Qta+4qWmwCbJgxIywgkNLe1JnqQOU1ZcNssNBqRg3tCTiSBjhlLcgYHXlHnWksXxENv13qqc8hv3dp7w+NW+I8faK6Hk2XX6EJprDdkysxcl2WAcoKQxXeQCQATtVDg922t1TcMIZUkLkw25gBgQfMefOtetMZbJhEEDvCqra8urCUTdWAXujYY7eXU+Zqyr3i1Yroe5O5sANll1BYL2mRKQpjc8g3QASYKj37wPd67aFmywwLBly/RRGAgKd4uKTkTuJPQTtqj3mgAXBPXve/zqs+qbIfpO7Anvg/dPLpVdfwX0PJtrdmNVaMhkAXc6dTlzJmzsBE493kACKnhQAuahcJMHGLRbqSolQOzVtvobj6sVqdvUMsk3FMjuw6mJ8fAxNUO2fGMxlJ+kp8POo1tuhOjve5uWg9JdcLS6S1qLvZnuLbWCd9sFMZgdIBrufq84Lc0miS1dgXCWdgDMZclnxAAnzmua+oXQLcv3r7rmbaKEYwQrOTlHQNAj3e+u4VnWqqSslYUqWLybuKUpXOdApSlAKUpQClKUBFKGlAKUpQClKUApSlAKUpQCKiKmlARFMR4CppQEdmPAfdUdkvgPuFe6UB47Jfqj7hUdiv1R9wqpSgKfYL9UfcKj5On1V+4VVpQHlEA5AD3bV6pSgFKUoBSlKAUpSgFKUoCDShpQClKUApSlAKUpQClKUApSlAKUpQE0pSgFKUoBSlKAUpSgFKUoBSlKAUpSgFKUoCDShpQClKUApSlAKUpQClKUApSlAKUpQE0pSgFKUoBSlKAUpSgFKUoBSlKAUpSgFKUoCDSlKAUpSgFKUoBSlKAUpSgFKUoBSlKAmlKUApSlAKUpQClKUApSlAKUpQH/2Q==;fontFamily=Helvetica;fontSize=12;fontColor=#0A3DA3;align=center;strokeWidth=2;fillColor=#EDF5FF;fontStyle=1;verticalAlign=bottom;strokeColor=none;labelBackgroundColor=#EDF5FF;labelBorderColor=none;labelPosition=center;verticalLabelPosition=top;shadow=0;imageBackground=none;imageBorder=none;" parent="Gr0Zq-AI6Quabplr0KPa-98" vertex="1">
            <mxGeometry x="300.4912769010043" y="122.41007194244607" width="161.87354375896697" height="198.58453237410077" as="geometry" />
          </mxCell>
        </object>
        <mxCell id="X31E-dGhFTVf8kw1BePZ-5" value="&lt;div&gt;&lt;font color=&quot;#000000&quot;&gt;&lt;br&gt;&lt;/font&gt;&lt;/div&gt;&lt;font color=&quot;#000000&quot;&gt;SENSOR&lt;/font&gt;" style="text;html=1;align=center;verticalAlign=middle;whiteSpace=wrap;rounded=0;" vertex="1" parent="Gr0Zq-AI6Quabplr0KPa-98">
          <mxGeometry x="204.00305177111716" y="351.2857920878356" width="62.20708446866485" height="38.8421052631579" as="geometry" />
        </mxCell>
        <object label="Ultrasonic Sensor (HC-SR04)" placeholders="1" id="Gr0Zq-AI6Quabplr0KPa-103">
          <mxCell style="image;html=1;image=data:image/jpeg,/9j/4AAQSkZJRgABAQEBLAEsAAD/2wBDAAgGBgcGBQgHBwcJCQgKDBQNDAsLDBkSEw8UHRofHh0aHBwgJC4nICIsIxwcKDcpLDAxNDQ0Hyc5PTgyPC4zNDL/2wBDAQkJCQwLDBgNDRgyIRwhMjIyMjIyMjIyMjIyMjIyMjIyMjIyMjIyMjIyMjIyMjIyMjIyMjIyMjIyMjIyMjIyMjL/wAARCAMgAyADASIAAhEBAxEB/8QAHAABAAEFAQEAAAAAAAAAAAAAAAYCAwQFBwEI/8QAVBAAAgEDAgQDBQMHBwgIBgEFAAECAwQRBSEGEjFBE1FhBxQiMnGBkbEVI0JSocHRFiQzNGJycyU1U2OCkpOyFzZDdIOi4fAmREVUVfGjs2SUwsP/xAAZAQEAAwEBAAAAAAAAAAAAAAAAAQIDBAX/xAAvEQEBAAIBAwQBAwQBBAMAAAAAAQIRAxIhMRMyQVEEFCJhM0JxkfAjUoGxYqHh/9oADAMBAAIRAxEAPwDv4AAAAAAAAAAAAAAAAAAAAAAAAAAAAAAAAAAAAAAAAAAAAAAAAAAAAAAAAAAAAAAAAAAAAAAAAAAAAAAAAAAAAAAAAAAAAAAAAAAAAAAAAAAAAAAAAAAAAAAAAAAAAAAAAAAAAAAAAAAAAAAAAAAAAAAAAAAAAAAAAAAAAAAAAAAAAAAAAAAAAAAAAAAAAAAAAAAAAAAAAAAAAAAAAAAAAAAAAAAAAAAAAAAAAAAAAAAAAAAAAAAAAAAAAAAAAAAAAAAAAAAAAAAAAAAAAAAAAAAAAAAAAAAAAAAAAAAAAAAAAAAAAAAAAAAAAAAAAAAAAAAAAAAAAAAAAAAAAAAAAAAAAAAAAAAAAAAAAAAAAAAAAAAAAAAAAAAAAAAAAAAAAAAAAAAAAAAAAAAAAAAAAAAAAAAAAAAAAAAAAAAAAAAAAAAAAAAAAAAAAAAAAAAAAAAAAAAAAAAAAAAAAAAAAAAAAAAAAAAAAAAAAAAAAAAAAAAAAAAAAAAAAAAAAAAAAAAAAAAAAAAAAAAAAAAAAAAAAAAAAAAAAAAAAAAAAAAAAAAAAAAAAAAAAAAAAAAAAAAAAAAAAAAAAAAAAAAAAAAAAAAAAAAAAAAAAAAAAAAAAAAAAAAAAAAAAAAAAAAAAAAAAAAAAAAAAAAAAAAAAAAAAAAAAAAAAAAAAAAAAAAAAAAAAAAAAAAAAAAAAAAAAAAAAAAAAAAAAAAAAAAAAAAAAAAAAAAAAAAAAAAAAAAAAAAAAAAAAAAAAAAAAAAAAAAAAAAAAAAAAAAAAAAAAAAAAAAAAAAAAAAAAAAAAAAAAAAAAAAAAAAAAAAAAAAAAAAAAAAAAAAAAAAAAAAAAAAAAAAAAAAAAAAAAAAAAAAAAAAAAAAAAAAAAAAAAAAAAAAAAAAAAAAAAAAAAAAAAAAAAAAAAAAAAAAAAAAAAAAAAAAAAAAAAAAAAAAAAAAAAAAAAAAAAAAAAAAAAAAAAAAAAAAAAAAAAAAAAAAAAAAAAAAAAAAAAAAAAAAAAAAAAAAAAAAAAAAAAAAAAAAAAAAAAAAAAAAAAAAAAAAAAAAAAAAAAAAAAAAAAAAAAAAAAAAAAAAAAAAAAAAAAAAAAAAAAAAAAAAAAAAAAAAAAAAAAAAAAAAAAAAAAAAAAAAAAAAAAAAAAAAAAAAAAAAAAAAAAAAAAAAAAAAAAAAAAAAAAAAAAAAAAAAAAAAAAAAAAAAAAAAAAAAAAAAAAAAAAAAAAAAAAAAAAAAAAAAAAAAAAAAAAAAAAAAAAAAAAAAAAAAAAAAAAAAAAAAAAAAAAAAAAAAAAAAAAAAAAAAAAAAAAAAAAAAAAAAAAAAAAAAAAAAAAAAAAAAAAAAAAAAAAAAAAAAAAAAAAAAAAAAAAAAAAAAAAAAAAAAAAAAAAAAAAAAAAAAAAAAAAAAAAAAAAAAAAAAAAAAAAAAAAAAAAAAAAAAAAAAAAAAAAAAAAAAAAAAAAAAAAAAAAAAAAAAAAAAAAAAAAAAAAAAAAAAAAAAAAAAAAAAAAAAAAAAAAAAAAAAAAAAAAAAAAAAAAAAAAAAAAAAAAAAAAAAAAAAAAAAAAAAAAAAAAAAAAAAAAAAAAAAAAAAAAAAAAAAAAAAAAAAAAAAAAAAAAAAAAAAAAAAAAAAAAAAAAAAAAAAAAAAAAAAAAAAAAAAAAAAAAAAAAAAAAAAAAAAAAAAAAAAAAAAAAAAAAAAAAAAAAAAAAAAAAAAAAAAAAAAAAAAAAAAAAAAAAAAAAAAAAAAAAAAAAAAAAAAAAAAAAAAAAAAAAAAAAAAAAAAAAAAAAAAAAAAAAAAAAAAAAAAAAAAAAAAAAAAAAAAAAAAAAAAeZA9AAAAAAAAAAAAAAAAAAAAAAAAAAAAAAAAAAA4x7Zbm6s9Stqtvc1aTdKMVyVGl1lnY7OcT9uT/AD1rjqoRz98jTi982z5fZXMKuraq8JandOT7eNIzLW04vvKLrW/5RnT/AFnVkl+1kt4P4QqXb0ytRcJXuoUnVjUlDmjZ0Yyw54e0pN7Jep2S24Q0elaxo17d3jXzVLqTm5Pzx0X2I35eWY3Uk/0z4+Pc3a+ab234w01Kd3HUqUOvNJy5fvMD8savUeFqFRvyVaX8T6c1bh21hplSlTpzqafy/nbTmb5Yr9Km+qkuuOj6Hzzx7wx/JnXZQoS8S0rJVKVSK2kpLKHHyTO6sn+k5Y9M3Gqd9rslL+f3PL6VpYRSrrXE/wCv3OP+8SNfTzUnGK3beMGyp2toswreOsPDrQinCL77Zy0vQ2z6cPP/AKYzLLK6xn/2897117+/3P08eW55O91ttJ6hcZ7Lx2Y99aVbC8qW9XHNB4yt011TXo0Y3MWmO5ua/wBI6/4bH3rXP/yFxj/HZ4rvW03jUbjK6rx5Gvyecw6P8f6OtsVe6y9nf3Of8eX8T13muLZ31yv/AB5fxNbk8y/IdH+P9HW2fveu/wD39x/xmPe9cW/v9z9leRq3L7RzYHT/AI/0df8AzbZq51tv+v3GfJ15FUrvXXiMtQuPo68karm8jxybHR/j/R1/8226vddjDkV9Ww+/jPP3lKutdSxHUK2H/r2arIyOj/H+jrbT3vXOv5Rr/wDHZU7/AF1xUHf1evXxnn7zU8x7zJdsodH+P9HW2/5R13ZO9n6fnWW/ftbj01Cus+VZmsyipSQ6P+aR1tj75rcpcy1Cvn/GZ5K+1nPxahcfZVka7m+Iqk2sot0f80dbO/KGt9fyhcR+tVh6hra2eoXGPLxWYDlsUcwuH/NHWz/yjrG3+ULj/isflHWeX+v1+ucuq8mv5nuUORW4/wDNJmdbKWp6vy4eo3C/8VlD1PV4/wD1C53/ANazAgqlWahThKcn0jFZZ74Ny02res0llvkexW6i0trNWp6s3tqN1/xZD8parzP/ACjc5/xZFulpV5KnSrV4u3pVY89N1NnOPml5Gxo6XYScFCne3NTPxKC2f0wsmGXPhL/+NJx5VhPVdWx/nG4w/Kozx6vq0dnqNx/xGb5aNZqLa0DUJPsnUePwyXo6XZwjHHDFdvv4ldFP1GP1/wClvSv2jK1bVEttRuf+KwtY1RSX+UbjK/1rJTKztsNrhu3ppd5XC2LapUY7/kjTILs3XWfxI/U//FPpfyjj1nVZv/OF036TYlq2rJfFfXaXrORJY1FTWYUdMpvzdx0/aeyu4yjvLSOb9aU3Jr9pH6j6xT6X8outV1XHw393h+U5FP5S1aTz73eN/wB+RKfylVy377p8XjHw08/uK46pWzj8qWsV2Stc4+nwkfqb9Q9GfaLe/wCty2V3fP8A25GRCtxJOk+WeoShnDeZbfaSP8p1Ft+W5rMeXELZ4x9xYlUoVYNVNWvJJ7bUZ4f7R+py+on0Z9tNTr8TUcpSvG+jUpc2P2mNUvtboy5qle+h9Zywb7wtK6z1C85vNW+P3nsaVjL4bbWZwl0xWptL6ZTYn5GX1EelPtGvyvqb3/KF1/xX/E9/LOqcvL7/AHOP8Rmw1TSalJKdaEMT+S4otOMvrjb95pPAuMtKlOWO8YtnRx8uOXZllhlj4Z9LXdWor4L2v/tS5vxLb1XU3Jy9+uct9qj/AImEpNPD2Z6pG8k8srazqmsarVxz3txt5TaKfynqWMO9ucf4j/iYqlse5JmMR1Vk/lLUf/vbn/iv+J5+UdRTyry5z/iy/iY+SrmLdMR1VkS1PUZYbvbjPkqjWP2lP5R1Ho7y5/4jLGQ2R0w6qyFqWo4wru5x/iv+IWoah2u7n/isx1Icw1DqrJjqeoxeVeXGfWo/4nj1HUJPe7uG/wDEZjt+Q5hqG6vq/v1/83cf8VlUdS1GOyu7jHl4j/iY3MVRmNQ6qu+/X+c+9XOf8WRU9S1FpJ3dxj/Ef8Sw5HuW1knUOqrr1DUGse93LX+KzxX1/wBrq4X/AIjLaZ6mTqHVV6GoajBtxurjLW/5xsVNQ1Cq053Ndtd/EaLfMMjpnlHXkue/ahjHvNxj/EYV7qGMe83OPLxX/EpyEyemI68lcbnUMcyr3HKnhvxHs/vDvL5//MXH/EZRzPpnY9cttyemHXkO9vu9zcf8V/xMiyu9XuK8bK0qXdepWeI0qcnKUn6GFKWep3X2RcMUrPSVqdSlGV9er4XJfLTe6j9MfE/PMUZcuUwx3prxS5Xu5/R4R4snTVSVC8pRe3xVGs/tLNxw9xLa051ZQuZU4deWq219mT6chplqnzVaar1H1nVXN+zovsNRrPC1CvbzrafTjRuYpyUFtCp6Ndvqjkn5GW/hveKPmelqN4qijKtcJprd1H5n1bon+YdP/wC7U/8AlRwLifh+Puy1e1p+HRnUUKkH1jLr/E73oTcuH9Ob6u2p/wDKifyMpljjVOHG45WNiADldIAAAAAAAAAAAAAAAAAAAAAAAAAABxD25y/P26x+hD8ZHbzh/t1WK9s0/wBCGV9sjTi98U5PbUt9mNxbS0uwovKulpsJRyutPnlnD/vdToZwXg3Wq15p2l22m3NGjxBpEZK2o15csL63m8ypt+aa+vRrJ0uj7QbCFOK1XT9S0656OlO2lUTa68soJp/sHNNZ3Zx3eM0ls5RhTlKbSgk3JvokcI9oitrngC0vKsV48VQpUJN74dSb2/2ETLW+K63ENtUsrCnX0/TJQbur+5hySdNfNGnDrl9MvBxTjbiWnxBqsFZ5jp9tFU6EF0wljP3dy/BOrLURy3U7o5Sn4dSMl2ZuqMI17dznWUaa+bz+w0SGfJnZyccz8uTHK43cbDVbxXl46nbCivolhfsRr28PIb7FLLyTGaivm7VZzueNnmXsbSy0K4u8Nvw4vvL+BFykTMbfDS1LhqXLEyI6dqVWh48aFVwfRpdSW2HCFtbV1VrLxXnMed7fcSey0SrKpz06VRy7Pojkz5e7qw4/iOa22lajWhidry+UpPDX1Rn0eGLup1ml9Fk6lQ4bu6knmlCmvRZZsKfC9XOJ1JP+7tgp+p/lb0JfMcnjwhVxl1an2QH8kKr6VKn+6dgjwnHGZTk/qx/JSm31ePqV/U37PQjjc+EbmOcTl9sDGnw3fU9lyteux2mXDDi/hnJfRlufD1bla5ub+8i0/Iv2i8E+nDK2mXtD57eePOO5iyzF4aafk0divNGr0m+a2jKPnHZmkvNFtLhONSnyy8pR/ea4/kS+Wd4LPDm56mSi94RnGLnbycV67r7yPXNjc2csV6Tiv1lun9p0Y8mNY5YWLKe5U3lpb59ShYeEVVMeJLDys7F1BrCyyhNp5XU9+h52Apz2KJMqZbkUyq0S7gCcKd5qE2oqoqUVGT7LO+xm6xqVzqMZwoN+6RlyzmnhVJfqrzMH2d2lPUNVu7apOcIzprxHD/Rp5l9vRL6m54ir0nr9ShGlCFtYR5VQgsRjjGYpebeE2cHPd5adnHOzX06Ntp8YVLyn75fVUnC3jlpeWe79ESSjw9rVWEZ6nqdLRqclzRtqUc1cf3I/L9rGn2E9DjHUrp82sXK54NrPhJ+Xqezq1KsZTq1HKTeZtt5b+pzWW3U7NpqeWP8AkXRnUebrVbuS6ynUVNP7N2ePSdHjKSWmzkl3rXU5Y/AyVP4Y/A8Y7eRRzuGHUz3TWPUTCHVVEdK0pxz+TLbGOr5pY/aHa6dConT0+yUf8H9x5zPxd1y98vO/llFT7uosvu4k9MRurvh2akvDtLT7KETIcKLinG0tVlrfwYr9xj0p04OMUnJY2bWVguNvPNL5Y7Yb6E9M+jdXpSVLEYKi298qnHZfcWfHmspygpdnyoonLdxTjnDxHyXmY7cI7/FzYy2lkahusud3UbWXFPG7S3wUSvpyahHGXty+Rjrl8WMZdHt/d+o550biXK1nPKpdPuGobZbrZzFQpSUlh7bmLWs7KtTSq21PL78uD2bUajScnLHzI8pZlHmclJRfxKXYjUNtPcWFWwnUlZpVbd/0tvU+WS+nZ+TLFi/c76ncWUpOhW35H1aXWL9V+036cvEy0msfFg1WqWc9J1Ci47Uq7Vai/KS6/uLTshBNQnTnqdzKk/zbqycdsbZ8ixkkPHGn0rLXadxbpRo39vC7UP1XJZksdtyORZ38eW45c5qrqKuxQio3jGqkweHhKHuQePYpcsEbTIuJop5jbadwvq+pwjUp23g0H/2td8qa9F1ZJrPgWypte83NW5n3jFcsf4meXLI0nHagablLCTb8ksmXS02+rfJbT+1YOpWPDdC22t7CMcfpNZNzQ0CvUaShGC67Iyv5H00nD9uRUuGNTqLPhpF9cKahy5k44+h2OGgTjHDnv6bD8gcy3k8FfXyW9GOPrhO9cW8r7izV4bvqa2SZ2mXDkXHaTX2mPU4ektlN/b2E5s0eli4pU0a/hHLoNr0MZ0K0HiVKaf0O0V9BuIrCUZrPdGulpSpSzUtHKL6tdi8/IvyreH6cm6PGBuT+84as7u4k4rw2+nYjWo8PXFpUkqWZxXTJthzY5MsuKxpz1dT2UJU3yzi4teZ4mjaVlR7nj6Hv0PWtuhKFmSbTXmfTHs61i2ubDTqKqx8Sds+SPm4qCe30X7D5pk8LYlvB2vSs7inZ1bx2k41FVtbjtTqeT9Hnvtu0Y/kYXLDs34ctV9Vgg1nx9cUaEY6vol2qqX9LZJVKdT1WWmv/AHuY2pcR6pxDbTtrG0q6ZYSTVe7upKEuTvjtFeuW/I8zTs2j3GF5bVeF7p28o+HK6T27vmlj9h1Hh554c01//wBtT/5UcF4x1rTrinQ0jSXzW1rhSrJY8We2ZY8uy9Pqd34ak5cM6Y3jPu1Pp/dRtySzCbZYWXK6bUAGDYAAAAAAAAAAAAAAAAAAAAAAAAAAA4h7dcqrbP8Asw/GR284h7dN61vt0hDf7ZGnD74pye2uQXWVKlJNpqEcNPDT8zdW/tA4pt7eFBatUq04fL48I1JJeXM1n9ppbn/sv8NHlCyqV4ufNCEFs51JKKPQvTr93hxzKy9mZqvE+ta1T8G+vpyt858CnFU6efNxjjP2mpMm6sa1nKKrRxzx5oSTzGS80+5jk49Ov2ouVvl71Keh72PH1LKvMmTaWFe+ny044j3k+hsdK0KreSVStBqHaHd/U6FovDrlGMY09l3S2X0MOTlmLbDitRrSuGYU3FuHNUfSTWW/oibaZwtVlhpci9Flkp03h+hapTnFObW77m4io01iKwvJHFny3J148cjRWnC9tSkpzjzT83ubujaUKCSjCP3CpVjBNyaivVmo1DiSxsKcpVa8du7eEZdFvlfqkbp8qlskvoW3KKe7+w5rqHtY02jKUaM3Uku1OLZFrv2tXVeTdC1ml2cpJFphIi5V3V1oYxlFPOvNfefOtf2na3UqLwadJL1k3kuL2pa5GKSp0M/VkzHBHVX0JzLpsz3OMnAbb2r6rQea9tCa78kmjd2ftfjKpH3i2q04+eVJDoxp1V1+dKFVYcU8+hgXOjUKsGnFbkb0r2kaRqHLGNzT5u6b5X9zJVb6nb3UE6dSO/YenZ4T1faPXeiulnwcx9F3I9qOmwlFwr0eVvrJLZ/VHSXBT3aMW4sKVVPmin9S0ysVslcR1XhR0l49r8PfC+V/wItWpToTcJwcWvPudw1HSalBynQXwd442kRXU9AoahQlHkUKq6wzvH6M6ePm+Kwz4vmOa52BmahplxptZwrRfLn4ZpdTD+p1Syzs5rNeVDy+2xbkXsFEolbFpXTvYtQs6X5f1S75E7eFKnGUv0U25NpfYjQWdzC+4mdxc707jUM1G/1XPKMTgu5lFarp6ny+80U0vNrOPxLUFKNSql8MkuZfVHncvvdmHtdG4hnjXbuMsYpT5IxfbG2xroyliUE8rHR930Lt1Xje1qF8t43VGFaLx3xiafqpJnia5ctvl7d8szkXeSzGlyOOMJ7Pb7ceZRDPKm3nGNjIuZc9dTg8rkwk/PuY0Zppxk3nOEyAlzqtJuOVUX7CqKc0/gbk3nOcfU8dNxkpbRTazLHfyKW2q0nFRT6Zb6/QC5G4dOWIw3b5W+XoUwqSqzl8Xf4dtxNyqVFPfaPbb7RGLU+VJxe2Wn1JFys3iHRxb3UurMd8zimmtntjyL1SjKThJuLx2zueKC5Xs8evVAeQhFuLmk1/EXKhCSUXF77YXRebKkpx5Emtt9/2ZK5wzFZjlvq0BiqUJvCbSy3LBdjGC3lOKkmsRxuFDd/ColM0pVHHlWcY2IoSlvhr4n69GY3HtXlemWsV8dG155fVvZmx06yjXrOvWbha0fiqTl5LsQ/WdTesazc3KXKqs1CnFfoxXRCjU8S3SuqelYhyunbum354ZpI58jZ69PmvqVFPKoUoweFjEurNakd3DP2ubkvdWipYwUo99TojGmQ5LuZFlZXWp3cba0oupWl2WyivNvsicaJw9Yaao1pqN9er9Nr81T+i7teZTLORfHDaN6Vwpf6kvGqp2lonh1KkcSf0iTHStD0+wlFWdr4lxjDrVfib+nZG/s7C41GabTfm30+wlmm6HQtYqTWZebObLkuXZvjhI0WnaPdVnmu8Rfobuho9vbb8q5lvuuptFSfMoxWEX1axXxTf2tlJjflfcYNOnF45aeH2wi94M10SRYvNd0zTIN1q8I465eCKap7VNJtXihNVX5Q3LdojvUydtN7ts88JrozmF57WnUtXVtqMpNNxabxhkcn7WNWm26dusLqnIjqxNV3LkaX1LdSEnujin/SrqtS3jm3jCcVh/FtL7PMvUPaxe04qVW25l35ZDqhquyU0n82/oUVaFOWU4r7jnGne1qwqpe8U6tPfq45RMdN4s0nVaSnRuaUs9Upbr7CZq+Duu3GkW1wmnBczNJecO1qfM6fxRfaW6JXGdOryulJSZfnBuHxR2FxRtynUOHaVdYqUlTm/Pp95DdT0m506bat1OH1eTvFzp8LiDzFP7COajpHJCUfD8Sn5d19C2OeWKtwxvw4p76s48FZ+rKo1lVyuj8mS7WeGacuatQgvXC3X1IbdW1W1q8sk010fmdWHJvuwywnjWl/lTS3HKsYe5bpVlNeUl1RcTz1Npdse8uq2NhxFrOl4hY6lc0IR+WMajwvonsXr7iTWtVSjf6nc3EF+jOey+zoaf9LoXfLBHTPOluq+Gwtnt36r8T6q4Z/6saZ/3aH4HyraZUXnzX4n1Twu3LhfTG+vu8PwOT8vxG/4/mtuADidQAAAAAAAAAAAAAAAAAAAAAAAAAABxD265U6DXTlp5++R284n7dfloYxsoZ++Rpxe+Kcntrjl11o/4UTc6DVtvGzXgm4w5abayovO7x9O5prn/sn/AKuJTQuq1tJypTcX6Hfnj1Y6cWN1ltINdr0pabCgksxqyqQ2+VNJNfa1kjJXVr1a0s1JuT9SjOM5J48OjHRleq7epZxhb+RIND4fnc141Ksc94xfb1Za0DR6l7VVZ021n4F5+p1bh3QMRXPFcv6Tfcz5OTXaNePDfemi8Np8rcXyd2+5N7ezo2tJRjFZS7FdGnToUlGKWSzcV1SpynN8sF1bOLLeTqmouymknuseZpdY4jsNJt51a9anBRW8pywkQ/jD2jUNJpu3t8VbmS+Gknsl2lJ9kcX1TV73Xbx3N7XlUa+WP6MfoiO07HlOOI/ajd3dapS06PLSzhVanf6IgV7f3uo1nVu7mpX9JP4V9F0MWcnJ8r//AGe8zhDCIF1V26ThTSjJ/NLyMdz5PhfcqXwrK6lMIupLdb5AqjTkn8MW/RFyVCaXPOLi/XsbChyU6Sik+f6dS7GNZUm6lGbg9t0SNLB83zdPxKnlSwvtLtSlJuXJTk16LoWGnS+ZECqfLhOO0uzXVG60jijVdHSdG6lKK3cKjyvsNGo83xr/APYWJ/C+wl0Oz8Ke1KneVoW1/HwastlzP4ZP6nTaF3QvIKVKaeV0PktvlfK90Snh/jXU+H5Ri6sri2XWEn8Ufoy+5fJ/h9H1qUZU8NJ5I9quk+JBypLEl0aR7w1xVZ8QWMK1KrFtrfzi/JokEoxxhi467o25hqWnU7+Mra7glV6KTW0jnWraVW0q5lTnF+G38Mmv2HdtX0uNeLlCKUuzSInf6dT1K2naXUUqyWIyfc14+S41nyce/DkuNz2NPmzulFLMpPpFeZmXunVbC9qW9X4VDLc5dEvNmuqVHdyVCiuWknnf9J+bOq5zW458cLb3SngmEK9xqF1Tpcys1TqKLW845fN967eiM/WdEr213KtRXi0nBVozp/pU5bqSNVwlq9Dhu9rXNa2dahKlyTkpYcd9mvP6Ep0z2gaRU1SjY0+e1s3JyoVrumnGhUl80XjL8KXddnujl5uO726OPOWdjhCcL6lLQ7iuqNao3UsqkniMpfpRT9e6NrcafWsLyVGrQq0+X9GfzPzZsdc4T024+Ox5LCvWSnOxr5qW1WXZ05x+V+TTIRrWtcT2tf3W4qXE6dvHlhKqvGSXlGaWWvqc3lrtvq3JLC8OUVnfbsW+ePibqTx0z2RFo8U8RVKKpxbcUv8AQPK+3BdXEfE8owhGmpYjt/NnnHrsOk2kaaakopyTXb8QlJ/NQcu2Ywf3kdlxBxfGKXh1o42T92a/bg8/KnGtZNKN4n3xRx+0aNpVG3rTg2o1MpdORlVOyuKkU3QqJSWGmtiK8/GM6fx3N3DG7UnGOPtyW3DiepGXiajU5V1fvNNdftGjaaxsblJKNCUcLqymGlXTTi6O2c5c0skC8PXa03Teoyl5Yu4v78MxpUdSc0nqTcn+rXbz9yHY26TLS6s3HMqKb6rxFse+6zhFKV9a03j4l4ieDm0tGv8AmSq3NWLe/L8cm/uRS9AuKtRwputVl5KEh2HRZ0LGEVKvq1ql3aecliF3wvb1mrjWIy5X0WXn7jntbhrUFN0lYV3OL3+B7P8AAknCnAdzqF4qF3bzhTw5Sc5qmpYWUsrL3J7DO13iT8rU3pnD1vKNtj85WkuVY7/QjtKz/J9jXvpwqVJQfJbwjFtym+7XXHkTvV9Z4P4OtlSh4F9ew+SztFmNOXnN5az6tt+RG7X2haY7mrdLTLidzJc0syjFfYvJE48dy8K3LSF3lKrStLWF1n3pxlKafVJtuKfrgwUjLvrqV7e1rmaw6k3Llz0z2MbB38eHTjpyZZbtrwzdN02rqdeUIzjRoU1zVrifyUo+b9fJdxp2nT1K4dNVI0aNOPiV68/lpQXVvzfZLuyU6fSp6nOlSt6EqGk20s0aT+atPvUn5sZZaWxx33ZumWtKND3bT6MqNjJJynL+luX5yfZeUSZ6PoTrRU5wxTxsvMuaJoyqJVaixDtsSuEVDFKlFeRyZW29nTjNLFpaQtYKEIpmxpW83iT8t/Qrp0YW1N1KskkurZCOL/aVa6LCdvQTqVcbQi/xJ7RHe+Er1bWbLR7OVerVjsstt7I47xB7Wby5qypadDEN0qk+/wBhB9b4ivdbuJVrqvPlbyqafwx+iNVUqeLFOC37mdytWk0z7/VbzUbh1L26nUcvN4S+iNepS8eMIr5mIUnUlvlvyRdcXFpRymmnldUyqXkYVVXaqtqM+uPIu0q9G2ryiopwmsefK+zMylcU63NGUPil1SXcsXOm8tKFSEJybWenfvsBgOU6tdwh0fTB6o8u0nsxPxYYxTnFp91gVITqfE9l3Au0LiEIzpYWH8UX5Mot416lwo0JShNvMXF4ZblGMIqSCuKlOrCrSbjOLzFrsBKtG441vQLiMalb3qnH9Go92vRnXuHPaLpOv0KcPEVKv0lSqPEk/wB589VHKrNVZpKOctLy7l24lTotSoPvzRcdmWmdiLJX1ZSdOpHmhJNMoqW0KmXJJnC+EvaXf6TONDU+evaPZVv0oL180dq07UaOqWsLm2qRqUprKlF5TNZZZ2Vs01Op6E03XpLG26x1IFrugQuYTcKfLNLMo+XqjsPOpxw0aPVtKjJqpSWJ9dhLcbuIs3NV89XdpVs6/LJNNfK/Mqo1FUW+zXVHQeJ9AjVpTqqCTXzRXZnO6tCpQrY6NPZnXx577xz5477VkP0PY9vMt05qa9V1RXHOV9Tbe2Pi6rZ272y+zj+J9T8LbcLaZ/3eP4HyxaptNeq/E+puEv8Aqnpef/t4nH+V4jo/G81uQAcTrAAAAAAAAAAAAAAAAAAAAAAAAAAAOI+3TPPS8uSn/wA0jtxxP257un6Qp5/3pGnD74pye2uO3K/os/6OJjmRcp/mv8OJjvqenHApZmadZSvrqMMfAnmTMTDlJRistvCR0bhHQVGEHOPNLKz6yK55ai+GO6kHDej4jCChslvhHQKNCFtRjCKSwuxRp1hCztlss9y7KbnLHqcNu665NRXCDlFzbxBdWzmHtH44/JcvybZtSvZLdN5VKPZv18kb/jjjuhwxpH5mMat5UzC2ot9Zd5P0R87XN3XvLmrc3NWVS4qyc6k5dXJ9WZ5X4i0nzVFarUrV5Tq1JVKs3zTnJ5bfqUSXL8vcJY6l22oTr3EYwSefMqla5MrdPm8jL07Tq15WcWsJdGzfw0+GnRjVrw56zW3MsrBm2lknGd3SWFH9F9V6gayjo1tYVnO5XiLGFF7NP1Rk0LKjbZufDi6Te22zfkXas3f1lCrs1tz42S9T2blTqRpRSlBeb2fqgKaNGN/cc9OCi1vyrp9hVWrOvWVvPDjHZYXQqrqFOhFW03zY+KPdFNOcVSzWWKr+Vrp9oFN5R90xTpcs47ZlH8GWbjTretZt1KcXUl0h0f2GXbwlQfiVkpU28pNbMpqUffanPQcuX9WPVIDQx0WM7eo41XCUV3XU1lW0rUF8VOWOuUiX1qsakY2u0ZR/TXf6ntT/ACfR8KcVLn7SWc+qYEKhjmTm9n3Llanhpx6Lqk8pm7v9EVS1nd2svhT3i/3Ggy6UeXH2AbTQdeu9C1CFzaNtZxUpN7TR9CcNcR2nEOk0rijU6/C0/mhLvFnzND9bO/mbrhviS64d1P3ik5OhNpVqSe0o+a9UXxy12qLNvpZSUm4S69DTavpniR8WmsSW6aL2kanQ1awo3VtVU4zjmMk/mRtsxq0Wn19S1mlY5jxJoEdd0epyYp3dH49/0sdmc0p0FRjOEvgjD+km+3/vsd21CzlbVvFp9G98I5jx9w/KhWt7+02s6zanH9Sfdv6mnHlq91M8d9vhC7m5dfEYpxpR+WH736l2y0qvfwqThHFKCzKb2S+rexZr0YQlHlk1F932Ni+e+4foWdBpShV55Qbwqm2PvX7y/JbJtWWSTXhutK4y4n4StpWKrK506Uce7XHxQSfeL6/uLNPinTateVS60yvFSTyqFeUcN9+vmYE7adjpNOyuWp11zy5FLKpp9I5/b9po8NPD69ykwmU6rE4597PpOrPjDh+yuef3XWq1OVNxlGV41JSfeLT2MijxNZ1rSrWlaaxUoReHVr6i48uem+cZOe4NzWjLUdGtbelKEZUpuSjJ4Um0lu/NYKZ8ck3FrnqzaST4p0+wuoXVXh2tWbcZpVb+dSGPKK6YZrK3GNk5xdDhyz+Fyea9apUzns1lIw7mjGy0mhpznCtWpxm5uLzGLk8qKfp+9mhxjYtjxSyWxGPJu2Jdp/E97VtbiELHSadvRi6sYytFOUcR+WLbzv6l7SeMb26q3dOjpWi0lGj40o+6LD5ZJrG+z3+0ilndytKjaWU/LsZy1ehRtKlOhbU6UqjzUcI458dE35ehF4e/YueU3NN1/LHVqFXntqGnW8t2vDtkuVt5bX2lqfGOv1JqTqWaa2SVstlnO32kalK6nBTbm4vOP/Qo5rjzkazj4/pX9/8A3JT/AC34rXh8urKLgsRlGjHK+3BYlxdxPLnzq88zzl+HFPfZ74I5zXHTMg3cech0cf0j9/8A3N/V4q4nr5dTXblvCTworKXTOxqL281OvBePqF1WguilVeF9mTFcq6WW5YL9vWVaPhTwqnZ/ren1JmOH0b5J33sozhcQ5eVKqluktpeqMepTlRmpwbWHs12Kq1F05c8MpLy7MvwrQuI4m0qnfyl6lv4qN/3Y+FCuqUlmcJKXflxgyLGjU1O/o2NlSnUuK0uWCfRebb7JdWW3aQju4pL6m7saT0fTKko81O91Ok6dN94UO8l6yey9M+ZFuUhOi3wyXa0a1aGjadW8WwpT569wlj3mousv7q6RX29zo3DmgqryPkxRivhSRHuEdBdO3hRlBeLLDl6HVrO3jZ2sYRXxYMssttccdKvBVvRUaawuhl21KFGi61V4xu2zHoqpVrRTj8C7kI9o3GctIt1a2kk6s9l6epT2zdX83TA9oftDVq52FjP89jGV0ijjNS4rXdWc6spTnJ55pM9uarrVpV6snOpLdtvqWZ1Htyd+hl571b/AqKUsSefL1Mqnp1xOm5wWYZSbxsjL0zS43NVSuJSzjZLs+2SVWVk6tJ2u0Yx2w31f0IGiek29lbU6k6jqTz+chDsjNlZqrbQrUKUIKGFL4ez8zZ2tOyoU6ttXzKWXFrruY1pVrz8Ww5eVY5cruuxApvNNt7Shb3jcN/mUe3qW7q7dS1pVadJRlHaTXSS7GTpun+LKtaXE2pJuKUuq8i9be60bStaVlHmWYY7gYjsfEoRuLiCcZNfF5fUxtSsLSHhzUI+A/hmls16mTbXVxXpVbJReEuVvzFlaRr0bijdVOWcdvi7eQEfvNHoqnGVm5+HJ78z7+hh3GnXFlSfjUWo/ozW6ZLLetb1LSpaQpKU0msrs+zMelb3GpUpW9WXyNqMe2wEMSqTi0spIqhyRi1PdpbZN7W0KU6Mq1tNKrTyp05d/PBoZUmqmXtHJIvRuYytnS5cOLbT80yRcE8X3/DF5y/FV0+b/ADtF/or9aP8AAi8kqVRNLcq8eaq8677P1RMuh9T6RqlprVjSurWrGdOccqUX1MucG5YfQ+eOCeLavCepwjXqOWnXDzUgv+yb6SX7z6EtrulfUI1qM1KMknlPqbSzKKWaafWNLU4OaXbpjr6HKOJdGjb1nOEc05bndJU1UThLoQ7iDQVUVSGPhmsxfky2NuN3Fcseqarh9SEqU9uvZ+Zdi+ZZ6NdV5GdqdnK1vJ0akcNPdfwMNU3zpN/F+jJdzsxu5uOW+dVs7fKpSa9PxPqPhD/qjpf/AHeJ8u2u1KopPEklt57n1Bwb/wBTtL3z+YRzfle2NPxvdW9ABxOwAAAAAAAAAAAAAAAAAAAAAAAAAAA4j7dOZTo+UoU/2SkduOJ+3Npums7xhTz9OaRpw++M+X21x65TSpf4aMYyrpZVB9vCiYjPTjhbXh+xd5qCljMYPb1Z3fhjR40beEpLp+1nOeCNK+Gi5R3b55fV9DtVrBW9pCCWHg5eXJ08eOoprT5IYS2NLrmt2mi6XXuLqoqcIR5pS9PJept6k4RzKfyx3eTh/tU4jo399DR6U04Qfi3Pq/0YL8fuOa5ajfW0G1zWK2vazcalWyozfLSpN/0dPsv4moypVOZfYetvm5M/D+BTNYklDqyiV2NOdxUVOnFym+3mSvRdPo0KHPUajUS6y/S9DF0vT528adSKXPNfE/JeRtq/h3KjRtlySWzj5v0ApoudW6lCvHNPus9F6C954P8Ams+allLbr9C860LW3dCtFczfzPqjE5p2CdznmT3g30f2AVVp03R8NPw68l8Uuz9C1SqKzot1oOba+WXb1Rl6bo9xr05VqEORRWW5d/oYGpUatvXlQqt1MdJY+VDuLVOTdaVdOUorr9SqVVX1ZZXLLPboYiq1KU1GGHHOMruSShQoTsFKEYu5l+g/xJ0NXXvJ8kbWcZeHF9Mbl/KsbeE6M05SWcx7ejJFolO2layhqNNKEU8SS3z6lipwlXr3yqqSo0qizF4+H0z5DVRtpbWlTrRlXniNRLbm/SKYZr1pKvGTpx6S9PQydR0m9t60qdCnKUKcsSws7+hYlcU6dv4NTHPL9NdYkJUXGZTUbZ81JPZ/xRr9W062nbwlTWLpbyS6NGwoxnZw8VPmjL5c9/qWadFV6krjKSW8ot/gKIhOLVTC2ae5c5eejLC6L7jN1S3/AD7q04vlk99uhTOnyQlFd4iCVezXiOelanHTa9T+bV3+bcv0Z+S+p3ei1KMakXtI+UVKcKkXGTjKDUoyXZ9j6K4E1yOtcP29VyXiuOKiz0mtmjTG7mlcvtIru3Vak13IfqmlK+srjTa/SpHMJY6SXTBN4t9PxNPrdq/DdWDcZJbNdmSivnm5tpwnOhVi41KcnGSfZo2WgcMXmraVq17QvI0HYQ53Tktqqw29+3Qq121qUdYrVajeKmW2+8iScCWdbUdC4ksaLSncUoQptywuf19Dqt6sOr5c83jl0/CA0LnxYqM38f6Mn39GbriLha50i7s7eNWFzXu6MakFSXn0Rtafsr4gr3EI1fd7ejzYlU5+bGH2SJXxRbwhx/wmoNuvKCW2MNQfl27kdUtkLj/dEdqey+lZWVGpqvEdrY1px5pQqJKKz5NvLNFxJwlecN06F1RuY3un118N3R+XPk/3FfHkZXXGOqTlVlVdOs4R5pc3Kl+ivQ0cdY1KGky0hXlZafKfPK2z8HN9Csl1teWXsW9dTSpzeJ/oyff0Yq26nLLbi++EbrS/Z/r+saXR1G0pW7tq3yOdZJ4zjLXY3cPZnxK7d8ytKlRLZRq7v0b6F+ueMlMsLL1YIpw5w9fcSarGys6SePiqzk8Rpr1f7iXUeAdI98VtT4lsZ3LbioSjl83klk94E1W30251LRr2p4Hv35uNZPHLNJx+bt6D/ou16lKUaVxbV6CzKlVcnGXoiuUkur4WmVs3GinoF/T4kp6JXxTr1qigpP5XH9ZfYjfVuA9Mt7qdCvxPb06kPmpyUVJfXL8jWWFxqtxxvpNLU6lWd3bXEKX51fFGKb29e5a47ocnGWovkk4Oanlx2SaRfv2m2fbVunnEHCtzotKF1Sqq6sJ/LcQWyz0yVaDwjX1exq6jdXMbDT4L4a9VbTfp6G5saNWl7ItQdyqkIVK3NQU1s1lYx5JvJb4llSh7OuHKdOc0prm5Oz23/aOq+N/KemeWPV4FpV7CtX0fWrfUqtLrSprGV6b9SC3FrOEpYi04v4ovqmTL2c1ZU+M7enF8qq0qkX64Wf3FWl8P/wAp+LtSp1Kkbe3pVZTrxz8TTk1yx/eyL2urU49tWMThfhPUeKLOpctxt7emmo16sX+eaXRLv9SM17NxrSjHGza3PoWxjK2StqVKlCyoxjCg4y5vhxvk4zxfpFzw9rE4zq0a9K4cqlKS6pZ6NGcz3dVfpvnFq9F0uF5q1Cnd/wBUhmrcOL38OKy/v6fabuzqXGtcR1rm5p8seZSjTXSEVtCC9EsFrFKx4Rtqk4L3zVarm3F/JbweEsesuv0JTwhp068aWVmUpczffHZE5dvCZu9snROGNOULRV6kVzPpk3jxKokhCEbezjBYSSWyKrRc0p1Zbxju2Zea0+GBxNrVHQtGqVpNKSi9j5p1nW7jXNSq3NZttv4F5InftW4hndagrCFR+HHeaRzOpJU5LlMsrurSahGjKpJRe7fRIktlw9Oznb1rlJqf3J+RhaJawq06lxPMq0f6Ndo/UklKNzqunzjLLcFzRjnoVSuVnaabdU69OSmqkVlfqvyF5UrVLqFzRSgqjSko7L7zy1s6VfTKkM8s4Lmg35rqeR1CnUsJ28I80sbf2WQLta0p29zRuprMZfDJRfR+pXql7bWlalc2yi8x+JR/eYVor/XoSsqMHOS+5Y75JPofB2kPTJT1u/fi7pUYyxh9tu5Mlvg3pFbu/q1rmndUPzbniMku/wBpTXhC1uqN3V+Sonn6+pLKlbSamj3Ol21D3erBfDVdNykpLp9jI9p1Raha17TUXBVcPkm49X5PyJ6dm2LXvoUrinXtaclCeFJtdyqvRlVu6d1KbxN4lvs36lcqsI2lW0qyinFfC+6aLdvWqahbStoW/JU6c/8ABDRtk1aVKxvKVeOFSqrdvsy1eXqoXsatrH4KmE5PzKI6ddV7Kp47UlDOcvoUxq29xYeHRTlWj0/stEEU1LWq72NWpUahU3z0TZreINOo86dConOSysLZvyNn4d1qVnJSzF01mMYvuZNK3t6ukqo3+cp/Fl+nYCASg4ZjVTUo7YYclKDfkSbW7e21GjC6toNVor85y9GvMjUkqTWUBQoSqU92+uMM637I+LFF/kC7m3OKboSk/mj3j9n4HJY1H4m62ezMmyrVbDUaN5Qm4VqMlOLiTjdXZZt9ZtfFnsWL21VxRawaPhjW3rWjW15GSkqkE8r9pv4V29n+03ZuT8c6HJpXMI8s4vdrsyBUGqs3Smt091/A71xFYq5tqiSWJxePqcOrW7t9XrwxhJm3Dl8MOadtrrj4aaT6H1BwakuD9LX+oR8wVN5vfbJ9PcFrHB2lr/U/vZH5XtiPxvdW+ABwu0AAAAAAAAAAAAAAAAAAAAAAAAAAA4l7c4/HSx3pwb+yUjtpxT2455oekKf7ZSNOH3xny+2uO3WeWh5eEkW7Wi7i7pUl+lJFy5y40PJUkZ3DdDxdWi8fKj0vEcU712XgnTVGhCbW76E1rfCsLoa7hu2jRsIuPRRM+s+aRxZuzFoeJtRpadotetUkkowcnl9kj5euLud3XrXFVt1as3Nt9dzsntg1NUNJVtGW9eahheS3ZxSLUnz9+xz3vk0nh6k4L4jM0u0jcXfNUbUfTuzBk3Uly42/El+jW1CjbuVRuDSzB/rMDYOM9MofDhucd8bpoULenClK7i1GWfkfVFuhOr7zJVo5p53Xp6FN43WrRnatumnhJ9UBbdSN5Vk7h8rT+dr9hutB0itd39OvcUFO1/QhLo15mDpumLW7xWSmqaiuapUz83kjpFBw0HS3bV4c3OlHEusfoy2M+ai3XaLWr29KNr4el4XIlzxWzi/Ii2vWtGlp843UYq6qLMakemPIklnZO2dTUlXlUoJ5jJvOZeqLdayteK4uVWCjUTbllYTx2Rayq7ckpynZ1lOpDMH2fkSLS6LvJRrU+dwi8uMeyNZxDZS0++dpLMqafw+hn6bXrWdmlbJyk1lSj1iu+Ssq6Tq5oalVjZ/DGUY4U47cz8mb7xp6HpisLhc3i9W1zbPujXaXYW1xbK9X5m5px+GGdpmfYTuLi4lS1W2lG3ynKXNmUV/AuovUNKpW9tUunFTpzxywfzRfoQnWNAdbmv4RcY5+ObjiOc9DoNxQr+8Up2bVWzy4xn1aXm0ZlyrW9sJaVyRpXHJmfMvhnH+JXKb8JlcRVaoqipYzDsuxXeJSpxjQalGLWdt0/JG34i4cq8NqM5ZqUarx8SxKm/4Gmt4zpP3mMm452k/3lFlM1R8FwrL841hPzNLdQnSdWDi03H4W++5vppanVbglF+SexqtVnJ4g234a5csgaV4Wz6k69lmr/k/Xq1lUqNU7mPNBPpzLr+wgSfPLddOxk2V5Kx1K1uYtrwqsZZXlnctjdXY+rITUmpLdNHt1RVe3lHG+NjB0qq7jTqVXDxKKkm/Jo2UXl8vmba7s3MuL9PhW4ZvoKC8S2mq0Glut8P8AYyPcDuuuGuK3Sk4pWuYzi91LD/cdD16dHT7lO7pyna3D8Go12Utv3nFq9S+0S61DTqNzUo05SlRrQhLaaT7mvF3lxY8nazJhq9u+Ta7uFnyqy7/adF4kn7pxtwbXubhQoUaMMzm+nrL67HNDKvdQu9SqQne3E684QVOLm+kV0R0ZY7sZY5aTTjXhTWLjie9vbOxde1rvxYTo422WYtefkR3VODbrTuG4axe1oW9epUUadnJfHOL7lNtxpxNplnC2s9UqKhTWIwnFT5V5JtZway51u+1q68XU7upcXHSM5v8AYl0RlMbP229mna/vx8tbC4r048kK1WEc55YzaWfoXY312k173c9H0rS/iVV7dvdfP3RitcrxkWWL45TKJTwloX8qXd2ivadG8o01OhTmv6Zd19hft9D4uoara0reOoW9WnVjGE3KThDfrjOMESoV61rcU7i3qzpVqb5oVIPEovzTJR/LbiW4oqU9YuE5bNwxHOPoiZu+KrlJj+5MeLbq0q+0Xh+hQqUql5GUPGlCPSWdk/sz9CvXOOXo/E1bTa+mUqlpRmo1JN5nKOPLp36HL5VqtLXIV4VJRrRmpqon8SljrnzLlzXrXVxUr16kqlao+ac5PeT8yMMJe1RnlrvPlPPaCtQvrC11CzuPG0GUU6ap7KMn3l+Hoe3GnS4j9nWkw0hKtWsny1KWfijL9JffuQWGoXlKwqWELqrGzqSUp0FL4G/PBVp2q3+k1ZVdPu6tvOceWTpv5l6ot6fbUV65btNeCeGtT0fXJ6nqtCNla29KUZSrtb5Xb+JCNSulcatd3NByhCpWlKPK30b8zKvdf1i/t5W15qVevRbTcJS2fkaomY3e6i5TWol/s6qTqcWwjOrNxVvVfK5vHTyIzfyXvtw+Zyj4kuVt52yym0u7mxuFcWlepQrJNKdN4aT2aNhoWm0tYv61O5lONCjQqXFWUXhrC2/bgZTV6v4TO80zbu7ttS1GjGhRl7nTp06NGMliSilu/teTq/BenU5J14QcYRWIp9jkWg8rv4eJFtRWcI71wxSdHRoNpJyWTDOSNsN6ZV23OXJEsaveR0jQatWe3w5eS8m5XKWM5ZEfa1rFOx4elQT+Oa5El3bMd6xta63ZHCdWu56nqlxc1JZc5tr6FGn0YXF9ToyWzl8X0MNSlzp9iQaNZzdrUr00vFzlPG6wZLVIKdK30q+SUU4TjleTPad9KhezVtBxp1JfBlbZ7mMrSpc2HiVJc04fE9y1VuoJqdNNziljHkQMiVGrS1D88/zc/jWf24MnSLK0uOII2sqqjTn8TcfmkvJepjwo33ELp0LaLlUgnL4V8q7s6vw/wnZ2ugupGnTlVoTVVVHHd4Xd9S2OOy3TQarbS0GrB6dbxt7eu00l8yx3+0vWmjW1rrNvf1pqVK4hspSz8XckOq3tnqGnTpUqXjXFPE4KPp5sj1va3fEukTiuei6Tk6cIrGGvU1kijO1ednpOpRuVK2jSrQw4v9F+WezZAOKalGrqEpWjhGNXeUIdV65J9Dh/S6+gclzUcq9OOcSeXKS/aQ2dGneUa9pa0oxuIN7yj8WxWpiNWVGja6zayv8AM7V/E8v5vQ39zqtD8vQenW0Y0quFTb6JmuhpM7mzm54nVpvOF6E00+00284bSjShOpTxKLxlyl3SE/gv8sWfDlS21Ole305OhWi3JPaDn5GLrGhUNG1TNJxTqU/Fw9m13WPMkH5buNX0H3KhbOU6MsRnOOW3HtgwLHQYa7zS1S4l79Tiri3qqWIyiuscdmvIWb8EuvKG+/u31Bxt6b8Oq/hlJfuLdO0nTv3CrN+HNcyUun2Et4ss7GvZ072xUZ3cJJVIx+WP1IlVp3epWvjOTj4K2S7IzvZZUpW+l304SxUhUWYpLrnsRXV7bwLmUpQcYyeYJ+RK69tSVhC5U/ip74Zg69OnqWlU3COalLrNIgRFtSp8y8yujRlVw3lfQtpqnLGDY2dxGNGeVlvr5kwdH9kWsOhWu9ErPb+nopvt+kjsNGKmtujPnHhvUlp/F+l3a+GCqqnN/wBmWx9J00uVSXdG2F7KVavbbmtJYXRZOJ8WWSt9cnNLCm87ep3uMeelJPyOVcd2S54VUujcfuNMLrKMuSbxrntV4lJY7n1BwZ/1P0z/AAf3s+YanzyT8z6e4K/6naZj/Rf/AOzL/le2M/xvdW+ABwu0AAAAAAAAAAAAAAAAAAAAAAAAAAA4p7cotum1nChTz/vSO1nGPbfvTin2p0/t+KRpw++M+X21xi5fw0c/6KJJuBLVV9QeV1mkRm5fMqL/ANUib+zikpXEX/bZ6GXtcnHP3O4WNPwrNY+xY6It1pYbZlUk1aR+hgXbxTm15M4s/LrjgPtYvPeeIrag2+WnTc36NvH7iAVFiWI9ST+0G4dTjC5b25YRgskY5Gvj8+xhGjM06kql5SjjOHlksc6d9+apJQmtlFdyLaPWnC88SC7YexKKFsoUZ3EJLnb/AKPvEshdqXfu1JWdRJ56t/NExpKdjBVabbnU+Vrfb1QoNXUnUuJNKL+d9WzJ0ik7jiChGolKk5bx7SI8ifcH6NQelu5nGNKso5akvn9cmZBvULudtdwnKhHGKkusIl7UaUa9vCjpkVHw2uaElumvIypXdCjZq1upxhd1P+2Sxj0waqNVfKcb6lCwxO3TxlP4ZPzaL9/bRjZqGntq7azKDlhLzZmafay0O3lXrvnpzTaUujXp5FFOwWpXPv8AbVJeHFZmk/l9B/A55xPp1zC095voJ5SVOUF8r9TA4WVZXHNUSdHKy8bP0Og6zVhr8atjKMPFiuSDxiL9WQmwnHStQnpFWDi5T5ZLrt6EfKZ40mPusNVnB6Y5xjTn/RLu11ZvZ1qEadPTK0k5NPmm3ia9GWrHTI6VY+92n9JU3jGPzQ+pnaRC31ahG5uVGlVaco1Wsc0u+S1+kPLa3fC9k6qw6E+z+JLPQx4WFG7U9UpyzOiuZxllOX0PJTvqmoOnNKdtUi48spbLHVpHl3DMaUNKm5UovkcWsyUitS1us03xBp11QvIShj4lUa3ilukcmrTqUKjoJ5jGWJcvRndnWt1pcaFRRjeZ5FNrafnk4pqlo9K1i6hOGabnJwTW0l6FMvKZ4WuWMaL8KX5yW7j0x9DFqU4TtZxqrEuXZ+vqXaFGdWfjxeYLd4fQ8upxu6vI8RfTbv8AUqlFqiS2T6ftKetN56tdS5Wo8teaf6MsfUolh/CSPpPgvVYalwvZ1YrEpUYqSXmlhkkorMk+5zb2SzqT4dhHL5YylBL7TpNFNT38zfe9VTTVcS2lO4p0/EjzRUlLHng4jxtQ8Di+/SSSqONVY/tRTO/a9D+ZJpdOhxP2k0VHXbSut/FtUnt3i2jTi97Hl9qGAYB1uY+0sVKbjzTguq3/APQv4BFm4tjlcbuKLauqmKdR4njEZefo/wCIr2/Plx2muq8yirbZhOrHGI45l55L9KcqlCDk8vdZfcpPPTVsvHXiwPTDyZtD+rx+rLeopK+nt2X4Fyh/Vo/VkY+V+S7weVl/laP1X4FbRTX/AM7wXrH8Ct9ScFOT4UtvCXZdB2Et+ixseGig28JdkeFXU8w30AJEi4enRt9E12tKrCNarSp21KLfxPmeZY+xbkfijZUtGuno1PVE6boVK8reKz8XMt9zPPwvh5Z/DlNVdUktuVzwvpk+hbWEaOl0oxWFyrCOCcG0efUKWd8zW32n0BWXh2MEu0Uc/L8ujj+GHarFzmXZZZxb2vairrVKNs3tHMmsnaLNucqjfRLsfP8A7SYqXFUk3+j0Rhn4jWeUOTU4pLq3gl1hWWnNUqS5+ZbNrr5kTpJU7iCSzlrYmjlbxtYXCf52m1leaKJU0lX98dKrLFOSyu3UuOhb2VxUhNrD3T80UXN9Uu7eFWhBc9POJPuY91Qq1rSN3Uk+aOObfoiEpj7O9So6bqF3B0nOrUi1SlKOIuHmmTfRlfw1CvaXVVe7VPjhFrlyn+40NtcabYaPaXNBc9WlT5ZqCztjr95d1TUtS1nSLPULSKo1aUeWXKs5j03NpNTTPe26p2+ncPalcUqrT8aXNyQ3yn02NZb1dSoa3O0taLtrOtJzpyb3S8sFuMKbpWup1JxlXtZYqN9Untuzda1qdtX0yNS2TqXdDdqmui77k95Dy11jpFbTNcrwuarn4seam87JPrgivEdWPDmsSnazUnVxKMlu031RJ68L/XdBp3E6tShUguamoL4lH1+w0fE+nWlTRacoVoO5oyUsJ5cit/hM890Y06eo1L2rbRglG6k5YS+KLf7iZ8MaO+Hr2tC+lF0nJVIpSzmGMSwvrua/TVW1LSqdxplvF1bZtqrN8sm1+iSC70OtqGhrUqlWcry3UZ1OXq11aQ8Ci7vqWm63J2FCU41WpU5tfm8939papaXc1tQkqk+WVRO5pQxjE/R/swbK7r6db6TTrwqLxoNSik+aUk+uEYmo6pf6hplO702jCNxbLnjVktqsenQnwhlW+i2Eo17zMacatPxHTe0WujWPPJy+4uZ2Oq17ShB+HKb5JNdmdJ0fTI1KdapcV5TqWtSF05PbMZrfC8s5In7QKdvR1eM7SKlOG7cO6wVzicUatrOXvU6Feo/D7IQjRsfeLSoozTylj9LJZuZXF1QhdxbjGCw0l29TIq0KcKFK7yuVNcyfb1M1kJuIRhWk32fQ8dTlipQWzMm/pKrqdfleINuSXmYfNGm+Xy6EwVu4qRjGcdnBqaf0PqvRb737RrOuv+0owm/tSPlDmcoSWOp9K+zipKfA+lOcud+AlnzSNOP5VyTOn8jXYgvHNrGVtUeN1JMnKxybvCIzxlRi9Pqt/qpmk8s74riNwmqs/Rn07wXj+R+mY6eF+9nzTc8sbqTksxUt0u6PpXgpp8Haa108N4/3mafk+yMvx/fW/ABxOwAAAAAAAAAAAAAAAAAAAAAAAAAAA417bKUKnK5T5MUYteTak8I7KcW9t8sqMfKlTf8A5pGnD74z5fbXGa/yUP8ACRO/ZxJKtTWP02QO43hQf+qRNfZ1VcbyEM9ah6GftcnH7nfOlnH6GuuH+ZqZ/VNko5sov0NdXWac16M48vLqnh8z+0HlfGl1joow+14IzOTawunclftIp+DxdWf+lpxlj9hFItQhl/ec+Phq2/D86UbiaqLK5TeRU69xGdKWKecZxlpepGNImlePPSXXBKI89hTlOk/inHOeu3qWQXEoV8W9NKMo7ZT2m/My9Fu46VqPJVipc22/b1RjU6EJ0pV21CWPlff6F3h+VOprEVep+F3k+qGPlF8Ok2NKNonq8KkpJ7QWcyT+h7aRp67cwuK/5qtFuWZLEZPyNTVrXcdQoztWvdpJpTxlY82ZOp3lGVrTp2clTqJfnI9l6ouqz7jU6vvfuNSlKpb4ain0T7tGReXMdPtIx0+fPCKXM08Y9GRunqStLSLvFzVZfDFvZ0zWU767s7id3GpKrRUsrPyyfckTDUtVstP0KtdyUFqFVcsIrpJ9sHP7OhY1darVNUUq1JT5HV5vii8bNY7ZMbW9Qlr0nGnJ05c2eTOyx3NVLU7mrGNrVhHMdueP4sple/ZbF1HQ7q+nUk6t14tvSk4QqOOW4dub1N/qV5S1CDtrSpGjWSWUuj8sEC0bWZaDpkYZU3UX1UjbWLpShPU6b3X/AGb6t+aNNS9ld/KQ++x02192vXz1q0km5fNAu2Nq9JpPUVNum5uUZN5WH5oj+m6nT1i4qe9uXiQnh1Wt1jojLvdTuaF1TtoLxLZyxs/gk/Mfyfwy4xo8R3NatBqE1Pm5XssLsc24zz/KR0W3Kko/Cn1iT25VKFhUp6fPNR5lVi9nF+hzDVqtWetV6l5NSm0lFpdF2Rnn27JxY9WcrVKFCXNlbteXqeyUPC8RYVV9I+ZbjTlSlzzw4Pf0ZQ175J+FlLd8q6pFVkduJN1p4ffBbT8+pVOPLcT3yk+jKHiUvtIg7b7HU/yG5N5TrTxv0Onw+f7Tm/sktpU+HKdVvHiylLp13wdKorM1nobz4Uq3rn+bji/tOp1I3WjzlJeHOhONNeqlv+KO08TVI0NJnVllxhHmeF2OE+0nVaWsW+jzs5xqUKNKo5NP4oScsNSXboaYWzLcZ5SWaqINA9pyda3hVb+L5ZfVdwdsu45bNXVeHiK1sm+/qU4CFVT+o3H+z+Jbt1/No/Vlya/mFx/s/iUW/wDVY/VlP717/TW9S/r0/pH8Cuh/VYfVlOprF/P+7H8Cu3X80h9ZFcPcvn7Hlf8AztD6x/AuST642KK+2rw+sfwKnldycFeT4eBDqVYSlt5mjNRVkqFFTl80vkj+9mO/fK9NNc7iuiRdu14mpUqbXwYjFL0M7WL68052dHT8wpOnGTcYc3iTzun9OmDl5eTXd04Y61J5ayFWdOTVVN/iibpwp+zTSq+dqt/Wk1/aUZJGg1i3oRvc+GqeYRcoJ7Qk4pyj9jySCrU5/ZdYYS5KF9KnFY6dfv6jduO0bxt8d3nA9Tm1GnhbKS+1neLivz2MHhr4UcI4Nkqes0ouOHGouaKXqfQN9Si7FOKXQzz+WmHw1VlJKlWx5M+dvaA51OK67TeMH0PZp/nFj5l2OA+0KE6PFFVOO045TMc/EbTzUZs4eNe0VzfFKWCT2VvGjczhcS5YebfREStnKheQqZ3TykSqrQr1qMLqbbWyk/QoMq2uqNnWq28afiKWVHPRrzMakq1e8jaVZYjOSi12w2ZdVW9GnRuebMl8Mov8TH1K+nVqULu3pxjKLW/nh7MhLoWg6fZaZSrWN24wg208y6p9DMstXt6FOppVKL8R8y+NYi0+kkR+vRq3NvQ1Oo5NRmvEnnzW2V5GXd6tp1r7teU3z1VHkqJbpY6HR4ZeSNOtW16tbXVWPJKKptJYUsLq0brQrqw0mlUsriXPUozdOVPrlPo0QviK/vbq4o31ODop4i2l+8xJVnSuqGpOam38Mmn0fZtkdonyk+pcRX1G6/JttHkpSTUZrd8r7GBoFKhQvLmGo1G+V7c3dPoYeu6/Qdvb1aEI+8U/n5f3mpu+I5XsIVFCVKSaWYrsUynxVsU14e1630LWrqxqpe7ze0Vvu/I2dHiG7oahc2dOKjbVKbkm3luMnhI51DU7elKjd1IRU6M/iillteZudX4loX9vbahYUuWpQxGSksc0SZ2iL3rc2dktH1SpHUa1ONOEs0/FeZKLW2GZllql1QuVYW1L3h0W5wqVFhSpN7799zQalQq63cU9RlPNK3iuZvfd9mXq+s0dOt7evzZr0XhrzXbb0J8dkeW90Syv5cU+FqFT8xOm6MY5xmL3Sa74Zo+LtNttD1CNtPCg1LOejz0M/UOILrVYWl/pVHklQkuacv0kzTcfSld6ha1603KcIrxG2Vz1pM/lGKV7J+JZwjmMspcy6optbSrVlUt6821HZJ/sF3UpUXSuLeLlJbTS7FNxK4r1IXUnyQk1FpFFkZ1SlK3v5QT+XqzFmorE28t9jN1WcZ6hXinlJ7GvVOT2lsAqSSjmPQ+jvZa2+BNKz0VN/wDMz5wbUYNeSPpn2c27tuCNHhJfF7spP7d/3mnH5Vy8JpTgprDNBxlRcdMqt/qEjt18SI7x/de7aJXnhNxhsn0NL27qeezhl5l16iju3LZI+luCsfyN0zHTwsftZ80VacK1OjqFByp+Ko1HFv5c9fwPpfgvD4P01x6eG/8AmZfnsy4sbGXB77G/ABxusAAAAAAAAAAAAAAAAAAAAAAAAAAA4z7bYRcYt9fBjj/eZ2Y4r7bZLncWt1SptP8A2pGnF74z5fbXGqq/NUf8NfvJNwJW5NSks7xamtyNVv6Kh/hr95s+FbjwNdoxb2qfA/tPSym44sLrJ9N2VRV9Pi/NGHWTw15rBjcLXErrTIZ64x9GjNrx5ZPbfJxZeXZHzv7VbKVPiChcSTxODgn6pkBTbljt5nbPa9pLuNHlcwjmVGamsdUujOJL4dmc07Wxp8Mi0mqN3Brz6EntudVHOS5qb6p9yINOD5/t+hJrK/zYRil8MtpImDNuJK5cVbbJP5cdCmpWhGUKOeWSe811bPacPdqXj0n8b6ea+pVQowuX4k3ySxlZ/SAl9lqdXRNP5riPPGceknnP0MZ0I3TqahTn+ajvKDe6foaSGrVZ1PAuFzU0sLPb1R5eXk4RjG1qc1OOyf8AE03tVlVNSWpVpxrp82cc7XRGHe6lWtpe7w/ons0ujPPeaPuvKlyV5fM+0jXwqeHl3C5oLOEwLVw1CPiU5/nJ7tLsLOSk3OtPleNmu5bnSdWTqU9492uwoxVxWVOLUX069SlWjNsbmUbxwrPNJ9u2Deq7qVqtP3Ob8CnLZd0Ry8StGqEk+aXzZ7Gdp9SVjFXSk+Xs1/AnC7hlO6ZTvqLtY0oNUrpr+kXRrvkuWV9PS7KTvoeJzbQjL8UR6zcNSre8NxhOPxSUukvRGbG9d5XdvXhJ0opKLl1hHzNN/LPXw2dKnONOpqMa850YLL36MgVzUer6pVrTaU5S28iQcR38rCgrW0rcyns3F9V6kexGFBcm1Z/ov8TPL6Xn28rSlTat2m4Z3RRUpKjRdalJReHhp9PRl22a5Pz/AEXfyNNqldqbjGXwy7LuiiWqm34jzvlipHEW4vft6s83TzJmdodlLU9esrWKyp1VzL+yt2TJ8D6D4LsZadwxZUVs40I5+rWWS6yi6k4JrOepgWNDwbKnBJdNjc6ZRzV5n0SN/lRrOM6dWtpE7ai4qpNYXN0+04BxfpNLhit7h48q1xXoRqVMxwk5PLx6JJJH0Hr81Uu6VL1XQ+e+Pbhat7QNUcqk3GhJUKcJrDxFYaX25Lce99meWtd0dtU42yT7yb/cXNippLZdF2PDuxmppyXLqu3gXX+J6epZJQ9qLFhc79o/iW7Xe1j9WXai/mFz5Yj+JbtV/M4v1kZ/3r2/9Nb1P+vy/ux/AuW39Uh9ZFGqf1+X9yP4Fy1TdpHH60iMfK/J/TU3K/yxDy+H8Ctrc8uV/lmn/s/gVSTJw+VeT4UbHsVvsMHq2yaM1q9pOrGFSGeaKw/Uqt9aurfG7ynnKeHnzLmS3KEZbyim/Uyy49tZnNayizKVe+qOc88uXu+iJppsVceynULPmlKpaXirppbRTa6ftIuuepyxTy+iRMOAoq8tdc0qXSvb8y+u6/HBTLj1jdr48m7JPDU8OXbt9UhVnKUpOopt9/U+kaNaF5o1KpDHLKGVg+X7OcqNynL54vD+qPpHg6rC74UtXGWX4eH6Mz5MV8Mt+WLac1O8cW3j0OO+16wqUNRo3ShiO6yjs84OnedOjIJ7WrR19FlW5OblSk9jmy9reeXBOabkpLs8kv06+q3Nt7u9oyjj+BE4zUsxSfobrTa84UYuMVzw2ZRLdWVovzlK4ltusye68ihXNJUKlooKU+n08mU1qVedWnc1JPlqNKRlV6dva16FbblmsP0ZA2vDl/X1K3npld4pzh4bXNhOUej+4u6dZafKyuLC5nJXizvJ9+zXmRyrdztNRjc2iklNrDf63mZOowubmpTv6c5pz+eSePi8jWZbm6rZ3b2lxFb17OppuoUo1KrXKppd+zZGVbVa0qtKNTNPO0WyqV7bxqqq8uePiz2aMS7uq9W6c6a8NVMZS7+ot+yT6X6EqFK3nQqNyllp+Zrs1eWdPDS6MrnTdvVU5P5vxL9PUaVpcxqQjGpGWOeMlsylWi/pKpXdOdCsn4yezfkbXR9VttKhXtq1pCrKScH35jW3yt7q6p3ls1QUmlyRXQy72zoWU6FxUaaa3Wc7+ZTr1VuncX9MvNQuo1dPpPwKUk+ZPrLyMjQKMLq8qUL+uuaEpQmprePrk0te8nTuKd1b5pxeE35lVKlOOrK4jWTlVliU87LPmayqWJjpmvRs6tTTaFDxOZ+GnjZLdKRGbmjdajqlzTu6rk4/Clny6Gz1mvQ0mpb3lrNObp8s15vszQ3F1Xr1Y3cVyKeIvfr6kZ34pj9q7R21KhUtq+1SLcfPcx4V6txRq0Mcqit8l+dpC1uqd3Npwnt17mLrF1Ck5VbVY8SPLJ9slEovcyarylnOX18y0nPnz2KnNb53fqU8/NBruiRX4LlOMMZlUkopfV4Pq7RLdW2k2tCCwqVKMPuWD5v4L096xxZp8Ki/N0qqq1W/KO6+94Ppu1hy0oqHc04/G1cm3sVzbvoQj2lXEadjKE0pRk8NPoyeWq5KWX2Rx/2pagq1WNuptdW8Gkm7pS3UtQGvdqtTcI7J98Yz9F2R9LcENS4M0tr/AEWP2s+YrW2pRpzlvKSWzb6H01wH/wBStNWP0H/zM0/JmsJGP42uq6SMAHE7AAAAAAAAAAAAAAAAAAAAAAAAAAADjftnhCVaHOvhdGGWu3xSOyHGfbY1GOX3pU0v96Rpw++M+X21xesvzVD/AA/3sot6sre5p1ovDhJSTLtVLwaH+H+9mO0eprs8+Xu+geBNTUs0W9qiVWPqpL+OSZ3kMPmx1RxHgvWJU7Syr9HZ1PArNd4S3i39ux3WnKN3YxnHfbKOLkmq7cbuSohxJpsdQ0utSnHKlFxf0Z8wahZVNP1KvZVlidCbj9V2f3H1xXhzKUGtnszg3tX4fla3kNUpQ2/o6uP/ACy/cc2c1dtpfhzibbwu3mbDTZxlJUp1OWCfM8dzXpqMXn7xTbjLmTwQJbCNWdfng8wx19PUv3c4VoqlQjytLLXm/Q12m6moWknBpS6Si+5m0owlB3EW8x7d2/QkKjdKgoTXxyfzdOUuWebR+8Nc8X0z0ZRQn73WxXWGn8z7lFx4kLrlpZlT8l0f0EukK5wV/ceJDbu4p9DFu6niTVGXyx2T/iXqqdCj+YknJ7yXeJYi1KLnV+fs/MkW6qnbw5YTymt8dym1p4bqx2kuiLsuVc2cY9F+ws0YVK1wnQykn0ZFTGS4zr5lcc2z3keKdWlWjFNOPbyL9zzLFNYjLHz+ZiThVtoqU9+ZdymN7rWNxOpGdNQtFyuK+KL7v0Mz8p0ba1krje4ksKS6p+WDQW+Kea1KTbX7GVQXv9zzV2lLPV9DXbPS5SlONWVxWxKD3xLoeYjdSdSGUk94rseVpuM/BW9JPp2ZTNKhTTpTeZeXVFFi4uouPhTwuVbyRG7iaq3Dl2T2NheXC+TGJtbs1lfCeY//ALAonLLSf3nQvZTosrrVamoOP5uiuSGV1k+pz+jRncVIUacXKrUkoxiu7Z9I8C6DDQ9CoUGlzxWZt95PqXwnfaLUoilGKj5G6soKnbuo/wBpqrek69ZRXfubTUq0LOwcU8bY+pfwpfpBuJeJtP0K499vq3Kk2qcIxcpTkt9l5dNz551Gda9ua+pycpOvVlUm+8ZN5Ooe0/SpTt9P1RXMYVpVHQVKeMTXzZz6HOLqUbWwnQlNSq1X0Xq8uT/cb8eM6d/LLLL90kWqUnVoRqN79JfVHp5Rpyp2sIyWHJuX2dirHrg6sPDmz7ZWR4kEe4HfYsrtVUX8xuNuij+JTax5rWCj3cupVP8AqNz9I/iUWv8AVI4/WkU1+9e/0lvVF/lCW36EfwLtsv5nD+9Ip1HC1BtrK5I7PvsXbOKnaLOyUpFcfK/J/Ti3c/55pf7H4Fct/rkouv8APNPHnH8C5JYbz1JwV5PhbCKml9p4kas3jHY9GCAWyRIOCbx2XGFi+bEa7dGWe/Mtv2pEfSKoVJ0akK1JuNSnJTg12aexWxbGt/xXpz0ria6go8tKrLxqf0l2+/J1L2V6ovdKtlOe6xKKz2Inxha/l3hnT+IKCXNCkpVEv1ZdfukavgnV/wAn6xazqTapqWJ47o5rN46+nRj2y/y7ne04+I5Jd+pouIbCGq6HVpNKTSaJNXhC5sY1qeJKUeZNd0amjL4pU5L4ZLDyc9nw2lfKuqWc9Nvq1vJYdOT+1Hmm3cqFz8SzTmv29iee0/QZWepe/Klmm9m12OdKXMmorfJj47NPPdMKN7WvLd2ih9Nty7ZWSuKVSlcTSnhtSl2NJo+pVbeoksc6x18zb1o1ffoVpvEKjzutskCqFajUtZW1Onz1UtvRnlGtdXVvUt5Npx3cc9Wu6MuUbewvYVZNYqJMx72o/ffEtYOMajzGT7MmXR5YUraLtZTjP87FZfN3Zb9796t/CUF4i6PyZlXFnXtbmE6vxQqfF6NmHUlGhdOVHHP1TLbQtThcXFNc3xOPYpgqUqMubrjbHYrjVqe8Yn8HM98IuVbeFvcKMvkksp5IStUZzrU/AW3qupJtGo29/auleVOaqtvi6kWqS91ufzUsx6pr8C/SrVXcxqZcU2nJLuUyx2mXTfVqdnKhVt/mazGKj5o09lSubipVoZ5Ka6v1XTBuryFvZToXVVxUKkflj1T9TAuLlwu4V7enyU5/iMLYnJfs6VOtbVFdVPjSaXMUUbtXFrUtKNJbruujPKlnyXcLipNyp1d3v3K7h0tPvI1ozSp1I7Jb4JVWKFtVvbeca1TLjnlXqR7VLyU6tOiltS2eO5uNR1OVCo6tJckakdknvnzI1Or4qlJ/Nnf1CVPhqUst4TKZYpywgoTlHLeMMv2VnV1K+t7K3TdatNQj6ebJQ6n7G+HZVfetYrx+CbVOkn3S6v7ztlCkk4pGn4c0ulo2iW1nShiNKCj9XjqSCzjzfFjO5vjNTTO3bJrSVvY1JvZYPnfjLUPftdrNPMYywjtHHOtQ0zRamJJTccI+da1Z17ic5POWbcGO8tseXLWOmXQ/oqmPI+leBGnwbp+P1Zf8zPmqj/RVH6H0nwCmuDbFPr8X/Mx+X7Yr+N7qkoAOF2gAAAAAAAAAAAAAAAAAAAAAAAAAAHGfbbh04p9qUH/5mdmOLe2yWJYfTwaePrzyNOH3xny+2uOzSdGh/c/eY+NzJn/Q0H/Y/eWGu5608PO+W94SvYW+rO1rTjG2vYujOUv0X1jL78Hc+CNZda1lp9w/5xb/AATT6vHc+b16PD8zqvD2uSqULTXYteLS/MXsIvL26Tf1X7zn5sf7nRw5f2utXtHlm5LoyGcX6LDVtMrUpRzzRcX6E4tbilqVjCpCSllZTRr7mgsSUl9hx5Y/FdMr5I1DT6um39ayuYtSpvCb/SXZow3mMsLdHcfaDwQtTt3c20VG4ppuEvP0ZxCrQrWtxOjXhKFSDxKMlujHxdVp57rtGapSTbzF/N6m2jec1aHg55cL7DRuLluui/aXbW6lRqJJZ80ShLZVISoRp8qVTq35+oo1HaQcq8eZY2T7fQ1tvVhdNNSw0t89zJdx7xU8KpnlisR9CUL6oOpJ11PMO7X7yicFf1OSm1GWcJLue1W7WCp0pc0X83L3K4KlCm5w+Gq38nl9AMOvCpby93a2756oqhRq2KVeD+bpgyaHLP4rnKSfzPqUTU5XPNFJwwR5StpzuM1qjUWu2OpTTVStV5a/9H+CL1xGF0uS3Ti1tj1PI1PCpeBNrmb2k+31Gh5WhGFWPgNSgnjm8y9cSp+CoQxGs1v5Fvayiq0nzRfy56MsxoyvZeLBfCt3l4X2EUVUJxhH89usbLujBuLt0arcZKU2tl+qjy5u1mUc8zWyZrYxlOXMl0ZPkGm6jbe73LFaOJ58jKl0ySHhHhKvxJqMZ1ac42NN/FLpzv8AVX7xr4G69mXCdS8vIavdUmqcP6CMl1/tHcqVJU4Rpx6Ix9N06lp9pClTgopLCS7G0srZ1aqXbubSamlLWdptBU4urL7DS6zcu8vY0IPKT3N1qd3Cys3CD3xhJEH1/V1w9w3qGtT5fGpx5aSl3qy2iv3/AGCd6rXKfanr/wCVOJVptCf800xOkt9pVH87/cQ62tueHjSe2cYX7y/S0u8vKU72rKMYzn8VWrJR5pvfv3LFWjc6ZcONSLjJdU+kvRnThZOzPK7mpWU9zwv0qcbiMqlNpU1Bz+J9H5feWTrnhx+L3U4PUj3ASJFVRfzG5+kd/tKLRZs4/wB5lypFuyrxWMvlW/8AeJ7e8C8OcPxt7XU+Jq9OtUoqrywt1Lm5n+xGOV1k0k3x6c61T+vS/uR/AuWmfco/3pE74x9mctN0mrq9hfyunbwU7mjUSi40+0lj8CEWs4ytYPw4QWZLEVs/Urx5S3svyTXGtXX+eaf+x+Beklgs3GHq9H/YyT+ztOH9A4SsNa1XS1qtzqFSTpwlNxjTis7eX/v0LS6RnN6/wgb26b+oz8OPUlXF+labQstK1nS6VS2t9TpuorWW6p48n5EYjQqOHOoNx8zTG7m2WX7bqreDzBVy77hrtksqp7npVGLbzF7+eehS1h48iLFo6H7PtQhqGk3ugXbU1BOVOEn1py6pfR7/AGkX1HTq2g6zUtJ5WHzUpfrR7MwtG1SromsW+oUZNeHLFRJfNTfzL7jp/Fmi0+INHoahYRUqih4tGfL8U4NZSOfknTlv4rfG7n+Er9nmvR1TR1aVZJ1qS2y+qNvd0fBrvC2byvQ4fwhrVbQ9chOTcUtpwO8wrUtV0+FxSakpRymmc+eOq3xy3No3xLo1vrmk1aVSClLlwfNmt6ZV0TUqtrUi0ov4W+6PqdZhLdbLqjn3tA4PparbO6oQXiwWYvH7GYZ4/Ma434cJpValOvGrHsyW0r6rqdoqUMc8N9uqIxXo1KU50JwcasHiSaFpWuLSsq1Oo4yj1SfX0KJS+jZqvYSnWnHxIrKz1eC/K8hXsVTpUuerTeVJ9jRaZqSubvkqTxnfD7m9jOhp15JT+KMviwl1RAt4r6nYtScnybxS7Hv5Ot5aU6nOo1abzhvqUe+VqF3KnbLlhN/C2uiK6NnOlfKFebcZLOX0fmSMarCF3ZJUIc84dX6FNDSa13ZueW3DdJvojY0ri2068nTi1Uedku+S1SqXcLuVCC8OlPLSXk+w2NXaxo3NO4puD56L+Fr9J+RlUoVb61lSo0vDdP4spbvBmWdpGwvpUqkcRk8pvv8AaV1byFhqDjSalCTykuj9ALdrYO8sJKo+apjO/wCBVOvbT010sfnI/KkujRZbuffmovkp1XzYi+hTOnR0zUMza5Zxyl1IFuVS41Cz8GK5fD9N2UNUIaW6lzUXNHon1bKLjV4WNxN0tk+iXUjl1du5lKa2WemQF1WncV3Um0ovpFdkWXim9kW1zzRW8cu76BKnnk5Pyxudg9kvCSpUnrt5Tfi1VigpL5Yef2kL4H4Uq8S6rTnOk/cKUk6smtpY7H0dbWtK3toUacVGEI4SXZGmE33VyrKhhxjFLqbWlTVCg6jwlFZRr7G3nVqpvKgu5rOOOJKei6VOEZrxJLCRozcw9pHELvtRlawlmFN748yAwae5Xe3E7qvUrTk3Kby8lFPeODv4sOnFx8mXVkz6OPDqb/on0nwBPn4MsfTmT/3mfNlHanUx+qfSHs8/6l2f1n/zM5/y/bGv43uqVAA4HaAAAAAAAAAAAAAAAAAAAAAAAAAAAcW9ty+OHT+hh/zM7ScV9tb5bhZ6O3gv/OzTh/qRny+2uQT/AKvR/ufvLLWUXsfzah/c/eW2kexPDzPmrfRm74Y1paNqea0eezuF4VeHmn0l9j3NNg8RFkvarTLV27poWrT4f1FWNepz2VX+gqp7YfRE/qqFzRVSGHldjhXB2s0tVs1w9qNRKcV/M6snhv8A1efTdr7joegcQVLK4Wnah8LXwwm/0jgzw6b03/w7cM+qbjd16CmpRnHKaw0c1464Ao6tSd1b4pXUV8NTHzL9WXoder0Y1qaqUl9zNXWgt4zjs/Mwyx32rWV8lXdpc6fcTtbmjKlWhs4S/FeZYj59GfRHFXBVnrtu+akuaO8Jr5ov0ZxHiDhjUdCuZRrUpSoJ7VorZ/XyMrueVp38NNGpUhU5k8eWO5nUtQlGOJLL8zBlJNJBfm4+hI3dlf0+d888rOeV9zKXNc1ueGUvJdkRmPVyXUyaN9XoyXJNxxswJHWrxrxjR2jhdV+kVyqO0pOllPmW/f7iMu9r83Nz998Fc76tKPz746gSKjBU4ePB752XdFNKnC+rvnqxpy3bnLv6EdV/ccrUpvoY8qlSUnJyfKRf4G+udRp28uXCrcqwlL5YvzMGtrF3dQVN1HGnFYSW2TWyTnhJ/wDqM4WO419p2vxe+G9u5fhLHRbdTEpqo5xpwjKc28KMVltnQOF/Z9d6hyV9SjKnTe6orq/qWiGo4c4UueIrqMs+HaJ/FN9Z+kTvGh6Nb6RY06NKmo8scJItaZpVDTKMKVCEYxgsKKXQ3FO0r1ZpRf12NMZpW1kW9OdWoopbs3EvDsLZttc2CihSp2FDnqS+LG7NBqF9Uv7hwh/Rx6+voi2viK7Wqrr6nec36PNiKz1+pxfj/iihq+tysqNbmsrFunHCyqk180vJ+SJr7QeLJaRYVNEsJqN7c08VqkX8VCD7Lyk1+w4w7HMVGnNt9k13OjiwvnTDPPG9rWfq1vX1e10+lbuDjRhKPJKaim5PPMm9vR/Qu6ooU9HoUJ1FVq0aUKPideaSbbw/JLb7DUKV1at0vji08OOOjMhWl3e1FK4k1GMXJ568q8l2E45Mur7R31JbNRm6HpN5qtvVp2Vu61SlTnXnFPDUF1a8/oVWGm3mqyrRsaEqzo0pV6mNuWEerJN7PK9C3164hWr+7e9Wk7O3m3iCqSWyk+xutB4cveCKWr6prNzZwouynb06dOspSryl0xg2uVx7fwy1M71OaYWE+wSPUsRSCx3NmT2p/Uq7wnjkeH3xJM6PqOr8F8ZVbHVdQvbvT69GnGFe1jR5lU5f0VL9mfI5zU/qVxl4XwpvyXNuyd6jwlwXo0qNpPie6dSUVOUqdONWMc4zlrp9O2THOfujbD+mj/GfFl3qWvX7sqta1sLqhSozt+fKnCC+FM0Np/U8L9Zm89oenaXp3FUaOlVIStJ2tKbcKniJNrff7ngj9nXhGLoVMKLlmM/J+TI49LcktxLucYanCbfwx5G2vodM4Oqarqmhfk+poFrq+k0Kn5mdzVVOMG92k316kBt9HuNXvqVjawi7qq8U1Oain33b2OtXnA+rV/Z/omhW93aO6sXJ1JKq1Gom30fpnuiOSzHtfkwvXJZ8Itx09Uqarp1tqVtZ2djCLja29rVjUjTjtnLXfp1INxBrd/a63Uo28lQoW0uSlQUVyyXm1+lk3OvcN6nw3c0qepqkqtVOUVTrKpjHn5GBTvZU60KsqVKrVgsQnUgpOPljJTk4bnhOiq48kwztyjI1O1h+UoUaEI03VUPglLChKSTab7JNm/Xsx4gcXN1NOjBJSc3crlw+m/QiNSrKtUlKbcpPdt9yc8JRpa1wVq3DavqNve1LiNegq8+WMkks7m9mWOE1fDPDVt3Gi1vgvV+H7FXt8rZ0XU8NOjWU98bdCPHQ9ctqHDvs7p6Dd6hbXWoVrt3EY21TnjCPfLOfE8dtl2ZyY3spOh+znXoP/IF03zScp2s5Sbz50/TzX2nPWtyqE50akKtKcoVINSjKLw4tdGicsJZqmOert0LjLhmVtXlq1hCWE+atTiun9pfvNr7P+MIUKq066mvDk8wbfRmw4V4hpcUaS+dRjfUY8txTXftzJfqsifE/CtXTq89R0uDVGL5p0o9ab81/Z/A47LP211S/Mdpu6MJQ8SGHlZeDWzpxlBxksprdMi3BXGi1GCtL2aVSMUk33ZNKtLK54LMfQyyx02lcn484GV3GV5YwUaq6NLr6M45Vo17W5nRr05U5rZxkuh9X1IqbUJJcjeHkgnGPANtrNN1reHJVXSS6oyyw13i8vxXCIwVOqnzPm7NdmZs9Tr06sY1oc+H36lWqaDf6RcSjc0p8kXtUUXhmJUrxlBYSUura8zNKTz1a2qWtCpTS8WPXO2xkValbU7ZVHUx4a/R7Ihk5OtFOK39Oxdo3NzbRzTrSS7pPqBMK9KlStKVeLXNGWH6o9udTVWjTnShzTp/M10wRNarX5FHmzjzL1PUa8I4go8rWGmglJbl1tRt415TacMJpdke3XulKwpzjNSqweUvMiq1K6hS5VWlyYxj0MWtd1asfmeAJHea5CrQgk405Q6Y6v0NRc6tO5Uaahsn876mCoOsk3ttuZFOgkun3hCy6U6knJtvL6s88Lw930MpYjLlZbm5Vaqo0oSqVJPEYxWWyRYUvJbPsSTg7gu74qvlKSlSsIy+Opj5vREr4O9llW9cLzWoOFNJONt5v+0/3HYbHTLfTaEKNvSjCEVhKKwkWxxt8ot0o0bRLTRrKna2tKNOnBJJJG6oUFUqKKRYtretXlhLEc9WberVttKtHVqSSwsts18Tsosahe0NF06dWpJRwm22fPHGHElTXNTm1N+FF/Cjece8bVNXuJ2ltP8xF7tPqc+lvLJ08HF/dXPzcmv2wl8u5VRe5S94sUnh5OxzRsqePBqv+zufR3s6lzcFWW3RyX7T5xoJeDVWesT6N9nDcuCrNvGW5Pb6nF+X7I6PxfdUsAB57uAAAAAAAAAAAAAAAAAAAAAAAAAAAOJ+25r3qmu6t4P6/FI7YcS9ty/nUXj/5eC/80jXh/qRTk9tcjf8AVqH9z95beSt/1ah/d/ebm1tKUNNhVUYyq1MvmksqKT6JHqZckwx6q8yY3LPpjRdEePrsbvUbSjLTKN7ThGnU8SVGrCPytpJqSXbKe6NK+pbjzmeO4jKXG3GvIycZKUW1JPKa7M6jw/rdtxhb07K+l4esUYPlnHZXCXdf2jlzK6NWpb1oVqNSVOrBqUZweHF+aZHJxzOaq2HJca7xo/EFzpdWNpqCbh0jVf7yXudC9pqdOSefU5Rw9xbZ8SU6em6y4UtRfw0672hWfr5S/E3VOWocPXHwOU6Cfyy7fQ4M8LjdZO3HOZd4mVWg6fbY1d9pFte05RqQW6xujK0ziG01KKg5ctRdYy2Zn1KEZfFTllFLF5XHeIfZRbXVSdexk7ao9/hWYt/Q53qfB2t6VUcalq69OP6dHfP1XU+npU3HZp4MOvYUK6fPTTz5IyvH9L9X2+TqilTq8ji4TzvGSw0etx5Vg+kNS4I0rUt61rSm/Nx3+8jl37JNJqPNKlOm/wCxNrBWzKJ3HEk+WLb+1ntL5nJfcdYqex6hJ/Bc3C9Mplr/AKHlHZXtdryaQ7/R2cqqSVSbXruJy5YpNpZ2R1619kFmp5r1Lif+3gkVj7MtEtKim7OnKS7z+L8Rq/R2cOstHvr1YsbatXecSSjhfY+hKtF9mOp6hONS/n7tD9SKzP7+h2yho1naxUI0o47LGy+hnQUY7QSRaYX5RtFtA4C0zSFGcLaHiY3m95v7STxoworkpxwZNOM6j5UvtM6jZwh8VTCWOrNJjFbkw7KwnWqp4eF+w3cpULCjltc34mBc6tRtYclHDfbHY1dSde9qZqN8r6Jdy2t+FbftVeXtXUJtRk1TTIzxbxRQ4TsY0qSjV1OrH8zRbz4afScv3LuUcV8a2fDNOdpaclxqrW0F8lB/rSfn6fecYurmve3VW5uasqtao+ac5Pds6OLh33vhz8nLrtFNxWq3NepcVqkqlWpJynOTy5N9WymlnxqeHh88cPyeSkuUFzVqSSy3OKS+069ajm2uXcpu+uHUlzVPFlzy83l5YpVY06Ndb89SKivpnLPLpYu665lL85LddHuWhj4hfKS8FaPaa3eanb3kXJUtPq1qS5sYqLpJfQcFaTba3dalC+pTuKdvp1WvCCk8qa6NG24P4d4p0+rba9psbDwa1NrlrXUF4tN9U12/cZnEl/ecMadVpUOFLTRampRUHeW1fxU13gn2bMc8v3WT5a449pa5rHeKZ6jN02zp3VeXiz8OhSg6lWWM4ill7FuxuLLWpXVO1o1LepRpurCM2n4kI9enSXf7y2fNjhlMazxwyylsnhYqf1G4+kev94kHFPCc+ELm3tXcu6o3FJVqdfk5ct9Y7bbM1lDSb3UdJ1Wta0HUpWlBVbiWUlCGf2kv/wCke01LQrK2ueF7G4tbWCpKFSrJxi1HCce62Iyt6/2r46vF3QDVoP31uK2VODfpsYDRueKK9tda5KtZ2ULKhKlDloQk5KO2+73NRghrPEZVpddKVaWEtoTfb0ZLNZ0ajQ4K4dv7eVWnd3cqqrVfFe7T2WM7bEQ07TbzWNQpafp9B17utlU6SaXNhZe726E50biZ6dpVPQtY0m31K0pVE4Uqz5ZUJ/pbrruLu9orlJjepRq2jWdp7POHNQ8CpHUb1TnXrTk5eJh7Zz6YwRHoyacZ6xq+u0dNv61jCx0OpCpGwowmpbxaUpS8m+3oQ17FuHdl2z5u2SkmXDFlpNjwtqHE2qWKv5Uq6taFtUeKabW8pEPjFyklFOUm8KMVlt+SR0nhq11zRFHhq60TTrt6glfRo3lfCpxSw+ZLo/Qty39ukcflF9a4h0rU9OjbWPDllp1RT53Woybk/TfsRwn/ABvZVLHSqHicMaZY+LPm9+sarqJv9RvoiA4y9hxWWdkcksvd5g9lHlx9MnuMHqTm+qz6s0Ui/puo3WkX9G+sqjp1qbz6SXeLXdHa9C1yy4l05XNq1TrwWK1Bvem/3x9Thf0M3StTvNG1CF9Y1fDrQ+1SXdNd0ZcnHM41w5Ol0bWeEp0biV/o8eWtnmnbrZS9YeT9Db8M8bKp/Mb+Lp14bNS2w/VF7h3ifT+KLVRji3vYr85bSlv9Yvuj3WuFLXVY+JUUqdyl8NentP7fM4spce1deNl8JS40a8VOnNSyuxT4bjF+fmc4s7/V+G7tUbzxK1p2qxWVj9xObHiCxvqKlTqR36YZTX00lVXmg2eo6fONelHM8527HI9f9lkY1J1LBuHfC3T+w7XTuISp4Usr0MWSi6mGurKZYSplfMF9oGq6bUlGraTlBfpQWUaxNqThKLhl9H1X2H1NX0q2ryzOlFt98Ef1DgDSL7LnbU3Lzcd8/Up0ZTwt1RwBUadOO27ks5f4GNJy5nFHZLj2PWlaslbzqU2+nLLZGvr+x2tTqfm72pj1iiur9J3HLIxaTjJ9T2LgvhSXTY6gvY3Xk8yv6uPLlRsLT2L20d691Xk/RpE6v0bn25JHEUsPcvUo17qShbUqlWb7U4t5O6af7J9CtpKVS38WS6Oo3Illhw1punLloWtOCX6sUskzDKo6o4Xons213WJxlcx9zoPduSzPH0Ot8Nez3SNAjGdKgp18b1anxSb+pL6dCMViETLpWzk90XmEnlW5bY9OlGC5YR+4zKFi6jTktjKhbwpxy2ljua3VeIrXTLWdTxIxUV8zexb/AAqz7u5ttMtZSnKMcI4jxxxzV1GrO0taj8NbNruYHFvHV1rFSdG2nKFDOG87yIVltvLy35nTxcHzkw5eaTtiOTlNt9WeS6nmN9j3pg7Nacm3r+U8hhvBU18Ih83QEbChvSqf3T6I9mNTxOCLV46Tmv2nzxQ3ozz+qfQnst24Ht0+1Wf4nF+X7Y6vxfdU0AB57uAAAAAAAAAAAAAAAAAAAAAAAAAAAOLe2p811CPRRt4tv/akdpOI+22UoXLf6MqFNL680jXh/qRnye2uRv8Aq1D+7+8zLTUo0qao1k5Uk+qeJLzwzBk8WtBL9T95TQjcV5+Ha0qlSctuWlTcm/2HrXHHLHWTz8cb1bjPvNQjX5aVGDhQg24xby8vq36mFjcorUbi2qKNzQrUZN4Sq03DL9Mo9jLJbDHGY6xVzxu91616AyLSnSrXlClXq+DRnUjGpUSzyRb3eDo0eC+AXUVGPFc6lWbUYYqxWX9OXuMs5j8K44XLw5gie8M+0SdrCFhryndWiXLC4SzUpr1/WX7TeXvs64Q0pxo6lrlzbVqkW6aq1Yx79cY3wQ3i3ReHdJhavQtaeoTm5KtTeJciXR5SS+wy68OTtpp05Yd3S6mlWuo20L/SbinUpSWY1KUv/ePtLFHWdX0mahcQlVhHbPc5JpOualod14+nXdSjJ/MlvGfpKPRnSNH9pOmajBUNdt1aVnt49OPNTf1XWP7TDP8AHyx74N8OeXtUwsuLLG6io1JclTupbYNnC4tqyzCcd/IjlXQdP1Smq9jXpVqb35qUlKOPs6GvnoN/bP8Am1xUiuyTyjn7zzG/VE1dKL3Uk16Ft0ntsQqd7r9nmLiqqXpy5LlPijUIRxVsqq+m47J2mPK0UNPJFYcWVc/Ha1l/sldTivf+gqN/3RqHdKFHO5TJ8r6bkbpcTVa0cwtqr83jBT+VtRrSShbcuenMxqI2krXP1eF6F2MbelHmnNLHbJHoQ1O6WG+TbpFYMqhpNXH56q39pOkXJs5a1b0JctKPM/PBZqXd1fSzuoeb7Fasbe1oyr1eSnTisyqVJKMUvqyI637S9H06MqWlxeoV3F8s18NKEu2e8vsLY4XLtFMs5O6VypUrW3qXNerTp04RblVrPlgsHO+JfabLw3ZcPtRzHlqXvK03/hp7x+rIbrnEurcS13Vv67nCmsqlBctOC81E1HK3TjPHwyWYvzOrDhk9znz5Mtbnh5KUpzlObcpybcpN5bfdspC2Z6zp0w28wVxTyml0PMHudsEIeSeWGipQzzJvDUHL7ihVaUE5VZqKj2T3l6IjciZLbqJRpvAvEOq2FO9to2qtqkcwlUvIR2Xms7EjnGnwlwLeaZr13Q1G5vX/ADbT6dVVI27/AF3JdPPb+Jy6pc3lSPIl4NKXy04Zy3+LMVTuKUsNyjJdYy/gc2XJMr029nXjw2Tc8trb1528m088y5ZZ7p9Uyq09006lW9zoShWrR5J1JTziHXlXkY1GpGvRdSKw4vE4+XqvQrhFzmorH1fZd2a5YYZ2ZWOb92O8XQPZ3qen6NpfEd3fzpyxaRqK2m8eNFNrHrl7GHLjHh6tGNaHAunU5NP4ZTeN+jwkkQCvXp3F/Ga/ooOMcvyRsaiTcpeJFvOOVJ4fqn0MrcLnvKt7jnjhMcYcT3NC81p1raypWVKVKGKFJtxTxu99zUr4ZbYeO/VGbq7/AJ6n1XJFSx9Ohg1JKPwckYyTfxKWc+hK08TaXezGpRpe0jSJ1J+HFc/xSkkubkeFl+ZOF7PpTeu1LudnWvJVIysKkblfDmWXzLO2V5nFo80njPqSG1pVJWtvdeL+b5HJJ55p8jw8LvuRdebdGUtnabT3jqzq6JwZw3olzXt6te38VydJ9fLbqlvg5q9zHp3kVeVqteU5xnlRkpZxnu8mTLq+/qu5pw615Zc8vVGRptenaarZ3NVS8OjXhUnydcKSbwdXr6fqF1xTf8RaNqmj3NlqVvKjGV3ccrhGUd0l1ysHHqtaFpRVWa5qk/6OD/Fnun1a+oVqlBvnrvEowWywu2eiI5LjvvdJ48cpjvToerW1Lhz2cPRL2/t7m+ubz3iFG3qc8aUfV+pzurLki5JFu6upxvJyhnw47OnNYaa6prsX041KcZpZhLz7ehbjsu9XyryY2atnZ5a1fFjNNL4e6EkstFScYQ5YRUV6Ip9WayMcrLluTUEi5Fpw5XDmedmvwHhqEOetONOD6OXf6IsVL+jRhJ2/NKq9lNrCivT1Iyyi+GGV8LtS+lpVaFS3m4XsHzRnF/0T9PU6dw17Tlc21G24goeHXfw+80ltLyco9vsOUWlpKUlVqxcpy+WP72X7u7VsnQoyUqstpzX6PojHLGZTeTaXV6MP/NfR/udG4t+dOFSnUXwuLUlJfUiuo8LQjWnXsXK3l503s/sOX8N8Sazw1Fq0u5eHN5lb1Pip/THb7Dpej+0rSNQcKWoUpWFeXWT+Kln69UYZcGXmNJy471tbp6pqGl0+W4pynFfpRWzNrp3EVne7OcYtdU+qN1O0stWtcwnSr0ZYanSln8DU3XCNpVy6a5JY27GNl+W0ybmlO3qrMaiz23L0KCk3hpkOloOp6e+e3rzcV2zzfsLsLrWbRPMOdLfOdyOy20whbShNTTWUy74bl2IZb8aVITcLi3nFp756GyocY208rEm11SQ7CRxp+aKo0ZN7I0q4rtn0hN/7LK6fFtLmSVCrLH9gDdxoS77F+nbJ4yaKXEVapLFK2ny9m9jz33VKyc0o0qa6yfRL6koSXFChvOUVjzZgXOu0aTcbeDqzXZdF9pBdV4r0nT05XF+72sn/AEVB7ff0IFrPHWoajmjbYtbfLxGns2vV9zTHhzyZZcuGP8uh8Scf0bGEoOqq1Z/9lTltH6s5fqGpa1xLVnUhRuK9KL3jSg3GHfGxo5VJTm5SbbfmdU9nlzV0/gDVb2klKdOtOcYtZSaUUdHpzix6vNYepeS9PiOey4d1yMU3o97jOF+Ze7MO5069sZRV3Z17fmWY+LBxyibS9q2uxnL8xaPyzT6ftJBoetWntG06vpOq28ad7SXiRqQ6Ye3MvJ+aLXLPGbs7KzHC9pXIWimVRKOMLrnJl6na+4X1e1zzeHNxz54Zrm8tt9EazVm1Jjd6XfFXQu01nfszZ2fCeu3EYzjpdxGMlmKlBqTXnjr95VX4d1a0pSr1bGsqcXiUlF4i/UpeXDxtt6VWaWFTnvtyn0J7LGnwRRx2qz/cfPVKXwVE11WGj6E9laxwRR/xZv8AA5fy/bGn401lU2AB57tAAAAAAAAAAAAAAAAAAAAAAAAAAAOKe27Cqp438CH/ADSO1nE/bdLFZRxu6FNf+eRpxe+KcntqL+z/ANn9TivwL27bhp1N8uO9Vp7r6LKR2qlwJptGhGjb17q0pJY5LSapJ+TeFnJovY4ovgu2i1/R1KnL9r/9WdHL/kZ3LOz6V4sZMdz5QvVuH52WmVoXFepqmlcn5+jdwVWpCK6y6fEl1aWJeTzs+F8b8LU+G9UpyspOWn3MVOk+fn5G1nlUv0otYafk/Q+qDkHH2l2i4K1mi6Szps2raTe8I+JCUYr0SqSivTBb8fkuOSOXCZYuJp5LlBS94pcnzeJHH1ysFlF6g37xScd5eJHC9crB67zL5dE9sbi9V0dSX5z3WfM8f2l+/JzY6X7Y5qWpaNFxxUVtNy385Lb78nNe5j+P7P8Af/tpze94D1pHhsyZNhqN7pddV7G6q29RfpU5Yz9fMmOme1TWbZKF/QoX8P1pLkn96/gQXAK5YY5eYtjnlj4dhs/adw9dJK8t7u0lu23FVIp+Sxube34h4Vvqeaeq2ay0sVXyP7mcJlh8uOqis58ynHoZX8fGtJz5PoenR0i4eKVzZ1HjdRrx2X3la0zTPn5rbCXVVo/xPnVJLpt9D3L6ZePqU/Sz7W/Ufw+ilDSaSk/ebKKjnLdaPb7TGr8Q8NWKbravYxce1OXM/uR8+4Xke7LoiZ+NPtF579O0XntN4btcqj71eSWf6OHKn9rItqHtY1WtKUdOs7azp5fLKa8Sa+17fsOfhbl5wYRW82VZupazqWr15VdQva1xOTy1OWy+i6Iwds7rY9z9x4zWSRlbu91LjNvEZuKfXHcvLEKapxk5RTb37FvcZHT8rXPK49J+kHsASq9C6Hh7tyrC37vPUhDP06rQp3cre7pQlCrFLnl1i+uz8mY14raFzK5jTy1WcIye8V3Tx3YhThc1qFJScakk4N429BOnOpp6bxinUST/ALS6HPzdpt08HuV0bpXNvQ8GrG3u3NQU23+ls8vqvUq4npSWvxtKsIQlQoU4TlTlzQm1Hdxl+l/6GdoWpWWk6jp99qFOpVp0qjlUhSScqmU8wx6trJstbvdG12djR0nTKtnVg6kriFanyqTbXK0/Lqji8WR1/dQmhN09RhSj8cavzRSyzOjQ8a2qYm1Lo1HsvUrtZypcQQg6cGpRkk1FJp4e6Z7d3U46JXcOaM5TVOTcs9ep04W9Dnz/AKka+3jaqhVhPLaa5JLq/M2FW3ar2ttUpXNH/TKpHCpS749MY64FjbWb05zuk0obycXiTWOiZJa/H+k6zbVbeGkT0+4l4dJSpyVTxacduWTe7eF1OPOV1Y2IPe0XRm8SbpqfwvzT6FyldysaThQp0K3iptTlSzJem/QyNbt5UZ0pSbqZbaU+uOyZaqXSo06bhClJyjnZv4X5fU6MJ1YarG3WXZ46brTpeLJyq1Yuc5Pu+yNjp9G6lYUp07fUFTlOpRoVKdOUqbf6ayu++6MTSatOF1TubuCrU4ycp05PCkvLzJhw17QdL4d0qGnTo3c4K4q1ZeHKPI1LHLjO+2DHl3LqNMO6A31NxrVKbhyShs0uzRXZuUreCbe0uXfsbPUoxu7OreQqqr4kmlLySMenRg7S0jRaTqRy0/0X3On8e92H5HtYd7y1dSfhNSUYqKaeUn0NlodvqVve1LbT6NatXlDxZwowU24x779lkq/JtGVeha02vearbS6ZaT/9o2Oh8RWPDmoVbm5taldyt/BdKnUUGstb79c46GPN2ta8d3J2aPWIVZT8S4o3FK6k3KUa0HFyT6yWexi2NRqtUhlyg4rfy8iZarq+l8TapcXdN1KdOhbxiqdTrCCXT7zQ3NtGhBKn8sYxUsrDbaz/AANPx/KnPdY2aW5U3CKls4vunkroUo1Ki5/kW8votyyknTcpZyujRVSq8ql8OW4uJ27unFJNxYp056rf7vlprq84UV+7YyYWlnKvONGnJzpfF8SayvNJ9exi6dXhRlUpzeOddX08sGfaWsaFV1fHlLOU5TwlHPV+reEYd9zTfky8zf8AhYvbr3XmoU3+ekvjmv0c9kY1tbeH+cqL4+y8iqpNXOsTqpYipZ+xbIyH9TXCdV3VM70YzGPAEMmrFk2WpXum1lVsrutb1POnJol2n+1HW7Vct3ChewS/Thyy+9EHPStwxy8xbHPKeHW7T2raXUUVd6dc0ZY3dOSks/Q21Dj3ha5SbvZU29sVaLOHZ+89Rnfx8Gk58nd3rvCV0nGWoWUsrfmWEYtnc8I2letNajYKU5bcsniKRxFY5lnp3we5x6lP0uG9rfqMvp3CtxVwhb5fv0ajS6U6beTVXPtJ4et8q2sbiu+zliKb/E5JueItPx8Ii8+Tod57VruWVY6bbUPKU1ztfuInqPFGsarUlK6vq0lJ/IpYivs6GoDTXY0x48cfEUueV81Xz9crLfd9ilM86hFtKGDqPAnwezXW545051Mxa6bJbHL+nY6x7NKtG04J1K6uM1LeNecqlJLOySyvXJlz+yteH3uU1Zw5m+ZYz5k/9kdndy125v40X7n4PheI1tKfMniPnjDyb2y4n4Hvr+NCWmUbepUly+JWoR5M9EvQyOOtUueG9Fp2elWnu1vVTi6tNJJf2Ul0M8+TKzo1ra+OEn7t+HLuKXTqcQ3zp55HWlh/aSb2Y8LR1LU3qtzBu3spJxSinz1H8qWe+SBVKtSpVcm22+p3b2SukuH7ePKk53PNLP6TUZYf3jntw4tRbhkyz26ZQto0qfxKLm/mx0/9ftMS80GyuszhTVCs1/SUljP1XSX2m0B5L0HD+OeCqdlTuL+1pxpypNKso/LJS6SX4NE49lE1Pgimk9415xa8nhGNxhcU7u11yk2pRoUuT6SxB4/aX/ZNj+RSwl/WZ5x32ib5ZW8clZSSZ7idAAwagAAAAAAAAAAAAAAAAAAAAAAAAAAHEvbZj3xdc+7w69PmkdtOJe2bNxrMLSCzP3eD26/NI04rrOKcntrI9l+qqnwxZStZKpW0+VVXtun8cqM2mpxXfDX/ALydet7qhd01UoVYzi1nZnytp1DXdJuKF5ptO4pV6KfLVp7P/wDRJHxPrtypTudBjVq8vLKdOTot/Yun2GvNx45ZXLHKd2fHnZNZR3jW9f0/QLN172suZ7U6MN6lWXaMY9W2cd9o2uztuFo6Vc4hq2rVld3VFPLoUs80YvybfKseUTQ0eKdbtq7qWHD9CnfqOFc14urUg/OOdk+hFruy1q5uqt1e2tzWrVZc1SrUlzSk/NstwceMu8rEcuds1jGvSLtHKrU+Xrzxx9cmVU0jU6cVJWFWcH+lHoFpt+qfiRtKjaecJPKZ6Hr8c+XD6fJ9J77Yp82o6LCUcVFaylJ585LbH1TOa7m41W94i1yrRqalRu7mpRh4dNyivhj5bGC9O1OMlzaZcxz3ccIpxZ4Y463Fs8c8st6Y2NvU8aZsHo2r7P8AJldrzXQp/JOqNNrTqrx5M09bj+1PSz+mCj3lyzLjpepOTg7GcZ/qye4lp2pQwp6dUguzb6kevx/Z6XJ9MNjG3TKRmS0rVEk/ydVkn3iVLSdS5OZ2cvotx6/HPk9Lk+mDhhGTHTtTk0lptZ5e2xclpGrQaU9Mq00+jntketx/Z6Wf0wsBprqbH8ha1s/yXUw+/Mg9C1bkco2PNjqlNZX2D1uP7R6XJ9NceYNlHQ9UllO1hGSXyuqsnn5F1VbysuVdm55z9w9bj+0+lyfTX436HmDYS0XVo5zp75V+k5rAlo2qRgp+480fSa2+o9fj+z0uT6YGNjw2EdH1Wpl09Ok3n5VLcQ0bVnLlemVFJvpnoPWw+z0s/pr8DdPO6M9aNqzm4rTp5XX4kXHoGs4z+TpNf3kPWw+z0s/preR4POiNrHQ9SksO2xUb+TJ6+H9X3TsvhT+bm2ZHr8f2n0uT6YFpyq8oOUFKPOsxfc8u5q2s4Yb2qNxT6vfqZ8dD1ejWjJ2Li4yTTctm/QuVdD1G5k1c6ZJx81UUf2mefLhlPK/Hhnjd6RvUpOrThOM5R8OP5vlWM+ufMzdBurm41bxnWrVlb0X41Wc+ZRi9l19cGYuGNVjGWLOpKMltF77djyHDOr+G6dKzlGL6xgks/Vo5PS/duZR1ep+3WmNB+Pqju6LxTo/Amk8ye/QVpTr6VXtpLHhfGs+edzOo6Jq1tbqnHTqqSzzTfdsyIaDqMacJx02tOTTVSNRpR38t8vY6ccsMcdbc+UzuW5Ebq1fGsIw6w2U15NdzB0/4buk44k3PpvhEsjwjqe86NHw8vam5ZaRVQ4Z1a2k50rWEVL9KGFn7Tlz45ctyujHksmrGv1iaqR5ZKPPlc+Jbp4wv/U1EoY2TyuzJPHhTVFKLlaPncuZScovP1PZcJ39KacrXmT6ZmsfYdGFxxmtsM7lbvSP0KTlayjGScpPaCe7Rqa2KV1OE0sx+Fr1JuuF7+lGcoW7jKaceXmSaLUOF9Sk1N04c66Sly/iY8vHM8tyxrx8lxmrGDXuaktEt41+TxJx+GEEo8seywuhbhShQjQhN7xjzTwu/XBtY8Kawq6ru1lVw87STyXpcPazzSU9PXxLduaWPU24rjx/LLl6s/EaOtVcNUV1F4ShGXNn5fL9prNVjUnqHiqa8ScnN42Sfo/LyJhW4U1OVF0vcacm+k/EWfXBiPhTVaEVGpQqQx3k44+zcz5cMc7uVrx55YzvGBp85OlVua7lyVIx5ufZzw89fV4LlK5qOwu5VpRnKvUUotrz64MifDOp1JpSoVZY3xzL7zIlomrKjGH5OXhQSWzT/APbLcXRh5qvLcspqRq6lrKFFSjLL6uJXaWzqy5pfKunqbP8AJeqcq5bOMUuzmlj67ldvpGrU44hY5z0xJNP7Tb18fth6WX01l/p9FUIuniNSTyzXRsZt4lVSj6JskdXRNXnNuVmvXM1t9S3HQdWlJJWdPD6PxVv+0Tk4/tbXLPEainRhSi1FP1b7leDcy4b1ZJNW9Jr/ABEsHsuGtVUeZUKb9OZYX25Lzn458s7xclu7Gkx5DDNxT0HU2pZtqW2281t+09XDup8zUqNGCXV+ImT+o4/s9HP6afcY9DbVNEvqcorlt3nzqJfsyevQNVfwxtqUmuzqIfqOP7PR5PpqMeYeWbWeh6lBZnRoRj5yqJL8T2GgapOSSt7fz/pkx6/H9no8n01OGMPqbZ6DqqbXu1v9fGj/ABLMtLvIcy5LfK6rxFt+0fqOP7PR5Ppr8DDZuKeh30o80oW8V1+Kaw/2lP5FveXm/mfLnfFZbftH6jj+z0OT6andbHm+N0bGGm3M6vJF2cm+mKy3+hXPSLyDacbX7aqX7yP1HH9p9Dk+mrSa3KsMz3pt1F8svdFJ9FKtFZ+m5XT0u8q/JC1e+P6ZfxH6jj+z0OT6a3HkTbhTiTT9J4O1nTbipON1cNypJR+GWUljP2Gi/k/qT6ws0sZ/p47Fj8m3fNy/zGXbavH+JXLm48pq1OPFyY3cjXT3cvVk+4X43t5abPROJ4yuLLk5adfl5pRXaL/c/vIwtBv5YWLRSfSLrLc9qaFe0IKdWdjTjnGZVkiMubiymqnHj5cbuNVfRt43lX3bm8HmfJnrjtklXBPEMbWnU0urdu0nOaq2111VOaeUmvLP4vzNKtHuqkkozs3npipnJ7Hh6/nJqEbVyS6KZGXLxZY9Nq+GHJjd6fQlnx3aUKcaWv05addJLM+Vyo1P7UZLOE/J4f1MqnxrpN7W930urO9rP/RU3yp/VpZ+w4Tp9xxNpbSo3NNKCxy1JqaS8sPJmz4o4mnSdurm0tlVWH4SjTcvq0s/tPPvHjvtk7Ou68JPxzqltp9pd2VKpGpe3TU7lxaap43Ucrq87v7iV+yLfgaDwlm4n079Di1fTtQTm7irQy1vmaOyex6SfBtampqSpXtSGV/di/3l+TomExxu6px9VztsdBABztwAAAAAAAAAAAAAAAAAAAAAAAAAADWXvD2j6jd+93um2txccih4lSmpS5VlpZ+1mzAGn/kpoHK4/kiz5X1XhIqlwzoc4qMtLtXFdE6aNsAjTUS4Y0KcWpaTZtPqvCQhwtoNODhDSLOMX2VJG3A2aab+SmgZTej2bx0zSTX3HtThXQKsuaej2cn5ukjcAbqdNS+GNCax+SbT7KS3KP5KaBv/AJItPtpo3IG6jTTR4U0CGeXSLRfSmjyfCXD1SPLPR7NrydJG6A3U6jTR4T4fjstHs1n/AFSH8lNA3/yRZ7rD/NI3IG6jTSLhDh2LytGsk/8ACRdXC+hKOFpNnj/CRtgN000suEuHppqWj2bT6p0kew4T4fprEdHs8eXhJm5A2nTVfya0T/8AF2v/AA0WpcI8PSnzy0azcvN0kboDdRpp/wCSugY/zNY/8GJ5/JPh9LC0ayS8lRRuQNmmljwlw9Hpo1j/AMFHkuEOHJpqWi2Lz1/Mo3YG06aR8IcOyST0az2/1SKlwpoEVhaRZpelJG5A2aaiPC+hQxy6TaJrpiktiiPCPD0azrLRrJVH+l4SN0Buo01D4X0KTTekWTx0fgo9qcMaFV/pNJtJY86SZtgNmmmp8JcP0ZudPRrKMn3VJFyXDOiTeZaVaP600bUDdTpwmrb03Vu4KlFzjc1IQx+ilUkkl9FsSfg3hfT9Yt9VqXkrlVKV66VNUa8qahBQg8JRfdtkdu4yjc6lyrGLuvl/+LIm/s1lOVvreWnD39cvn/RQzkvapJNtlHgDQFjnpXNVp5zUuqjz+0L2f8Oppxtq8cbtK5qfF9dyUArurajh+safR0riPVdPoKo6NGrB0lVm5yUZU4yxl74znBsOEdMtNY4vqWl/RjWtaeneKqL+SU3Ply1326GPxm+Tj3VHGWcxoNryfhtY+5L7zZ+z6TfG9RvvpT//AKq/iWyvZWSbS+XAHDDm5rTFB+UK1SK+5SwIcAcNwWHYznun8depLH3yJMCu6tqOOcfaFpmgalYLTrbwVVtqvMuZyy1KGHvl5+Jr/wDRpdGp07rWNBpV4xqU6mpqE4ySalHkk+VryylsTH2ppS1HSE24pULh5S9aZEdC5Ket6BLLwtXgtl5wkv3lvhXXd16XB/Dsq3jPR7Tnae6p4/Z0Nd/0bcLQpuFCwqUG3lypXFRN/a5MloK7q2o5ZxnwnZaDYWl9ZOpyK6hTnCpUlNyUsrLbfnjY19SlaTtLTmtqT8SrRjJOC3UpxUl59GS/2m/9WLfbP8+o/iyG0U/AsYt7qtb/AP8AUiTv9quu7pMODeHaaSho9qkunwCPBvDkJNx0e1Tbz8nc3oI3VtRoFwTwyrl3C0SyVZ9ZeHuXHwjw/J5ekWu/9g3YI3U6aifC+g1Ick9IspR6YdFFNHhPh6hT8OlotjCH6qoxx+BuQNo01S4a0OMlJaRZZXfwY/wEuGtDnJSlpNk5J5T8CP8AA2oG6nTWvh/RnJSelWTa6PwI/wAD38gaPhL8lWOF0/m8f4GxANNdHQNGjnl0qxWd3i3hv+w9eh6Q3l6XZN/4Ef4GwAGuqaDo9X+k0mxn/et4P9wjoOjxiox0qxSXZW8P4GxAGtfD+it5ekWGfP3aH8DyPDuhxk5R0bTlJ91aw/gbMAa/8haR/wDirH//AB4fwPJaDo8liWk2DXk7eH8DYgDWx4e0WPy6Pp6+ltD+BW9F0pvL0yyf/gR/gZ4AwPyJpPMn+TLLK6P3eH8CtaVp0XlWFqn5qjH+BmADGWn2STSs7dJ9cUo7/sPFptgt1ZWy+lKP8DKAGP7jZ5z7rQz/AIaPXZWkvmtqL+tNF8AWFaWy2VvS/wBxFat6K6Uqa/2UXABb8Gl/oof7qHgUf9FD/dRcAFHg0v8ARw/3UVKKisJJL0PQAAAAAAAAAAAAAAAAAAAAAAAAAAAAAAAAAAAAAAAAAAAAAAAAAAAAAAAAAAAAAAAAAAAAAAAABxTUabp32sLOyvq+f99slvsyb5Ne3299jhf+FAimqxf5V19S+VXtXv5tP95KPZhPfXqeF8N1Tls/OlH+BbJWOggAqs45xvGS45v5QWXKjQ6rZfDMzuAFKPGvx4y9LnjHf87Et8aVFT42vVjLlbW//wD0HADlLjeLln/NtXH/ABYFr4Vnl1kAFVnM/arGUbzR6i6OlcR+382/3ER0nleq6A4rdaxRz9zJl7VHivo2y3jcZz9IEL0eS/K2irP/ANYoP8S3wr8u+AAqshntLz/Jq3x19+o/iyEWsZYsXluPjUN//EiTn2kL/wCGqHwqS99o59N2Qqwg/B09PKxWobf+JEt/ar8uzAAqsAAAAAAAAAAAAAAAAAAAAAAAAAAAAAAAAAAAAAAAAAAAAAAAAAAAAAAAAAAAAAAAAAAAAAAAAAAAAAAAAAAAAAAAAAAAAAAAAAAAAAAAAAAAAAAAA41rUEte11Szy+9Tfo8xiSL2ZyTvOIVGLS8ahL03pJfuNDxC8cTa1DG7qt5z/Ygbz2Y5/KPEDaw823/Iy2Ss8uigAqs5Lx1Fy43rJN490oN+nxVD3geThxtaY+FVLCvHDXzYnB/YV8bz8PjS5yutlQw/9qoYvCDlLjjRHJb+63W/+4WvhWeXYAAVWc69p+XdaMorLcbn/lgQ7ToQp6nojS3/ACvbtv8A2sE29ozxqOhtrK5br/liQq3UnqGluT/+rW2F/tlr4/59q/LuoAKrIh7RKaqcP23Msxjf0G19uP3kQs6clCxw/wDt6Of+JEmftCz/ACZhjr73Qx/voidmsxsU+vjUen9+Jb+1X5dXABVYAAAAAAAAAAAAAAAAAAAAAAAAAAAAAAAAAAAAAAAAAAAAAAAAAAAAAAAAAAAAAAAAAAAAAAAAAAAAAAAAAAAAAAAAAAAAAAAAAAAAAAAAAAAAAAAByLiSm3xRrOHh8y6f4cTb+zJY1HXfWNq//LI1vE0GuMdVil8yhL/+OJsvZo/8ra4nlN0rV4+yZNVnl0YAELOVcdRT41qxe7dhRkk/79RGJwo3HjrQ4zzzeBcpbf2Ymbx3J0+OYJvapp9PC8sVJ/xNZwi5Lj7RW+sqdzF/7if7i18Kzy7MACqzn/tMb8XRYpbynXX/APGQulJwu9Ncn8uqWuV/tonHtKUpQ0iKXWtVfN5PwpYIJUxyWjWcrUbX4u/9LEt8K/Lu4AKrIr7QFF8OU1P5ffKGf99EZs4L+Z4/01L/AJ0Sb2gLPDKePlu6D6/6xEdsFmNl/jUv+dFv7Vfl0wAFVgAAAAAAAAAAAAAAAAAAAAAAAAAAAAAAAAAAAAAAAAAAAAAAAAAAAAAAAAAAAAAAAAAAAAAAAAAAAAAAAAAAAAAAAAAAAAAAAAAAAAAAAAAAAAAAAHMOKaX/AMW384puUqcO39jBkezrmpa/rFGcZKcrW2nv5ZqIt8UajR0Hi29qasq0bG/t6Tt6qpNwU4ZUouS6Po/XJf4CpXGo67da7TpVKemO0ja0J1YODrS53KUknvyrpnvl46FslY6IACqzlvH1J1OOLV77acmkl83515+795r+Gacocd6C+WShm4SbX+qZKeP7eraXWla/St7itC0lOjdK3pupLwprryrdpSjHp5s0fDEpcT8Waff2Vvcx0zT5VK1WrUpSpQdWUeWMY53k8SbfZbeZa+Fdd3VQAVWQX2kVI0qWkSk8RVern/hSOf3FOq9LjdpTjRjfWzVRR2SVSO6Oncf6dO90O3uKVtVuZWN3TuXRox5pzgm4zSXf4ZPb0Idd6pHjWFvouhWV46dWvTdxXnQcKdvTi8vLeFnC2XUt/ar8uugAqsintCX/AMMJ8yjFXdu5N+XiRNFpq+KzhH5vGp7Y7cyJZxdpFbXeGL2wtnFXUoqdByeF4kZKUcv6pIgulfylvtXtbdcOXtkqVaDua91OKpxjGScuVpvnb7YLfCuu7qwAKrAAAAAAAAAAAAAAAAAAAAAAAAAAAAAAAAAAAAAAAAAAAAAAAAAAAAAAAAAAAAAAAAAAAAAAAAAAAAAAAAAAAAAAAAAAAAAAAAAAAAAAAAAAAAAAAAPGk1hpNeR6AAAAAAAAAAAAAAAAAAAAAAAAAAAAAAAAAAAAAAAAAAAAAAAAAAAAAAAAAAAAAAAAAAAAAAAAAAAAAAAAAAAAAAAAAAAAAAAAAAAAAAAAAAAAAAAAAAAAAAAAAAAAAAAAAAAAAAAAAAAAAAAAAAAAAAAAAAAAAAAAAAAAAAAAAAAAAAAAAAAAAAAAAAAAAAAAAAAAAAAAAAAAAAAAAAAAAAAAAAAAAAAAAAAAAAAAAAAAAAAAAAAAAAAAAAAAAAAAAAAAAAAAAAAAAAAAAAAAAAAAAAAAAAAAAAAAAAAAAAAAAAAAAAAAAAAAAAAAAAAAAAAAAAAAAAAAAAAAAAAAAAAAAAAAAAAAAAAAAAAAAAAAAAAAAAAAAAAAAAAAAAAAAAAAAAAAAAAAAAAAAAAAAAAAAAAAAAAAAAAAAAAAAAAAAAAAAAAAAAAAAAAAAAAAAAAAAAAAAAAAAAAAAAAAAAAAAAAAAAAAAAAAAAAAAAAAAAAAAAAAAAAAAAAAAAAAAAAAAAAAAAAAAAAAAAAAAAAAAAAAAAAAAAAAAAAAAAAAAAAAAAAAAAAAAAAAAAAAAAAAAAAAAAAAAAAAAAAAAAAAAAAAAAAAAAAAAAAAAAAAAAAAAAAAAAAAAAAAAAAAAAAAAAAAAAAAAAAAAAAAAAAAAAAAAAAAAAAAAAAAAAAAAAAAAAAAAAAAAAAAAAAAAAAAAAAAAAAAAAAAAAAAAAAAAAAAAAAAAAAAAAAAAAAAAAAAAAAAAAAAAAAAAAAAAAAAAAAAAAAAAAAAAAAAAAAAAAAAAAAAAAAAAAAAAAAAAAAAAAAAAAAAAAAAAAAAAAAAAAAAAAAAAAAAAAAAAAAAAAAAAAAAAAAAAAAAAAAAAAAAAAAAAAAAAAAAAAAAAAAAAAAAAAAAAAAAAAAAAAAAAAAAAAAAAAAAAAAAAAAAAAAAAAAAAAAAAAAAAAAAAAAAAAAAAAAAAAAAAAAAAAAAAAAAAAAAAAAAAAAAAAAAAAAAAAAAAAAAAAAAAAAAAAAAAAAAAAAAAAAAAAAAAAAAAAAAAAAAAAAAAAAAAAAAAAAAAAAAAAAAAAAAAAAAAAAAAAAAAAAAAAAAAAAAAAAAAAAAAAAAAAAAAAAAAAAAAAAAAAAAAAAAAAAAAAAAAAAAAAAAAAAAAAAAAAAAAAAAAAAAAAAAAAAAAAAAAAAAAAAAAAAAAAAAAAAAAAAAAAAAAAAAAAAAAAAAAAAAAAAAAAAAAAAAAAAAAAAAAAAAAAAAAAAAAAAAAAAAAAAAAAAAAAAAAAAAAAAAAAAAAAAAAAAAAAAAAAAAAAAAAAAAAAAAAAAAAAAAAAAAAAAAAAAAAAAAAAAAAAAAAAAAAAAAAAAAAAAAAAAAAAAAAAAAAAAAAAAAAAAAAAAAAAAAAAAAAAAAAAAAAAAAAAAAAAAAAAAAAAAAAAAAAAAAAAAAAAAAAAAAAAAAAAAAAAAAAAAAAAAAAAAAAAAAAAAAAAAAAAAAAAAAAAAAAAAAAAAAAAAAAAAAAAAAAAAAAAAAAAAAAAAAAAAAAAAAAAAAAAAAAAAAAAAAAAAAAAAAAAAAAAAAAAAAAAAAAAAAAAAAAAAAAAAAAAAAAAAAAAAAAAAAAAAAAAAAAAAAAAAAAAAAAAAAAAAAAAAAAAAAAAAAAAAAAAAAAAAAAAAAAAAAAAAAAAAAAAAAAAAAAAAAAAAAAAAAAAAAAAAAAAAAAAAAAAAAAAAAAAAAAAAAAAAAAAAAAAAAAAAAAAAAAAAAAAAAAAAAAAAAAAAAAAAAAAAAAAAAAAAAAAAAAAAf/9k=;fontFamily=Helvetica;fontSize=12;fontColor=#0A3DA3;align=center;strokeWidth=2;fillColor=#EDF5FF;fontStyle=1;verticalAlign=bottom;strokeColor=none;labelBackgroundColor=#EDF5FF;labelBorderColor=none;labelPosition=center;verticalLabelPosition=top;" parent="Gr0Zq-AI6Quabplr0KPa-98" vertex="1">
            <mxGeometry x="51.35602179836512" y="334.0026411493995" width="121.79110354223434" height="105.87381355932204" as="geometry" />
          </mxCell>
        </object>
        <mxCell id="X31E-dGhFTVf8kw1BePZ-10" value="" style="edgeStyle=orthogonalEdgeStyle;rounded=0;orthogonalLoop=1;jettySize=auto;html=1;" edge="1" parent="Gr0Zq-AI6Quabplr0KPa-98" source="X31E-dGhFTVf8kw1BePZ-9" target="Gr0Zq-AI6Quabplr0KPa-102">
          <mxGeometry relative="1" as="geometry" />
        </mxCell>
        <mxCell id="X31E-dGhFTVf8kw1BePZ-9" value="GSM Module (SIM800L)" style="image;html=1;image=data:image/jpeg,/9j/4AAQSkZJRgABAgAAZABkAAD/7AARRHVja3kAAQAEAAAAMgAA/+4ADkFkb2JlAGTAAAAAAf/bAIQACAYGBgYGCAYGCAwIBwgMDgoICAoOEA0NDg0NEBEMDg0NDgwRDxITFBMSDxgYGhoYGCMiIiIjJycnJycnJycnJwEJCAgJCgkLCQkLDgsNCw4RDg4ODhETDQ0ODQ0TGBEPDw8PERgWFxQUFBcWGhoYGBoaISEgISEnJycnJycnJycn/8AAEQgB9ALuAwEiAAIRAQMRAf/EAM4AAQABBQEBAAAAAAAAAAAAAAAGAgMEBQcBCAEBAAIDAQEAAAAAAAAAAAAAAAEEAgMFBgcQAAIBAwMCAwUDBwYKCQMDBQECAwARBCESBTEGQSITUWEyFAdxgSORobHRQlIVwWJykjMWgqKywtJDU2NzJPCDk7M0JTUmF+HxVNNEVeKjw7Q2EQACAQIDAwYJCQYFBAMBAAAAAQIRAyESBDFBBVFhcZEyE4GhsdEiUnIzFMFikiNTNBUGFkKCorLic0MkVCU14cJjk/DSg2T/2gAMAwEAAhEDEQA/AO/0pSgFKUoBSlKAUpSgFKUoBSlKAUpSgFKUoBSlKAUpSgFKUoBSlKAUpSgFKUoBSlKAUqkug6kD7xVDZEKi5dfyj9dKoF2lWhkwH/WL/WH6699eH/aL/WH66iq5RRlylW/Xh/2i/wBYV4MiEmwkX+sP10quUF2lUGaEf6xfyiqPmoL23r/WH66VXKKMvUrHOZjg23j8o/XT53H/AHx+Vf10cora0TR8hkUrGGdjsL7h+Ufrqr5zH/fH5R+uozx5UMr5C/SrHzcH76/1h+unzmP/ALRf6y/rpmjyoUfIX6VYGXjkX9Rf6y/rr35rH/2i/wBZf11OaPKhR8hepVoZMDdJF/rL+urgIYXUgj2ilUQe0pSpApSlAKUpQClKUApSlAKUpQClKUApSlAKUpQClKUApSlAKUpQClKUApSlAKUpQClKUApSlAKUpQClKUApSlAKUpQClKUApSlAKUpQClKUApSlAKUpQClKUApSlAKUpQClK13O8g/F8XkZyLvaLaQpNr3ZV6j7ahuiqTGLlJRW1ui8JsN6+0UuPbXDJfqVy4lkREN9zDSV7DU2tXkHf/cLp6Y3lhr6hlksftNq0LVW26KtehnZl+XtdGGdqNPaj5zum5fbTctr309tcSf6gc/DkiC8Lmwbe08np+YdGNqP9Tea+VnkePHRIGRSwyJLsXJAtcW8Kn4mNaUfJ4TTPg+ohHO3ClE+0tjO3Urh3H/VfleQmXDhhT1JLkP67kDaN3hWx/vzzyyxRCXFeScm23IkIXbr5tL1k7yW1M0w4denXK4unOdgpXFX+oPPHKeJDCGUAm88np9PA2vWE31h5VTb5O9upEz2rH4mG+qNy4JrZUyRjKqTwlHzndtyjx615vUeIrgR+r3L3/8ACn/tnqs/V/lH1GGQP+K9R8Vb5+oy/AuIfZr6UfOd73A+NNy+2uNY31N5L5KTOycVojGfLA0jAuLgftW9tav/AOY+QVgfkzoxuDM1rXrL4iGGO1VNceDa2TklBPK6P0o7es7yWUaE1pO5slosCRI22s6GzAkMLFehFcfn+smdLKki4bxqp8yCVrHS1ZXG/ULL7jykwpsbarsEVmkZrXBY9f6NYXdRDJLoZl+EauHpygqRxeK2G4bIyJHG6Z7E2+Nv11fj3nqze65NYVwJbXF93SsqZmjx3lU6i1vy156425bdpaUUkkkZG7QAnU6DWvdrADUk/bUYkmy5DcZEi7SToTW54qeeSG8xLsL6kk+PvplwM5W2lVoz1DdDVQ+0j76eNe2oaylkJ/aa320CEC1z95qq9L0BSUY+J/LVLQ7v2j+WrprwG9HiT4EUBCBa5P30KNY2Jv8AbVw15eg8CLe0nqT+WvfTNxaqwLV7TwkeAoMetBGoBudTVzr1rwjWgLdipXbqL61MOFlCt6ZJCEHZfxN7moidCKsdyd2v23ixHHiEuQ0m1QX223KWv5das6K93d7HYzXd087+W3bVZOtNx1GvLiuISfWDkSqxDCsW0LiZrj7Ktr9W+RWcE4rFBtsPVa2nW9dj4u3zmC4Fr3/hr6UfOd0peuU9p/UDN5nkGwJ0KO6ExsZCVB3D269K0eR9WOVTIniGPpDK8V/WfXYxW9Z/EW1HM3tMFwbWO47WRZopN4rYzuVxXm5b2vrXC/8A5g5OMBfkt5/e9Z6pP1f5T1A4wSbeAle36Kx+Ktm1fl/X+ovpR853Uuo6kU3p7RXB3+rHKSanGdNb+WVv5apX6r8kl748huLaytp76fFWuV9Rl+ntf6sfpLznewynoabh7a4XF9XeSQbPkyw6lmla9W5fqtyssgcQtGoNyqzPqKj4u1yvqH6d4j9mvpR853mvNw9tcNH1b5RLE4pdh+z6r2ov1e5NVb1MMXOq/jP+e9Pi7fP1D9O8Q9RfSj5zuVx7a9JA61w4fVzk2BHyagW6iZ7/AHVW31czyLfKHTX+1anxdvnIf5f4gv2F9KPnO2F0HVhT1EIuGFq4c/1WzpAB8uy620lavB9UuVW9sKR4x0dXci/jr0otXbe5oj8A4hvtpdMo+c7nuHtoXUdSK4iv1X5ZF83GzEeDM7/k6U/+WuUOh4qW/s3P09vSsvibfP1Mj8B13qR+lHznbt6+0VT6sX74/LXFR9WeT/8A4uW3iN76D8lWm+pvIvdkwcgD+k1qj4qHI+on9P6/1F9KPnO3+rH+8NelVb19orhb/UjldyOceZAOgLsAfGr4+qWcBsbGk3DW4kNR8XaW1teAlfl3iTpS0n+9HznbN6+0UMiDqwFcT/8AlLMv/wCHlv8A8Q0X6m5rMbwSn3GQ1Hxlnl8Rl+muJ/ZfxR8526lcdx/qjmKLvjuw16yG9XW+qGW4GzGZbdSZDT42x63iZH6c4l9kuTtR85124PSlcni+qOSiWGGHY3uWlbx+ypH2v3o/OZ64cmP6ZZXbcHLDyge37ayhq7MpKKli9mDNF/guvsW5XblqkYVbeaLwXNUmtKUqwcwUpSgFKUoBSlKAUpSgFKUoBSlKAUpSgFKUoBSlKAUpSgFKUoBSlKAUpSgFKUoBSlKAVoe8QT2/ma+Caf8AWLW+qNd87hwGUQbWVP8AvErGfZl0M2Wfe2/aj5ThPH8dLyEsnp23mTy3NurkHwPgK6vj9vdv4sAjXBRmudzNuNxe413CoXx2H6Xbk/IxSFciNPUi8PN6xHUa/kqay5YQbCNAfbprWmzCELak1i1Vs7HF+I372olYjLLC08sVH0dm2pZbtrtl77+JxyG+O4f7v260HcvbHbU2CuFh40WMzyBpRG+24TVQdzN0vV6WXL5xGWFzjY9yhZC25iDc7SDbS1afO4VYxtB3sDq5XzH+ka0XJyu+7WRN1z9BSjOawnclLClKtroMXieycTjM6LKxGitGGujzA6spHSw9tTaHtftqJopl46JZDqXG7qRqR5vfUAbi0lYbvwz++gAP5a2+ByGXwhjhyHfMxpyqiZma8KjS5LG2pas7Lkve0fOQ5TS+qm48qToSr+63bF7/AMOj3N1Pm8P8KoJ3h2ecOZ8rhIUjwEjT1EJY+ckLoLH2+2p4MnYbKRIBoGB0NQ/u/nM2DdiRMUx50VpBvYaqwtoDattyEJRxSXIbdDrtVavxyzcqtJpuqoc9NgDcD2feNDW24bDxfSlzs9d+LjqLpfxdvTGmnj760IYklib3JJ/LW0xtx4jkC9/TIhtf4b+tVGC9LHdU9tqblbCccHJxTpyS2nmZyeRyvIRQq2yC21YwNo6XN77vZXuRjYePf1UvbrbXwFaeOX0s6IgdNQPuNVcws0MkmRI5AYbgrX2nyjQVbsQjJNzVTzPGNTd0842tPOVtKtcrpXpMmd+Pgl9ORDt/m6npf21Mu1eMiidM+FCgV7rvuDcD2H7aiX0z7Xn7s50wmawjhaRmkUyDrs1rp3pZ/HzxYGYu0lj6W4MpI6XUN9lTq7cIaeckqOm45VnW6q5cUJXpyTVHWTMoKplDkeYm96y8sEYkg+z9IrGQkNb26Gr+V/4R9dNLD7xXnH20dJbjQkEC49963PENaE36Aaf1q0zeF/fW54f+yN/Z/nVsew33uyvAbK969BFLA+a/3UrBV5SsDXoAqh3WIbmIA9p6VTDPHkAtE1wpsbG9SKF6vLeysLK5THw2CyAksbHzAW8fGr2POmTGJoiCrEgWN9R9lOcUe0va+Nem1rjrWDk8pj4rASG9+vmA6fbWRDPHPEssZ8r6jW9HgqiheFVWvqKoBrxJVZiq6ldSKChXRvdSlCCgi5F61/dPbQ5do5T/AKtlYgNY2ClOlj7a2g6jTqakDcTNIIzHMNWIDAG4IGtyKs6OCldTabSNd2/OzllCWWWNGcJ5PjuNwJjEwnEyru2noQSQLXAv0pk8NDHhHJhL71j9ZgzaWK7gLW/NUt+pPAchxsCcvIwyTjxu+5VbQArozN/SqI8Lk5eTgZ7SqWQ4xKqdxtcnpeu1KzDLhHcarfE9U5xzXXTOt7Nr9M41n7gjkluQiM1vvA/lrTZeJj/OZi7fKciYm/XVzW1+mh382h3lPK469dRpWFlp6mfkRC53zyrdevxtXOvNq3FJ7Zy+Q9rpFF6y/Ke6zbezZ2qmEuFGbBYybnaoUE/orfRdk8kYmmcRogF9HIPh7V99VZ/NJ21j43G40aSy7ElaWQ2cGZPUt5bHyk1pzz3I8jIsT5UoLmwVZXPTXoTUqCtp54yuN7aOij0GS1Ur7XcStWoZmlKfpOaTp2cKeE3n9wswwGdnjKi+nq69L9NtanN7emw2PqRFkAFmXc3hfrtrCy87JxGVJsuZWYXW8hGn3msvD7zzMSNIvXE6R9Fllc39xG6orGSVISjz1qTmv2376zdx7OXJh01ZhfL456LQ42OB8Nb9eJiz+Cye4Ip1jeF2DYyjQgWJIt/TrL7b4XHzIMjk5pNy4UXzBgsCH2MRtO722rUrN5zjBPGSrt3Fiev0kbE77WFuWSSyvt+rs8ZoeP4PI5OdcfDiIkcGzSBlTT2tY1uJvp3ysbwpM2LumNlvP7vHy1r+R79zuRhZFQYaaD/lJHT4f8L8tYAzciaI5DySybNd7OWI+81tWSCpkncfK3RdRXjLWXpOSlY0y2ZWu+b58yceo3eT2DymKHb/AJdxGu8hJSxta/gtaBsWON9jwsp6+ZSP01QvMzo5Mc86HxKyEX/Ia32HzT9z5eJwOQgiM0l/mblnAVWNvNesZRU6ZIyg29larE2Qu3LNe/lavQSrKUV3bjFbXl9Kpp4sTHeWNNg8zW16H7a6fBxna/H8FgyZuHpKil9lzd2Xcx1Ydag+fxB4rk4MIs0nqWcMRY23Ff5KkXfQ9DtHgyJArqyeRtCQIWsPvrdpVODvKSTcFv8AAc7jE7V56JRuShC7N4xbi6UlyG2lyOyPRRXwyVVgwW2nTS/4leHJ7H9WNjhEEgAWGlr+P4lci+akC32At1A1qkZM7aiA+8i9O+1HqIx/DdDR/wCdu7av0msX4TrrS9l+tIqYejg3JHg3s/EqtZeyjjFVxPLfadw1/wAuuOtnsh2lNR1F+nuqqPkDIQjRCxNrnwp8RfW2EcCVwvSSoo6283VftNvyna4+I7V5fGYY+Gtol6gkEEjQ6M1QOTgI8juLJ43DGxI3b42sAgA8bHW5rd/Tdl2clZlU+mpsfEVawZ9vd3J+pE0sYaTeY7fDdOm7Stjl3tuzKSSzTo6eFGiyrujv8QtRvXLsbFpSg5tujlldcekwv7k5m8gS49xqLzDQX/o0TszPAYmTH0uP7YeH3VFn+ZbOzNrOqmeQqCTe282GlXlx+QZfLvt1PxdPbWDUatLT156/9C5HUzcU5a+3F0xi4PD+Ikn9zs0Y4mE2Nt37T+OL/ktVxezs8NHG0uNaW1gJh4+3Sop8tmeKsR9hq3K08W0uzXvYG5BFvZWDyLtWKeH/AKG23K9PC3r4SbcqJQ5vaN9yHEycXnvhzbfKqndG24Et7GtrUj+nUpXuKFLCxWUdPcK02XKJOI4xWO4+lEd5N2vtOhNbv6a2bnka2oEwv9y1jlS1VtRwTcXTpNOsnKfCtQ7vpSUJRb5Wk1U7JSlK7B89FKUoBSlKAUpSgFKUoBSlKAUpSgFKUoBSlKAUpSgFKUoBSlKAUpSgFKUoBSlKAUpSgFRnv0le2c5x8Sqlv+1SpNUR+oRP8AyRrqq/94lYz7Muhm7TKt+17cfKcxwcnZ27sZiRKltt9P7U1I+byHxsVnU+cMNRqetQbjpQ2PjRqwIL2Yez8Sp33GjPvRBchgQB9laJr/LunqlrVqmuuf3GbXB4/FxsdY4kABO+4N7FrE2rUZ+PIZnjiUm7dbE1vMDKinxkyEYemCVJGmqgA1reXzMmBWfACySFrFTfpb3EVQvTuRwhFuu9bibcVKTzNLpI1m40+HOI5gCrruR0B26ddT76vZMEcmHJEYwTsJU26Eeb+SqIMzksmBIc6JUEe4DaDazHd4k+NZcsiR4UrltShuPf0rK3cuZW5qmL8nITKKTonUxe282fJw4Y8h2aUKxZm+L4j1qNd8y7OWxoL/hvFcg9NCKkvbqCOGNn0dlYEt7iaiffxabncdPKGWEadOutXYt90m/GarapqY0wxTwImvj9p/TW6xhIeDzA20xH0rLbW/q1p16W9lbmEIeAyfUJUXjsR/xaqw7T6Ge3ve4gueHlI7f/AJ+G/v8A0Gq+5Z3VPSlcOxW0aqbkHavUfZWPMSM2Lbqbafkq7yD4oGUJg65TIBFuUWLbR0P2Vd03Yr0HkuOSrqnHkbOm/QCFIcvPyjbd8ttv/wBeBUl5bJbP5XHnJLFGZAza2sT7K0n0N9IYOY1/P6R3D3fMCs/GLl5zt8hkYX+81hr/AHUlXcUNJhNS5GZQ+MfbV7K/8I32j9NWk27l9t9avZYIxG0tqP0152XaidjkNH11Pvrb8QPIxF+nT760+tjW54n+zb7P86s3vLF/sLwGwY7QW10rA47IeSTIWR9zdEBPvPSq8/Hmy7QpcRsLMymx9tYz8OIzFLAzGSMhgC2hI9ulQqU2mhZaOu17DLyIJMkhd5Ed/MoJHQfrqnAhWAzpHcL5CQTf21mk6X8fZWFx7rI84VtwuoNvvqFsZCeDRZgw4cyWd8tBKB8APgQSNPyVbxC8Rkw8byBFDoPYWYXr3E5DGxcnJx8h9hBIW/iSxOn5a8xd7Sy5UeqFAqn3gi9ZOtH4jLlryYGugnx5IshOUiEk4J2MwAIW/hutW942NY8KMKPLqV9wJuBWviXCyIpTO9pbkWNr2v4XBrM45SsLKt/TUHYT46molswIdKGwXrWLjf8AipfsH6WqmDkI3kMbXRlF/MLaUxGDzzOmosBf33NQlRMjczO6n3V6LVQD41UKGBWOoqbYYBx4j7Gb+WoPbzD3EVN8RtuPF/Sa/wCQ1f4d7yfs/KVNb2YdLND9RMRMztnOiZbgwOPyslcZ4RUXiOTC/HFBMtx/MdlH6K7p3aN/A5YboYm6fatcQ46B8bA5ouAqNHkFSfG8jtXYk8GlyFK0vThX1ke/S8buYDWBKo5AIv8AtKOlWJi38WcxKFb15NCNL728Kv8A0uF+XG47fI+09BfcvWqlYJz4vZh67X8dN7Vy7vYt/wBx/IfQdNXvtTt+7Q/7jWd+MkOVjzNGDK0GODtHiIR4ViYHBcr60ciDaTqrlHsLi/XbXRM3hsbKymzMlWs2PEYDZdpdUFhqDUhgMUO2JXUnaDt6+FdODg61SfKeEvXb6m0rk4pSdEm1vOUcx21yXoDInX5mRELKYldiP5ui1o4sPGfEkWTFlhy4Q7SNKpRTt6AA+NfQcDwBwHk2brAAaXNaHuTDTkcfMwk9O0UckokNgx3Iw1a3vrKcbbhJpRTSqTptRqO/t1uXJJyo05MiPDyxv2LyIEZUDed4Fhf8PxrK7XmR+E5aOAsrrhvuYHym7N7K0eFBInZPKY4kAYiQCLebk3j1A+6tn9P1+W4jlIshlQyYZSzHXV2qnbjHvLcqrCLPR665djo9Za7uWN5PNVrkOaYxysqY4uHjSsNW3emzL77lQa2rcX3WIgYRtiXV4RDJ5xppt2611ft0YONhBTII1Z3F9A3W/gK3uNkRMSceYMQbXJNXowtU2I8vLVaqvvrngkz5xnl5LFyBFmY0sN32szQtGpv+6WAqXdtRDH7u46NXIHx7y3m1Rv2q6r3Piwcpxny7MskqhyV0L3KFdNwP3Vz/ABeMzsHvPAky8ZoIhGgDSAAX2NatGojCORxovSWw6vB9RdnO/G5Oc/q3RNuW57mbjuoP/eDjyW1MKWb3b261n9+xRP2nxDTAPJGFZWHtEDWrXd3ENz3G/s3hQC+g+Nq979kjHbfGAuAyKpAvoSIWrRb99qOhfIdTX4abhksFi93tEY4rgJ+S5GGKVDHjFN7EhkubdN1vfXRcDtbgvR2S4SlkABb22Fr1q+C7rwsvAggluJInEhsmllQL1v76kcXJ4bKHWWw00It76uxyJJ5VsPLXpXVOcXclhJ7G6Gi53sbhWx2mwcQRzG5LXNr7T7AfGoJ3nxWPwnL4ePjKIo2woppYwTrIxYM2v2V2U8rijF2K+4OCDYXtuGtQDvvgmbj15N23Sh4sdLsD5DuYdRf89a9U4926JI6HBJ3PjrcXKUs2CVW8dxm/TAR5EPJsli6wqDfw6eysbAkLd58piRyBHBk3lyAp1TSqfphhrFFzUkrMjiABNp8ptrrVPbGMv9/M3IkHqASysbeb93reqsFBW7GKwnVeM7eqndlqeJxaeNhJ83oxKcOHBglaSeFJWmzJIt7gMunm8baa1L8XA494EcYkHmHgulWuSxcKJ3gLJEj7pby2WzMSCRpp0q7xGTgRIMc5UbCO53K116+BtXQi1SlUuZI8jNycm8fCzyXi8OeVMLGxYEyJSAjbNBoTrbXwqKd/8NjcRlcbBDGqNNGWm2X2l7kE6107g14lMv5oZStksGjWPcD5TY3At1qBfVaWI8nxyBt11cm2um81X1bi7UtlcPKdPgLn+I2lWVGp7/mM1Oenp8XxiBV2+nCdyjqSp8a230zLf3iQa7ds32X8tafkJIRxHGLCzE2i3BugO03tW9+l5vzmvgJ7f4tc+n+at9ED1WqdOD6ltbprHw4nZKUpXXPnwpSlAKUpQClKUApSlAKUpQClKUApSlAKUpQClKUApSlAKUpQClKUApSlAKUpQClKUAqHfUeQx9vZJAv5V/71KmNQ36kgHtzLPiFT/vUrC52JdBv0v3i1X14+U4rw+suDHr55be74yda6hyyb8hwQfDX7q5DwMuQ/McfCG8gyAAD7CxruHIYwM7k+7xrXapO3l2rYy/xazcs6pyap3jcokWwuSHEK2DOkksEjFxMCAEv8Qbdp7KypMuB7tGyyg63BB6/ZV/I4uCdSkq3U9Vvoa1r8Ft0x5HgF9FjfaLf1TWE7MlXLtZTV2L2mLkZWPCCZJUQ6eTcB+mtVkZUvJOkONujgBs73J3C4Itt08K2knbIlfflH1r6He5PTp+yKzcXhsXH2hFsFtpu009lYxsTlTvKba4Eu9FbK8x7hQ7XvtABBsoGgqEd6L/5uJtu4pEnQa102LHQMCBbQ2rlHe2bOvMCGMbQYkLErrW641GNGZ6G1O9qEobdrqRxQSt/t/TW4QAdvykkHeyjb46SVqlFlA/6a1thCw4F5Nt1LKAetvxKoQeL6Ge6vRUbdtP1oIiz6Z8YPW2n5DWd3W8J9FYo0V0A3MvVvw0+K1YTf+pQ6X06dfA17zb/MZDBQVKWuLWHwKKv6fsI8Xxn71PpZ0T6Mcp8pm5GKI/U9aBh18g2yiS9vuqZyxrjM8ajWRixvpa5vpXP/AKPypFyriVAV9F7kjzfFXQMt/WyC5DC2g0t0J61o13u3vwKulXpLpLa/EPtrIz2vhNb2j7tasR/2i/aKyM47MRiFBuQCCLjrXCeMlzHXj2o9KNHW44kfhsfd/LWnrc8V/Yfd/LUvYWL/AGPCZ3iK9ql2VAWY2A8axY+Sx5ZBEoYEnaCQAL/betaW0rUMkk1ZwsIYfqMH3eoQbHS1r/rqvJnTGj9WQEi9rAa1RiZkeWWVQQVtowt1qY16RR0ruKJ+LxshzMRtcm5IUVejhjgj9NRp16DxNe5GTHjLeQ/cLX0qmLIjyReO4Pv66Vk60GNOYw5OHjknWZJ2QD4o1Asf+l6zo4xDGI18NL1RPOmMoJ8b/mqpJBIoYeIB/LWMm6DGhYn4+PIYMrtCw6lABcew1kY2MuMjKpLXNyx61TJP6Uio2u72D3XrJ9nsIqU20Q60KfzVWBVN7m1e9OtSYlY6rr0NTCF9kCHrZjpUOBF1+2t7NlSw4gk3MbMbAa1d0HvJLbWNCrq1VR5qmT3YrS8DlBTtvE2vs1WuL+p6nD8lGvm2R5ALLqTZmGtdozUbP7eyxMxuylbk2sPKa4XjTjGx+axb3F8pB4/61/Gu21tfMUbb9KKXrIufTR9vJhvYj/5S1hSzuvODzAFsh/Nc6De1X/pxIP4qYyDYo2o/pLWl5qVosueWJirpJIUbxBDnpXLl2YLkm35D6DYk1dv89iH/AHE3j5zMz848XGgEcEMQ9cMxvcBD00rcLE2OwnOU7un7JOhrnna3JzM7yM5bII2s58QH8tSduXnJswB923T9NdC1Sj8B4XVxkrsqtYSeznZJ8FpRvd5We5utze32Vjcx62FjTTzTfhZKuu+5DAMpNrnTQVp4ucyFsqAC/wDM/wDrVvuLN5DkeMTFZ1CgE9NpsyFeuvtrZJRyuqNdl3I3IzjudVUjkfNOO1c2NMUbVdz65vuIBUWuKucHzhyuOy7RCH/l9u6M9bErdqjCZcxxZMBJG+Ve6yRHoTpc/mrCjz8jAf5bGkKQyn05FGt1OpFU4OGZJJ+iqeA9LrY6v4edyc4ONyWbw9R1HD3+ms0juACfwk+H7dazY4hCrSR5s37xjDAH81RqLkMr01Ech2+ANXk5HLF77CTpfbrV1ONFgeWnmTZK8RZs3yDIdCmu5ybtra1afL5efL7swDkonp3SMCMk6qkmp36VVxOflvkkFgFsugFvGoxncmP41C+KHWWJgwZxp0dT+mq+oy5atVy4nS4OpvVxjFpO4nCvtYG/7wk/84wW36ektiD8PmatZ31ng8Nx0PqK+1Y72a5/sTpWs5LkMrMnSbIfc6LsUgWsASajnOZmTMUimkLohGwezy2FVrN1O5Npds9LxXQuOi0ylJf5d4031r5yZYHPcFjQRiVDFIQAdrRKLWHt18KkGN3N24ygfMW0Ghlh6/lri2ZOkkY2rYggEsPYKk+JxPbK4GPPkPJ68pXdaZQBdAx0PTWulCNYo8Pdl6csa4nTo+4uCPkXLW1/2pYvH76we8eZx8rgpExpd6xPHIrBwwJS/l8p99Q/N4ftuLhvm8N3OSd+pmVuikjQe8VpGycv5FIjKTA5Teh/eI61rvxSg01WqZc4ZKa1VuUHlcZJp+Enf055CVouZDMq/g3AZjr9la3F548V3JnZcr7QJHAs+0G+3xJ6VocTMycFP+RlaD1lCzFNNw9hrA5MmVXmkO+RjdmbUk+2qMZxajby7Hgepv6K7W/qZXa99Ckly7PMdv7YlbuTj8rIyFQkSGONnu/lKhhqftrK/g74juEEZBuAdpHXWtb9MZb8DPsHSRRqPH0k6VMSolHnIv43NtKj4jLclCKeZ8uw8vftJTksHGL3Gl47Cmw3ErSFjc2IuLXqJ/UiN0n4rIdixLMCD7B5qns4KLaMnb0t1qEfUwOE4jdrct19lhWMpynWUk1guipe4PRa+wlsbksPZZppuQizMDCxkiEbQ7Cz6a2Fv5akX0v3Hn1cHy2nFv6tQzGAG3+iKmv0vFuaW3++/QtarMnO/CUttYrqPVcUtRtcM1EI7HCTx+dVnaKUpXaPm4pSlAKUpQClKUApSlAKUpQClKUApSlAKUpQClKUApSlAKUpQClKUApSlAKUpQClKUAqFfUuULwGRF4ui/mlSprUH+pkAbhJ5y7AoigJ4H8VKxudiXQzfpfvFn24+U4NiMyWkjJ9SJtyW01DHrapX/fzm1hEa4+O7Ak3YyEm58TuqJ49lU9QST08dT1q+RYaX+2uPO7KEvRZ9IWg0+qt/XxzZXhR0N3P9RudgUscTENhf/WH/Prbcb31mZkSvLHioxW7LdgQfvaufcgqmG2t7Hp06iqMCSR12ITGVGrDxq3Y1DyVm8Dz3FeCQ71W9JCknubR0bP72yMRPUljgKi2qBm6m3g1ayD6lzZDArjw7QfFHH+d7qhXIZGR6QVmLqdfMT4Gsbik8tzbw/lrOeo9BuLwKuj4JJalWdVBrCuDT8504fUYDzvCgY30Eb2/yqg3I5UvJ5rZcwsSqqOvQD+derZUEm9tK8IsaqTvTlg2el0vCdLppu5ai03hiy0UIOnTwrdwk/3cdQdCy6X/AN7Woa9jatvCT/d4jaLbh5v+spb2yfJFmzWRWSC/8kfKRBdw5SDZYtrYH7DWV3D5chCujtbdbTXYtYu7ZykL2uBf9Bq93DOnzKeOo/yFro6fsp8x4bjOGrmudk4+kQY8wySpqIXNyLj4qn3IbGyWKMTYAe7qag30i3ZXKSen5HWFiCeh89vCpvPE8UriUg3/AHfZc+2qusbq1srFlfT/ADcccDHX4h9tZHIENhuR7R+mscW3j2X8au53/g2+0fpriSfpI6sO1HpRpq3HEsTDbS1j+mtPW44ogY4awF7/AKayexli/wBnwmZN6W20xUJ47v8A61pskZRzot0SjF9Qem6+K2HStvNEJ1MZJF/HrWMnHuHUvkNIqG6q3QfZWMGlt3ldU3l3kJER4w3wknU6j4atOU/iUJQjUC+3p0NZOTjLkRhCbEG4a1W8bDGO26RzK9/KzDUW9lSmgmkvkGQuNFJ6+QfeAQDqBWPgQv65yXG1bWA6C491ZOZgtmEfi7LG9vDparWNhZOPJeTIEkdvguetMEhhl24mFzGEZGiYPbr+1as3Ah9CJFZt11Fje9XsqAZEexjY67WtqL1YxsSfHFpJvUX9nrcC96VrGiwFaxSMEz5j5pfHRXRV1Lk/ZW4xMg5CNu0KmxtWG/GuzF4JzHfQgaafdWbiYwxkK7t5Y3JNS2iJNNF8j2V4a9odbVBgB1B9lqk8yqcN/Aix0+0VGLe/7qkmS7JivtG4sALfeDV7h3vvAirq1VR8J7OwXtnOZibANcn/AAa+fuPIbluTdxeATSlj109Vr6V37kgy9p8hcbTsY/5NcF4RA83NMxuE9Ztp/wCK1dzlfMc+Hbj7SNp2hLjS8xL8o3l9E+G39tb1GedBM0++wO+TX3bjW3+nC35iS+oMT6H+mta/lYhLyywEHbJM6kEdbufCuVlpGCT/AG2fQlerevTlFL/LwwXhPez4lXKZrqbgdLE/GKlc4/EOlRrgU+W5meCNDtVU2gDxLDwqVycfmve+hPjZtPzVfsp7zyGuu25XaxwqW8fUt7rVf5WFfkvUdioMZsx0FwhryLj8tCCQbaXsG1/NWF3jl5GHw0aRxMWO5WbUWBjbXSs7ibRXsXIZlmx5jnUQUBterGsSWMPkLtIvuHXSt3i4ER7ffPPqGVZNo8o29B1brWuixg5ack36gEaXBqnGDU+lHpdTqbc9InTCMqeIlUNwikVlDdGLlevS/WrWAJGVT6DMNeqm1Z3yeVNqI2BHRdrfm0q7FNrYeQuNZmV8Wzeu9urAD89avnccwZSSsy3uugI9jVvuMw54cjc0bN0upU6a/ZUSgmn5fuXGwcwPFDK5Xc1yBYORo2nhWi/FyhlW/DrOvwS9atanvLn7NHguQtSWYXBufCtRnw7plEoKXK2vpoRUx5rh4uL5LDxY5VlTIAYtYALcka2rC7zw4sbBw2gRPVITdKBYkemT1FVLFlqUk3jE9RxbiNruLTSzK9LBUfOQfLKjJRGAEYsWPu1qdLy3Yo4qHj2kUvNGq5EpgQtGxQK1n26WNQSeHJlnRvQkbQXCoxJ6+6t6vIcJiY6Qy8DLPKyje5hX4rWP566tpUieA1ElK7JpUxM3k8ftLC4VP4bnevkSSOVWyfCytt1VR41j5WOq4UIuAbRkgkdbVRzGVwmXw+EmDx0mLlesqupjQWFiP2Tu617ypljMEBUgWjJOvUXFatT2VjsqXuDyS1GMa1cV4z2GJ2ChFLgAX2i9WcxV2MG8pHUH21MexcKHLxuTlmiSYwxDarjcRpe6++tPkYWPlcnyUUloI0VnQEAWO5Bax+2qEbb9CVe06Hsb2ugviLTjhYtqT6l5zpf0vCjgc0Kbnep//trUgyMbJmBESFjuJJHsqL/TWZcXieQhLq15bKb+AVRU5w8qMKd1idfNca69KOMlcgttNvhPHaqcZXrs4qik8F4DGy5TFEgVTuBXdp7qhn1E2Sx8aZiQ/mKKPYR76nWZNCykmMHQfDY1z76l5A9TiQii6hjtU3JHsNRdtyWZqWDWBb4LJLX6dtVxl/KyKwIUIuLC2hPjUw+mCs3PxspuoE19fctaXKhT+G4GSsXpNJHHuFra7Tc/fW8+ljhOdVDe5E5v9y1osrLegn6yPWcUu97w3UzitluSa6Ko7VSlK7Z82FKUoBSlKAUpSgFKUoBSlKAUpSgFKUoBSlKAUpSgFKUoBSlKAUpSgFKUoBSlKAUpSgFQb6nlxwE6qbXQf96lTmoH9UiP4BOP5g/72Otd73cuhljRferP9yPlOFQeF/ab/lNXZn2Lc9KtYo3K383p+U1TmH/lwOpv0NceeM0j6hp5UszktqZZyZ4GhYWvf9Y99WeMuXkX9kDQfeaqkTFgxFnncKzFtq6a7SB06+NYD8lkuqx8fjGQRk7nVWvY9LkVbhppuFI7zg6rjWlt6lSut5rbxSVWZ3KRn01Xwt/LVnCkhjhtazACsXJyOVSL1JsVhH+84bYNfaaxxJDMQitaVvgXoCfGs1pbihll0lWXH9LLUq7bTVfRxdPkN6kqSMQOooTc1gceqx5Mi3uAotes8gjrVS5BRkeh0eolfs5mqYnh0F63CNbtxF/ef9D3rTMwsR41spPW/u6hQDYsnxXsdXrO1+37LMdX2I+3HykUc/8AmEY9v6jVfPQjbFkkfFcg/YqireOhyOWgTpc2/Mas5+U7D5ZrGJGdVYk36610bGEKdB4Pi8s2pk91XQ6Z9FmYcpKo6mBtpP8ATqcZeQmRNIy38vlNxbxNcz+jUmR/HciBQWb5ckLc/v30romVG0GWUcbGbWw8evWq2tVKybosrXhZo0m1dKKbXIFXMxicNh11H6atg2INVZmwYTEeJtp9tcKS9JHWh2o9KNVW24pQccE6jXT761LfCa3HFD/lx4df01k9jN9/smwtbp0rwDU0JHW/SvL36Vqe4qnpPsqoDX31bVrCx0tVS1NaMFfSrZsfNVRvbSqL6WPQVk9hCPdwP8lUkG9x0rxbWP5q9qEt5JUnWroqi4/JrVQNTUhnutNaaUuKkgG/hUtaEtEiKB6lySSdLWqJ3qXwwtMsIHwqxJt9hFXuHe9l7JV1myPhLHdB9HtbkdgAIhJ917qK+eeF3rNzjm+0pKdP+IxNfQfekiQ9sciWIt6B0bxsy18+8XkbYOXTTbsmb32Z2NdpvB9BQtr04v5yMn6bAty8gGn4T6/4a1j8hDM3P48at+I07BGB6ec28KzfpmdnJM41PpvcH4T5lq8UVu6MEpYf8yelgL7mrmSfY/uSXkPfQhmd9f8A8sH/ADGNx2VBxnOZJyrswVPMdTu3Bj4rUtj5zGlN1nbXwYqP5ajvIdvS8v3LnogDGKKOSNUKnc+gtr7TWn43tjIyJWbNT0GUsPSuutjYaNV+M3F0p4TxN6Km3JujT2HRF5WGxDTX0uACp/lrE7mlw+S4fZAN8qRsX3e6Nl8CajsPaM0fJYUkTKbuo9N3QXANxpUw7v4iLgu08fJjUJPko6TFAo1aF2PmQAnUVm5PK2+o1WoR7yCT2uhz/Ax3bsjIa4KjIK6nW4C1qIMSY4DSIkZVQ5ctfcACenvqZ8PF6n08yUeIAnJYh0FzfanU1bwuKizO2ZnYPGceOdy6KPN5mFnNulVoOt5L5lfGej1EEuF3bm+Goy/wowOP5/C9FVjeVBcg6Afy1tF7lwowGWXJL9AwUE3FYHOdncrxmIrRYsLFivp3dNSwvY7fdVfbvH8rhzHJGHG5OwPHkkKg23N0v1verOaaWCPOOEHKtUbzA7gxI2E+UuS0clrMYzc63PsrHzeHx8buLjZEiRS0qsFuejRyHpUo7V4OTlMzImz53VSNMVHDwpZ7WRWvbSoZHmtl/UDBE5v6ZCqgu19iyKND7qwm/RTfKWtDH62eX9m23h0FfdWLGOY45VWyso3D37j0rC71wY147BZQwZljCg9L+kfdW27qjC87xgLmxsb36XY1ld/Ps7R41VVXYnyyH4rmFra1otP62/Xd/wBDv8SjKWl4bFS7Tf8A3YkQ4rkOHbIjh+X/AB1W5ZlNrAAHXdW8U8JkSC+AhKm5O1rH/HrcfwPgcbtU55miOZHtZktGWKlVv0G46motP3HxkWLPCJFjcqyJZSCSBYdKtxzUVNjPKXcmeS3ps3ScJ2/O3zMvGptU77qr67df3qjXePHpBPC8IIV/TKAnoGLWqbfSnmI+Rd8XJkjaGMv6Ydrk2kRQNr39tRz6lgL3DFGrAx2XyqdB+JJ4CsLzfdydS7whJ620qb0+pmw+muOrY/L2/tPSH2H7fvrRZuEZed5cyJuEaMSqXN7Mg0H31K/phtWDlb2I2qPedOlW+Okjh775KY+VER2ZSLC10GoqnB/V2Oe5TynpdRFfE8V+bpk1T2YmJ2skWLx+S7GSFmkIiX4VJCg3YMKzJOemic4wlkQg+V9oCkn+cdDXQsSfi8zBeXLihBVysQdASx2g+UMNfurj31W5wNnR4PHJGMbHaMWS6WYRkONosOtX4Wq+lU8Zcuek1zk14fK5mQD50h42YrbaelgQegrS/UeCKDI4p4zIXZSzFvA3/Z0rpfZncHFc/wAXC2JIkzxgRsNvQxogb4vYTUX+q+diQy8fjFB6rK7KdnQfD8XhrWjUr6qcq18HOdPgkv8ActOsu+X8rIvyJL8Hxp3EkQxE7uvwNWV9MA7dxxH9kLNcfctYnKSSNxnHn019P5aG0g632Gsv6XFf7wxLusdkxA9ui1z4+/tfunrNRVcJ1ns3PlO4DpSg6Cldk+eClKUApSlAKUpQClKUApSlAKUpQClKUApSlAKUpQClKUApSlAKUpQClKUApSlAKUpQCoF9U1J4KZr6CMXH/WpU9rn31XeUcHKsYUgxi9/+LHWu97uXQWdF96s09ePlOI4g/Df2/wD1NU5wtEBYdfCrmKLRsPG2v5atZzhkt79K40veLoPp9misT52arkIZMybB46M7XyPVCMegIs38lTPB7chw4I4QqEbF3zBbM5tu8w6aE1FJZBgcnxWdMPw4DMzW16i3TT210gsTDGYtUKK6bvY6hj+mu3ZdLUaHzbiCUtfqMcFN+I1TY2Am35vGXKxEvvx3W4Ynpp7jUG5bgW4fm/SVxJC0jmBgthtC7rez9q2lT7IKgFUub9NKi/cWecrm4MBACcJpEOlhqgbrfXpWTbp4GV5RipRawbkjTYR3ZEj2IBUaHrWxfwrXYDmSRnPiorYt0ArkX+14D6NwqNNP0SZbKA+6ttChyu32gjJEkLB2Qa7g0ltANdK1pBK38BVcGXl4bF8V9rEWYG1iKi3PK8djVDbqrMrlukHSSaa6UaHB3LzMBKkFW+Eix6NWuzlLtPbTaznT3tUuZePzZ4+RxVMWTF5WUaKSNAbMWPiairhnneNT5ppGWx6X3GupZ2HzviLrflVNNNp8m3cTP6L56w97+lMfT+YxpFQsQqgqN/7VvAV2TubBGNmxvvVi8Yaw6j/718zQz5/HciMzjmEeTCp2MPNYOuxtCD4Gundqd5c73RlyNzciPJF6UK7F22QBvz1r1kV3E3hs3mjTP62JMTVrOdhgsI0LuDfb7r+6qpmARgOpBA+2vMeZwPMfP4+y1eebo67TsrDE1BlyiBtx2166N+qpFxgdcRA67Wu2mt+vvqtZCvRhr11qsuAxsdPA1jKaawjQzlNywZcPwm5rxJB8NunjVl51Frm9FYe3rWDMC+Ra7GxHsoHuQLW99WSwK2B0H2UJItqNfeKgUMoNbQ6++vCAx00/RVkO3QsLeGorwyMDYsNnhqL3rLNykULwUdOlViwH6axRLdhYi1VCXrYj31OZChkWX3V7p4VirkB7sbewCrnqjoLDS9MyFC/f3UuPsqw06qtyenW1WnygVuLX8L1KxIoZTMbhVt11NS/E5CKMQqykB2ZQbi9wCf5KgUc0skiruAW4uNOlXu7uUzOL43HyMJwsqzeQkA2upvVjR3HG8qb3Q0amClFLkqV/VrufHwcKHiY23vmxSByjr5RdLXF/dXI+PnhbD5B1SxkhZbn23OtWOYnz+dzDkZswleNAoclVIFz8NhVeIqLg5kR6RQMQ3jfXWvQLFN8qOdBUuQhySTqbn6axtNyDRBigZHAddSDvWriIU5/Hu99mS13bS3mbUnwqx9NnmOcI8VgsjK+0k2F9y9b1Z5F5UHISBtssZkIYe3edRXMuund81xvyHv8AS4yvUax0ltLpeZGZyncp7V7qOWd2THIMf1EDADbZZTY+NOA5iXmVz+VJMMMMcrBHboVkQden7daPiv4d3ByDw9xbnQxRxRSJo24ER3Ph8NTKDs/E+Xn4vhMhkxstDEyvKgNyyu2pU/uCujBwkm2qtniNVp7sLrUsEn2t2JB5/qBlQ8hLJIst4h6eKEe43o7ec36XHsqWct3rN3H2HxwnjZJEmlRnL7i2xGj1/LWtj+k2TkZ3pM6lQ2rGdRoWI/cqUDs/t7geEOFy0jsmN6s4SORZPOQXI023FqzlRxpTLuxNVqDheg6qeNfQ9IweBaXH+n2SJixLZTAB/L1VLWv9lZ3B4eTm9s5yYmSqssE7Twu1rKXa1gtzr76jc3cjclifJ4yLDxqkP6aqQS6i1/MzHoa0I7i5XjZcscTkmBMhfRlWy2ZB4eYHxqhG5H4hNVajDK3z1PXarR3JcJnCkYzvXu9jGu6hl8n9SeUfjF4zJhaXJjkLrltKxe1rBbbegFWIPqRlxwMj425raMZTcfmqUY/bXYXceE2VAcjHzI/MzAiO4UhCPxN371arM+k2cYpcjj2hkhVSwMuQt+viAvsroZ4vE8d8PcUsjwfPge9o/VTkOI5WMPAcuPkJUgETzECLfIDuUAG/W1XODn9fv7CluNxdtCdPhk8aye3fpBltNByHIPDEMdkmVoclb3RgejKfAVseYxu1e2+RUcSjy8wAskU0vnVd+65DIQt9PZWq9TKpvBLGm/Av8Li1qJ2Us07idtUeHpYdRmd3bTz3GfCfKLhTcfE3WsvveJJO0+IYiwEu2yi40iaop81Lmchjy5UhezgEmwsL3sLV0XlOGk5rtfjcTGOifiasF0aMr1sfbVTSS72d5xxzLzHd41F6Wzw+FyVO7bq1s/a85xDmu4eTxIf4f6shVgrHaxttN/La3uqMHIysou247kux3E9D91ddk+lmblzepmHdtWy2lHh0v5PfVEv0q9NVMKbHc+mxEvUWv4r7avK5KMUsrwwPOLRRu3Go37Srji35iCdudw5PBqJcV5VnUl3CHaD5g9r9eore87l5HI5+PlZD3d0RyGa58xZ/86tzmfSfkcdIZMRU/FKiTdMP2vi/YrIb6c8+/JY8GQYztAIYSjRFuAL7LVhdzSi0oNN8vKWdBC3ptVGc71uSjKjyutEnibT6cxM45BlmaP0wrso6MBbymr2Iiyd18xIFV2aNwqHqfPH7K3fanbeTwiZ6ZG0iQW0fdoPsAqOY04wvqAzghYpJmhf+jtLfpWqrg4QsKapS75zuzuR1N3icrDzKemon0RijD5vvibhMaOE4rSyCeVkCMdNqhQDpfwrn2Zyp7gzJ8vLgkgLMZVRAXufAHdt613nL7S7Y5GVcnLwxIw84Ks1iWO43s3vrFi7K7WTIJGCDqCgLPYa6W81dBOiw2HjpW25U2dO4gf0i53L4jlRjz2jwiJ3dZnMWrbPhDAAnT21vvqryUebyXFyQgGP0STZgSbuTYWvUjl7J7alVt2GHc/DIzNdT7tbaVXldocPkjGaTEWUY1lDOzCygdPKRWm7Fzg4JJOXKXuHXoabUW9TczONuqeXbiqb6cpCeQyWfjePhCMkYxITroD5DWz+mEanuOF+lo5bfkWrHd5hiy1wMVVjxseGKNFUk2spBGpNZP0xIHcUKNqfTlt+Ra5zSWphFfsyin0o9helXgt+cU0rlqU6PbSSbxO3DoKUHQUrrnz0UpSgFKUoBSlKAUpSgFKUoBSlKAUpSgFKUoBSlKAUpSgFKUoBSlKAUpSgFKUoBSlKAVzj6tTunFmFF3F4r3N/CVK6PXM/q47DCjVfGI6f9Yla73u5dBa0Crq7KXrx29Jx3FIEbsdABr+U1h5EiSSlVN10sR9lUGWUbljYhToRV/Fx4l/EkGh0tXJdE8z5D6VGrj3awq6t9Jp+6M98rOhEabY4IgFQXAJb4rg/ZW+7W7rzdvyGbDux44wIpSXcixPh0FazOXEmk3CFWa1iWGun31bgM0F/RGwWtoD0q/b1SUEnF7DyOs/L96Wpnchdi80m9/mJZyXc0WI5TFQSLZSJVV7+8eWoZxCZGTyrZMgYF3d9z3HVH8WrKK5LC9xYeFUL85D8BC9dQDfWs/i40apzGn9PaiMlJyqk09+4p40at/RFbUqSdKwOPjaKZhILrt6VsAQQfbXOvYyVOQ9lw5ZbDqmvS3lIFrg/fVDbfiB08fZWx4rHjy+QgSYBot34in9oBSbfmrD5fnOGZFhwsIxNe7n07G1rj9o+NTatymqrBVoYa7XWtNKk4ybca4dRoMMonLQzA3Cnr9zVJsKLiI4ycgWfUg+lckkk9be+rePL21JLFMMFljS/qjbZjceHmrLPI8K0pLYrCJP7FVUA+zzearErsoukZLBUOJa4dZvrvtTak3NuSyvdz1MLGgwIsyXIBaIsiqAkfWx8bCsvAlwOPyFmhLAu15PwyoFr2NwPfVv5/AR2f0bkgAbluP015LyfHMpWKC2nm3KL/AOD5qwlOc40lJNPrNsuEaKL9G1cW3ejdnKEylxmIoe9iZVUj7iaoUNbcOTjHv+YjH+dUfkysGXYEx0ESG8l1sxHjY361RLk8c5U/LIqA3sq2J0tr5qrdxH1vEa5cLhX0ZT8RIHkZREWzoTsvuPzCE/5VWossN+GeTQSDUqJ1/wBKtBLPxrRvbHUPtNvLoD/WrQxTwRDYEU5HjKwvp7jetkNLGSfpNU5inqtN3Dtqr+sllxOgNKq3vyS6eHrLf9NUfMxf/wAiP+1X9dRgTYzhbxx31u1hf9NVCfGYqPQhAQ/u9f6Xm1rH4aNe14jeuHKieaVfASf14yTs5G//AFq3/TXnroCF/iGp6D1Rf9NR2LKxAxkfHi6eVVXS/wBm6qkmwjd5YVMn7JA0H56juI+s+oy/Da7HLxEhTJQMCOQuV1I9UfrrwTowuOQJB/3g/XUeafBCERxBXN7tYfrq58zxikBYbKNSLD9dFYj6z6iPwznl4je/MIDY8hY/8Qfrp8yg6cj16/ij9daH5jiy4LQeUdBYfrrwT8YIzeAb7nabaddL61Pw8fWMlw2L3zXTQ34yY9wA5IA+0zKP5aHNjBseUA/65f11Hll4tcYr8uGySTZmF1t4eNZbTdskxrHgkqQBOXUFr219M7tKdxDfJ9RhLhsv2W30m1GbF4coPumX9dWJORKgXzgzG97Sg6Dp0NYSN2+ZB/yI+XW9rL5zp4ndWQs/BJb1OOiLgk2EflI8L+encW/WfUFwy4+U20OZvjVxljygFfxB192te8t3hDPiRYTIJiHLu7K5IG0216da1MGdxsdwuHDuJ8qsl1XXSw3aVmNn8HIQo46AJ+23p+f7jv8AbS3CEJZ9tNhu/CYuKTU5N05MDHzs/gZs/BEUKLirY5MywkFSRrpbXWqcXO4IZOQJm2Y7jYLREh1v0YW8RWY2dwrSoV4/HEK/Gvp6t9vnqhMvgjOzycdCQbBEEflFvdvqytXQwlwGD7MJpvemjb8fzXAY3HyfKY8UeUSQtoSjW3A+wHwrQSlZfUN7q5ZmH2m9qzUzuJTzyYMe/p5Y9LeGm6vTy3DJcfIJr1tH/wD11Xuyd1p50qbDsaG0tHBxjZvTckk3LK1gaf5PHIuUBBv+yDVyHG+WkUwM0LjVdg29fZatkeZ4ZVK/Iixv/q/b/h1R/G+Jef1HxSFRRsAQDzDT972VgoS2951Fl34P0Xpn+8kY7yZ19pzMi5/Z3GtNyHH5GTOXW8rm1yxF728b1JU5rhvNLLikyj4LILWGov5qx83nuAhRJIMWQTs15iUBW1r+Xze2tlqM64Tr7RW1d2zG28+mklXtQUTWxwDHT5Z7XYXNrEa+8aeFYEnE5XzG8R/gs1wbjUfZW2i7i7fZmMmK7IQRcoN9/d56rTufh5pliOO4ijI2gIASOlm82tbVamm2pRq9tSpLX6a4rdt2rjSdY0y5uh4ltsPFNrwIftUXrKjneBCkUhiQizKhsCB4ECs1OY4Mw7pMJfmgTYhB6dvC430l5Hg3jVYsRN5J9UlR8JAts8/W96ru2/tl4zp9/F4PRXHzuMfOYJnO0q0xMZufTLaa9dPfWMsWKkgkQICPEWFbxMzt0kD5FTHtUMWUb91vN+3+SvRldvbiDgx7QLrZdb+/z1GR0xup1JjfVax0k093oxT8TNSXjItvFvbetxhd0cjhxx48MzenEgRAJGGg9wNUHM4AIQcGLfc2sgtbwv56PyPb6xL6eCgmJsxCC1vd56Rt5auN1LoF25G8lG7o7klzpYeMZHePOQYc3pzyFtSG9Z76n3GsfC795qZWjmnZGBG38aTXw8TWTLn9uvaJcFdr2DkoL+/XfWNnZvZ0cmK6cdtWNgZ9qi726/t61ug24927qOffs2oXFfjopUWEk0uvaWOS7y7mbaizSLEjB1dZ5NbeHWszD785TIkUyS2Zf2DK9jb7TVmPme0srJdWwXGKvwR7QNAbfv8AW1WJV7XwIpWGJMciS5x3FmVN/wAN9dLWrJ5msjuUa2U5jTksRl30NJKUJdpNL0c22lDa/wB7OXMkh3nbICu31XtYn7a1ORK2TNJNLq0h3NfXX76zeZw8TBi4uTG0+cxVncM1zdvd4Vruo99U76mpZZutDt6BaaVtXtPBQUlldFR+i6U8Ru+K7s5PiYJcZIlyEk6eq7jbYWsAPsraj6g5wWIHBgJW29i73AH6qh9OvWojqLqSipYIxu8J0N2TnOys0nVtNonEHffISb5I8KF4lBJJZ+tx4VgZnefI5ySQY4EAYFJVhkcXv7RfWtLxk0O2XHe67lb4dPFenvq36MGIzupbdISRrf8ALW2WpuuOM3iVLfC9FC9KlhVXZ2tFrczzOZdXY3YnU3NS/wCmS/8AueIdLRzdPdtqIA7pS3tPX76l/wBND/7oit+5MP0Vjp697Bv10Z8XVOH6qKwSstU/dO30pSu8fMBSlKAUpSgFKUoBSlKAUpSgFKUoBSlKAUpSgFKUoBSlKAUpSgFKUoBSlKAUpSgFKUoBXNPq1IY8NCoUkRHr1/tE6V0uuZ/VyMHBD31WLp/1qVq1HupFvh33yx/cj5TiC+bJU+Ba9X+RGyK3vFWIPNkIOnmq7yD3hIPW41rlPtRPpEaq3cpsSRaxoFYGVut/KKvtLENNw08PCsCOSXbtViB9tWcmZY477wz31AI3D7RWasyuS5ivd4lY0ltZ6J72zZDIgIJLi/hXnqJ++Py1pY8gtGXK7Fv1fQirih5lJjlBI8FNz+asnpXHbhymm1x61ewt0m3sWyvWbVpYx+2Py1bbIiBvvFvGxrUsmSNdxP5atNFkn9s2++isx9Ym5xO9T0bDNtx/LInK49m8ocgnXTykVlRwpIfl02sbXeQ26DUXatBHhSr+Mj2dPMDre9TbtLhG5WHIkMu0hAQbXb+021bt24uLUcaYnk+K6i/8RDv1lcotpLdiYWN2786pONOHCGzMJFsCfbpV/wDudl9TIAv7J9VdfzVvsni17ZnlgilaaNlSVrgLqb6WFYx5iYgDYCB0G46VLuJOlEzPR8F1mrtd9abyt0VZLcahuy8hr7pbX8PVXw+6rWT2ZmAgxuH08JVP8lbz+LynUxj72NefxeX/AGQ/KajveZFpflriCXax9pEQyO2OSUhWvYE22yA1jf3Z5A2I3EeJ3iphJnM5uY/G/U1U2YOohUe4U73DYZ/prXPBy2fOIVJ23yFtqhjfQ+cV5F21yURa0O7cLeYjS2ulTM5Y6ekoPtr3507ShhXTUPrup3u5YVMZflrXVTdHT5xCx2xypDN6R2j+cL1aPbfM3/sdP6VTgZpVWX0wd3jfpVPzZ/cqO95h+nNfzfSRDF7d5RrsqHb4ENVb9sc2GCrEQx1sz2PuqYLlBVKiMAHp7qrk5B5JPUK2NgAL+ynerkH6c1/KvpIhI7Y50m3oi46jfXr9sc2p8sNwenn1qaLmsu87blha9+lU/OSXBNzb31PeIn9OcQ5PDnj5yIJ23zQHnga/uaqv7t8x/sW/rVMFz3VWBXdfoSen2V588/s/PTvtxH6a17xa/iXnIf8A3Z5i1vSf7Q1VjtrlXPmjdbADRrXqW/PP7D+WvBmyXJ92gvUd6uQn9N6/lp+8iL/3a5thsjjfy+x6L2z3At/wXN/a9SkchMuq6fYTVxeSyNreJPQ7jcUdxciMv07xFLLmqueaIxH2tzDWLRkX+IhxWzi7QyWHpyOVXru9QA/orbJys6qFCA26m5qpeZmU3MSt7ixp3i5EY/priGNKfSXnNY/ZGSSLykX0AEq6/moOyM1AfO+ugPqD82lbVucnNvINNQdxr3+PZJ0K2A6AMad6uREfpniO5r6aNd/czkf3nHvMgH8lXV7S5D26DqfUH6qzDz+WRaxP2safx3JHgdevmNYuUHuNn6e4qllzRp7S85hJ2dml28/xdPxF/NpVA7IzjqH8bayr+qtgOdyAQdvTX4jVY53KKWC21vfcayU48iMP05xTfNfTRrx2Nl3sZAunjKo/krxuxsoW/FU6/wC1U/yVsRzmUb7luegux0rxedyATdAbe1jTOsMEQ/y3xJppyT/fRrh2Xkx9FjOvXel/0VUOzMoDcWiUt4mVAf0VmtzeUNdo+zcaqPOZD7bxL5ddWbWp75j9La3dlT5cyMT+5+Yq3dkt7RIpH6Ktp2bkobAg3N7+ovj91bFu4Mi1jChHs3NQdwZFr+iv2bmrHNH1UZ/pzilKd4vpIwh2ZMQN0liDuFpF6+zpXjdoZDAqX2qR8XqKP5Kzf7xZHjAv9ZqpHPTi94w1/AsbUzR9VD9N8U+0X0ixF2jkWKqwYEWJ9RSR+avf7nzg+Uk+BO5f1VdHO5I+FNtz0DGql7gy1v5b3H7zae+oUoeqjJ/l3ie3vkuiRjHs2feCC23x86/qp/cxzp5zc+JW36KyP4/mdf8AONZvF8rlZmR8uwP4hVQ24nbuNr0WR0VKYGF3gHE4W5TlfrGEatZtyKF+m+SIYp4WR2ZRIUEqEjx6ba1HKwY8DLtYiPyxvusCJNQRb7q6Vh9pc3Oi8jFzUiwltoxrtYBDewt7bVzbvVTin0FBVzKr7+lrs41rG5ZU1vWWtKFDhmvv6bVQjGblC5LLci9lC33djiKLhZcdmdDjKXJ6g9dB+7WsxM2HYElfay3GvsrYZExzMTDSZt/pQKoa+4dOlR/YBlvHfQMRVe6ozk4+ql5D1+jlKzajdi8Ljlg/aeJuhkQno4tXvrw/vitPLJDjL+JMo36KNwBFvtNVw5EUwtEwcqLsQQb/AGWrD4KbSaTZlL8w6OEnCc0nHB4M24mh6q4uOmtDMh1LCtWmXiKbSHYRqSxUAD33NbHBjw+QLrjzAtGoZgCrddNNpNRLSXEqtOhlb4/oJyUVcWaTosGZOPtdtGv7LVMfpgAO6I7G/wCHN/m1DcaIw5DxH9nQX0PWpj9Lj/7nTT/Vz/5tY6eNL1v2kTxeSlw/VSW+y3/CdwpSld0+YClKUApSlAKUpQClKUApSlAKUpQClKUApSlAKUpQClKUApSlAKUpQClKUApSlAKUpQCuafVxguAFPVotPulSul1zD6vG+JGPZEf+8StWo91LoLnDvvlj+5HynEYdJ1I0O6q+QI2Ae+qIR+Mp9rVXnWNh7D/JXKfaifSI+7uLlSRZjhyGkjgxgrSSX27rkXAv4Vvz2txonYNArOqoZXLG7M6hjr7jWuxpouO5LC5HcRBGXMrnwsu3W39KprOySIksdirgOCPEMAa61iKVqLW14nz/AInOV3X3Y3HVQdIo0a8BwryiDJxg+OdWFzfTX2+2oTyeE/bvPy4sbn5QzFYBfcxUD9o2H71dCyBubb006jrXP+6uQh5DlsXHxW3/ACsjozLe5vt6/krOaqmniqMq262r1udvB5lSnSZvxAnS1WTroavMmyJUHgTVt/irkLaz6PJtxTe2ir4SkvsU26kaV0H6aWELg6hozf7pDXPj/ZyfZXRvpeVWNy1rGNv+8NXtL2J9B4z8x/fbXsfKV90SetmSkjpGg6WqMqpB61v+7GY8kUBsPTWtAhO4La9iP01rl2j1P5cVOHQfzpG+4rtnK5RN8ajbrcklehtp5TWxTsTktd+z3WkP+hU87Y8vDxAaDfJp4fFW3ufaauR08aJnndb+Y9db1Fy3bcVGMnHq3nJsnsnkoo5JFCFVUm28k6e7bUWcMt1cFXHUEEaffX0Fdh0JqMd29tDlsMyYiXzQy7QoVdwHlsWIv41hc02FY9RZ4Z+aZyuq1rElGbSU0+zytnIvNoT41nYvF5mdrjLewvuN7ezqAaxsjHnxJngnRkkjYq6t4EV0rsnl44+MGPJDKNgYq0MTtcmQ3uRWi3BSlSToeh4prrml0i1FiCu1aW30aPfznOTgZInGNsJlPgAba6+z3UyMObFYRzIQxNhYHra/iPfU7Xn0TuqGbHx5HiULcGJxJfY4+DrWJ3fz4yuQwxFAyrDNub1I3RiCE0s3WjUFFSq8ZU2Fe1xTVzvWoS06UblnvG82x8lKEKlhkiP4yso8CQR+kVbK2IuNDXRu+Ofw8vFjjixioMlyZYWjtZfDdWr7u5Thszj4EwIwk/pFbej6Y3DZ42+2onFJSadaKpnpuK37i0+fSSi70pRdMVHLv2ENsP1V7tuun5K8G4gH9FekWOlYHYKbW1ppp7auRwyzuI4EMjnQADW9dK7a7JhixoMzkLiWRQ5iYIwGu4dRfpWdu3KbousocR4lp9BbU7zTcnRRrizmOvQKfyGqxG/7n5jXel4/j1+HFh08fTW/6Kq+Tw+nysOv+7X9VWFpOWXiPOv85W92ll9Nf/U4GInPVT9wNehHXop/Ia76MXDAAGJDcePpr+qvflsL/wDEg/7Nf1VPwnzh+sof6R/TX/1OA7Hv5VIPjoap9KT90/kP6q+gPlcI/wD7SEW/3a/qqlsPDJucaK/9Bf1VHwnzvET+soV+6SX/AOn9JwAxyDQo1/cD+qnpydfTY/4J/VXfWwsM/wCojH2Iv6qrXFxlGkKW/oj9VR8I/W8RK/OcN+kl4bn9JwDZL/s2/qn9VAkn7jf1T+qvoD5XGIsYU+zYv6q9+UwxoII7Hr5F/VT4T5/iH6zh/o3/AOz+k+ftj/uN/VNe7ZANFa32H9Vd/OHg20gj/qL+qvPksL/YR/1F/VU/CP1vER+s4/6R/wDs/pOA7Zf3W/If1UKSLrsbXT4T+qu+Nh4YF/Qj/qL+qvRiYlgfQj9x2L+qo+E+d4h+so/6R/8As/pOCem9wdrfkP6qBHubqxt7jpXfVxsRf/20R+1F/VVQgxBe2JDc6H8NdfzVL0nIyP1kv9K/p/0nz+Y2voDb7DXgjk8Ab+Ghr6A+VwevyUH/AGa/qqj5DBvcYsQP/DX9VR8I/WoF+clv0j/9n9JwIxyn9k/kNDHJa+w6ewGu+/J4n/48f9Rf1U+Swz1x4x/gL+qp+EfrEr85Q/0r+n/ScBKt4I1/Hymvdktr7W/If1V34YOF4wR/1F/VXvyWD0MMf9Rf1U+E+d4iX+coYU038X9JwfExhLKsc6uIz1sCP0it7x0eJFkpHhq6S71G9h79Nftrrhw8IixhQj3ov6qx8nCwlx5ZFijUopO4IoIt91T8MksWn4CpqvzQtRGUHbnFSVKRnRdOwyO3WkHCR+obyK7gn2kVxP6jxhnLAAuzKLn3u9ds4Nt3FER6/iy2PTSuMfUJAVfzdCu5r6jzPesGvRkcLTuuptPluJ+M1U2HHjcZgvELNJGpfX9rZ1qOkH5179dxvUkzgF4rjQr7rxpre5Hk6VHCD84/9K9UJe+l0I95p8dDZbx9KflZsOF7Tx+8s2PDjUCWCQesS/p3RztABs19Qa6hxn077W4yNMX5BXmiQJNKzMxaQfF5tLi/TSuadjctj8X3VB8zMIEmliG4kgGzsTeu5iZJ/wAeFg6Sn1FcfCVbUMDXVtv0VTkPBahJ6i63j6TIfz3027cy+OnbEwVhnYBQ6uynrc9d1cw7Z46TieazsN1C2ICWufIsrILkgeyvof1lhheSWwiTVmPTqK4pn8nicl3dI2E6usKmKQpoNwyH0NTd93Kphp1TUWqesgxJ5HIJN7MQPsBqXfTBQO5Ebx2TD/JqHkf+ZZFtfMdPvFS/6ZMB3HGLi5Ewt/Vrh2ffx9teU+jcUX+1X0vsP+07dSgpXcPmQpSlAKUpQClKUApSlAKUpQClKUApSlAKUpQClKUApSlAKUpQClKUApSlAKUpQClKUArlX1flAWGIXu0Jv7P7Ra6rXK/q9EpjjlAFxDqfH+0WtV/3Uugu8Lp8bYr66OLRG0y3sPNV3MQnzjUXHSrBiZwXXwuRVePOSwSbVTe321y2q4rcfRoyS9GWClsZVjyY0+O2DmBvxSQkgAbYOp0YjrapHn82vAcRjyPBHnBdsalHu9raEgewaVF8uBUPqRaC2tYjzyFAjnci9FPQfkq3Y1FI5XijzfFuDK5dd23JW5vF1rllzmVyHfbZK2xMExNp5lY7ut/AVpuKwHnyDmzGxDeowceY3v7auRRwQkuIxu9ut/Z7autnE3K6W91bLl6UouMFSu8q6Lhlq1dje1lyM8mKhHlXUbF2ub30qy3xVrX5CUGxOn2Vk42QJxtJ819PAVU7qUVU9BHiNi7PJF0fOXz/AGcnvGldI+mUF8Yy7+qMNp8LSGubSITGxHxKNPZXS/pkCcbafhZH/NITVrTdiR5j8xffbP8Ab+Uxe6bpydmJb8NdT99aJPjW2l2H6akXdUf/ADjuTu2xrYnw1qPWN4x43H6awl2j1P5db/DVzSlQ7X2z/wCjxf05P8qtvWo7a/8AR4v6cn+VW3rpR2LoPA8R++X/AG5eUUB8PGlrU8ayKZBO+e3oFgflMcKjWeWUBdTbaOtVdlcpgLgiE48m9QxLqoI1c++t73h/6Hk3Nh6T3P3rWm7C/hcuCY0UCUKTJu0FvUNra1WaSvNKiwPT278rvAZ96p3O6u5Y0exfOZgRc9xEXckcwwJHQBb2QbzZXHS9YHc/M8Xl8liyQ4UiBJt0olUKzCy6AAmtj8127h91RgRN6W1DdQSQdr3t5vbWB3fk8KeTxJcSG4WbdNvDartS37Vapt5Nse3sZfsQt/F6amnvfdtrk8vZZkd5c3xHJY0cOLx8kMgk3b5EA02+4msHujN4efDx48PjzjSiMguUCi/k817+6snu3leFyceFeMgZJ1kJZpEZRtKEeLGtZ3BzeDyWNBFjY/pOiFXbY66+XW7MfZUTa9PFOpZ4fp3l0TjZvJQuXH6U3WL+djiiOpcD9FeG/WvSAF/RRQ0nkXUm5H5K0cx6aqSruWJNPp/wiZ075021o4HS6EXvo166cFVSAuiKAqr4ADStL2pxcfFcZtjFjOwZ9b/sqf5a3ddKzDLBLlPmPHdc9Xrrsk24QeWCfMgSqgliAB4k26m1QHkPq5wvHZb4cnF5srx3BeNEKmzFNDu/m1l/U/lOQ4jjYTx87YxkmRHZACdpjd7eYN4qK2uH2p21lYeNlTcXDLNLFG8sjtICzMgdj5XA1JJrY6s5CLPa3evH92O6YeNPjMilyMgKDYNt6KxqTopcgCwuba1Fs/taTCRZ+zIYuNzNxE0iuQGQjp+N6g+LWpLEsqRoJiDKANzDXWw/lqcd4IFzn1Z4rguRyeNn4/IeTGco0nlCMQL+Ulq2naPf2B3lM0GHhT4rKrP6koGwhWC2uCfbUY+sfb/EJwy8pHiquZMZmkmBa7FUWxIvapd2PwfGcTwcU2FjiKZ3lVpAWJK7t1tTao3k7jZc5zmP29gS8lkxmaOJWdkBAJCEDxI/erJ4rPi5jjMflscBIspdyxXBKj32vUU+qG09qZe8XvDL/lR1DuycnvPt/jcbleVylftcDfFjxlXcRI5eUbFRWuV/nUbxoEsDq/OcvB2/w83N5IDwwWBi3BWNyF03W9tUcDzUHcWD/EMdDDH6hisxB1Cq97j+lXLvqse4eT7cn5LCyf8A2/eMSY7lVbcPiOzaW+Ij9qtj29yORxf0x5DLwG2Tw+o6va9mWGGlcWKEg7n+pHHdq5xwJsCXOcFVLwbWA3Lv9vh0rC4n6t8Zy/KQ8WvFZGMZ7gZEtlRSAW1N/dVvsThOI7r4UcxzsAzM+VpjJIxK6pIVXRCvQVte4+0e3uO4DN5DFw1gyMdA8MyMxZW3KugZiOjHwoQS0BXRGDKQ4DAgggAi+tRbuzvvjez2jiy8aXLMjKo+X2mxZS+t2HsqPdh8/wAvn9pd0ZedOZJeOMkeFJYAoiINvQAGq+yON47vLHysruiAclNHNkCJpbrtEcnpx/2RToulRUF7j/q3w/IZ0OAmBkxNOdokfYFGhOp3e6p9FIssaSobh1VxbXRheuZd94vYnZuG9uLWDPYIcaeISSFWk3WN2k29FPUVn/S3nuR5nhM2bMyDOsEEjYu4KCqrK6x/CB0QAUqSSLufvDj+1YRNlwzZN2VfTx9rN5gSDYsPZUcxfrJ2/k5UOIePzomnYIryLGqgnxN3rXdjGPvGbJl7k/8AMWiSQxiXygFJFjU/hbOisRWw724vsHtvjzNn8UqZbxu+DJGJX2strn+0A8annqDoMEqZOPFkxNeKaNZVIIJCuN1jbS4qP8N3tx3Pcq3EY2O8cqI0hkYrY7DtI8pNRP6U9ychyyZuPNkNLgwpIMKJlA2RibYg0F9E01rUfTUbe95QfGGb/LFAdm8aUOpNPdUkHtWM4D5HI/4bfoq/WPyBtgZH/Da35Kxexknvba/+VAX6ySH8prj/ANQovLLJ+yGAK20PnfrXX+3GYcSreG6Q38a5N38waGRG0RnUsR1+J6pS7Ey7pfvViv2kfKRh51ycDEjRChiCqfYRt8K07gpmOCakeXDBjYHHNjC3qIm8nqTtqNZbE50t/bY1Qde9lXkR76w09HZy7HKa/iZo+TE0WVFNEWSRSTHInVTfreuo9p9/ZeL2/DHl4zZjYqOGkLkyFY/db2dKhckcEiqpj3ga+a/U/YaysTI+SiaPGQRJICrhQdd3W9yetXFq4JJNPDkPOXvy5rLl25OEoKMnVZm18htO4/rFk8zx03HcXhScf6oAOSJCHFjc+UAjWo32SJZ+Vnkbc7OyNJIQSbs5JYmr5weMYa4UYPW43/6VbPjXj4n1H46MQtKAHtc3tqPiJqLmttuLjR4ix+WdbC7G5KdukXXBvzGw225bJW/Rzr94qZ/TLGVueSa6gr63lHXoutQjDlM2XJkTEl38zH2m4qX/AEvcf3kQeJE/5PLXPs07+Dptn8p6bi0ZLhuoSdMtij56RO4UpSu4fMxSlKAUpSgFKUoBSlKAUpSgFKUoBSlKAUpSgFKUoBSlKAUpSgFKUoBSlKAUpSgFKUoBXJvq7LbYr6fgjb/2i3rrNco+swQY8J03+ift/tUrVqPdS6C9wpV12nT9dHI4BeBfYb/pqzlwFhuRdb9BV7FF4F16j+WrpIGprjSk4zwPp1q3Gdlpmrgm2fhyiwJ8a9cY7Ne4F/sq3lgepdBpbUCsSZ/SW52knwvrVmEHLGNVXkOVqNZbsJwv5Wo7HLk8BlGLF/2n5hVox4o/bH5qwlyN6FyAqjS19fyVSxBBINbFbktrZR/ELFyLlatwkuXEyJcaKVbxtf3C1a5g8L6jafZV+GcwsQSStrWrJniTIX1FsCNPbWabg6SxT3lW7bhqYO5ZWS7DbHo3nsWUjw7d3nsAE9prqv0we8OzTRHv7f7Q1x+CFlkZiLhCCND+aunfSvIduTnx7+RYCQL6asa324xjGdN6OBxG/dvai33qo4Ry9Rl92bTyLDcQfTXy+FR8G5TxII/TW/7qTdyrt4LGl/z1Hxow95H6a0S2ntvy5/xypTtyqdp4CeDG4SKXIkWKP1JBucgC+731s8bkMHMv8rkRzbTY7GB1P2VAOaGce2Mb5dn9AZD7wgJY9f2QD+1WR2WmM+WXxsmSMB4xJjyose42bW24nWrqutSUUlsW08vq+GQna1Otdx5lcnSMVVYPZLDBk3GfgksBkx3jv6nnHltprrVaZeJLGZo542jGhdWBXrbrXM5ZZFm5gq58xlC28LO1Y/D85NDwuRhSF/Wa5jJ019RW/QKx+IdaNbm69Aj+X3O2527lcsoRp7eLf7pN+7czHyOAyvQljmCxPojBvFeoFaXsdOBOGWkeB8nad4mCAgbzbVq0/GLLlcWcQufUyV2Fj7Wc9a3acXwXa6xw5oEuRKWRpFRb6fiDduceFY5m5q40kmlWpddiGm0d3h3eXHOd2se72yjFelXmMYy9sYfdMZaSE4pVCWCKUB2vu+EW61i9z5nbo5LElwXikRJt0wRBt27VtfaNa1fM8FFJykePw8vrq6As+2wDEFrH0zJWNn9qcpxqpLP6ciydPT3NawB18o9ta3OVGlBUqdOxptK56a9c1lyEnay93JqLlg8WqYEh7w5rt/MxIv4YY5ZVkuy+mV8u23W1a3n+4OO5LjoseCGKOVEZSUQg3Oy2pH82sWHszl5ojIpiA9hLX626batZvanJ4MPrymNksSdpY2sQNfL76hyuOtY7dpu02n4Xa7m3DVSnOzNyhmli3Pc8DR6/qre9o4D8hzcUKqWCq7NYDptI8ffWjYWa3iDb8ldM+nvFfLp/EioDsHjvY30YeJrGzDNNcxc41rFpdBdmn6UouMfakThUEaLGvQKB94Fq9oaV0z5a8XVljLxcXMhMeZFHONComUMLg9Ru9165Zy3aX1CnzGbj8iaHG1Eax5iooXcdtl3i3ltXQe5IOXnxUbh5RFIkgL3YqStittFb9oitCfqTw2EBi5qTHIjG1yoQgsvlbqy/tA1HSQangcnnOxpBL3vkSnj5g0cWRLKcr8Q/iWtGWtpXS4ZEnRJYTuR9VNrdRf8AlrnXcM8H1M47H4fgvwpseRsiR8mwTbtKWBjL63roeDC8GPBjD+0QBSR0uFC/yVK2BkF+sZ/9tY63tczge/yrUs7a04GBD8QkkNvvrl/1e7v47LxhwmPFO2XiSTLKxQbLsq/CQxP5qmH0+7t47n8BcLFSdMiIySN6qhRt3BdLMT4+yoVKjcUfVM27VyfYYZr/AJY63PaEEU/Y/DwTxrJE0FmVxcEMNRY1p/qkpbtLLABYmGYWAuesfhW97PBXs7hVNxaBdCLEeX2U3jcar6mQRQ/TvkceEBIwVNlAAvvXwFarsfKwsDszLl5VU+TV2aUOu9SgjivdfGtz9Tbv2HySqtz5DYan+0X2VoO3eHn5rsXP4xG9OXI3Rxs4NgWji1/NR7QaQ8PznO5mRyPZUkkfGyOxVYJRjJZWs9kJX9qrWTwHe/FA5/MtNPxUHmy0fIEy7T5dY1Zt3mI8K3vAc9hfTjCPCc0kk00Rk80AG0iRvVX4yn7NZPJfULh+6OMy+3eLx5483Pj2QySKoUEMr67WY9F9lQSZuByXCcp2RzrcAsarDjNHmCOP0vxRGu7cCBc++oV9PO9uO4NOS4jMYrPJJlJj2SRrySy+RboCB9tSvsvs3kOC7V7h43JmR5+YLyQMLgL6iADdcCopx3F9v9m587d04YzsppWlikRLgF39WMhnZNQo9lMQSOLtTkZ+B5GXu2IST7HeFpWTJZV3J6ViS1rXP2VZ+ksCRcbzUMYsqpkIultBkygVtM36hcPyePJxWLFN8xmoIYCQtgTZhfaxNrL7Kyewu3c7gsHN+dkRznrK0YS/l9WV5l3bgPB6U5Ac4+nPdPH8FmZXEZTFcjISQQbUdiWaVZbXQEDyoanHFdt8nl8ZzE/d0QyfUBfjfmHXJ2xs24bdxbZ5SNKjvGdvcN2BkNyneeKnITnckMkCmRlMh3Ibu0XRARUjl+qXa+TEeNxkzBNlKIscenHsHsBIlJ8PZRYVqDR/TKFcbmuZxYVCRxvKqqLABfmTYACsD6aNbv2SMj/UzG/+GKl/YvbGbhZmbzM8q+lyBeSFBfcFeb1V3XA/ZrnHaHcOJ2331LPyMUrQelKu6NQWuz3GjFR4e2p5AfQJ6n7TXtQkfVHtlmNoc06+ESH/APyVuOG7u4rnXMeFHkoyi59aMKPiCeDN4mlcSDfVicqL8bk/8N/0Vl1ictb+GZRPhE5/NUS2MlbSvtpf/JIVHjv/AD1yP6g3EUthchlsD7dz113tjzcJCQbeVjXGe+8gvHOxJJVh5fA2dvGqUuzIuab7xYpuuR8prHZ5cPCMkfpFYlAt+0Le01pVseVe4vqdDW6YyHAw5HcuPSUqp6L5b6Vo0YfxN2OnW9ULnbudC8h9A0X3fSt7HKVfpM2wC+CCn4Y6kD3VjSZW07U9mpvpWM8q3JaYXOttw/XVaFm5PYdK/rNPYVbk1FGx8h+Gx+yvRYeArDgAlF4Mhd4123W5+wAmsiN2Vtkq6no1RO1OG0mxq7F9VtSUjNxAGkPhZf5aln0tse4kJAvacA/ctRTD/tHt+7epL9MWKdzwx9QyzH9FZad/W26+uvKUuMJvQaxL7JvxM7rSg6Cld8+XilKUApSlAKUpQClKUApSlAKUpQClKUApSlAKUpQClKUApSlAKUpQClKUApSlAKUpQCuQfWZY3eC486QHX7ZFrr9cl+sBJkgFrWgNj7byLWrUOlqRf4T9+se0cng2jHjt1tqPvqnJZlS3iTVyEgwRKDqt7/lNWORv6akG926fdXGarcPpcJOOnk1zmvMeZNl4+BgqrzZW4IHO0XUbuvhW5i7Qgkk3ZwMjgebzD4iNfhtXnA5UPHd4cPkuQYNzH1W0FxGwP5L1NMx45ZWljtZ2ZrjxB1rtaeKjajJbz5zxS7O9r7sbjdISainyIjOP2jwE+SmNlo6brkyxklgAL6X0qDchhycVyWTx+RoY5DHHYhrgai5HuIro+REXRo4ybkaEaGoX3vnY3Idzu+M4kUTWVl8fJGD+ispJNOu5FW23buw7ttVlFNLZiaaVHXwpDkNFofh+ytywi26kffWLJBA3iPtsKpRupqjiequ8OuW5K5auqvI8PlEGbCbq1wWFhYGp19J9qcrkOCdhgsPb8RqG4uJjNHO1lbYoIJAuOvSpn9JVvys5I8pgP+Ua32suWVK+E4XF+87+33uVtLbE2XdBH8SmB8Io7/feo8Dcr7Li35al/L8Vl8tymTFhRNLIkcQYIL/EGI/RWD/crnh/+zl/IP11rlCbdUtx6TgGv0dnQ93evwtyzvCTxxJeZ+VxuBgl43Y8XrOJEkNtL+7X4qwuJ4nIz+aj5SKNYUiKLIFbqQG8JNx8fCsPjeO7v4tRHBBOUNwV32Aud17A1lHJ74YW+SlsCbn1TW7bRtSwxoUprKrsdNf00+9cvTd2MG1J1alFvFooPD5qryhCiz+ptO4X1dj7Ky5e1VbmsNkiHyt/Opc3v6bff1qiPM76C7BgObe2a36TXpye/Nptgut/ET6/ppSO+LfLgYO9qk5UuaaLcZLC/B1zRSrg9qoYiYc/ETSZboFxoZA1gdx2hrdOvjW25ztl+6sxMzGcGGRiXLOqN5E2CwYHxFaXlcHvjl40iyMaURqCCnrBgQ1uoJ91auLtTu2EbY8eVR7BIo/zqxfq5G10G+1lbhqJa2zYvxrFU+sWRqmNHtJV29hcdwPJ5HF4s0hnkMLoWta5V7+ZbCtlmNmcfxUp5iUSeqHGOVKsR57/ALFv2SKgC9mdzF9z4j38X3oSP8arjdn9yzAGSCVtvS7qQPD96pUpJUUGttDK9pNJcvK7c4lbk5KLm3RycoYejJP0TpEeTJFzceHuAjtcC46lN3WtJByLZ3B8t86+4xttUDTTf7vsqLJ2h3IZNzRSj+dvUkf41ZWL2HyjgpKZYlc+f4NR/WqfrJJrK9/jK/wfDrS7yWutuUXbeZLGsJZmtu8jeHx0nI8mMaIC0k20m9tGY12/DxYsHHGLjjbGCTa99TqetYPC8Dh8NjRpCimfaFkk2qGJGupX7a2tbrFru067Wc3jnGFrpwt2sLVnZX9t8tD3woLUNeCt5wz0Ej4Taopl/TbsvkpmycrCZ5mJLNvcXLEsf2vaalVL0BpuC7U4LtlnPDY3oF1KsdzNcE7/ANonxrdKzIwZdCDe9edaUII9mdjdrZ+TLl5eAHnnYtK/qSC5Pj5WFZXDdrcD2/K0/D4gxpWUozB3a6k7redm8a29Br0oCxnYGHyUJx82P1ISCGW5GjdfhI9lXMeGLFgjxcddsEQ2xp1sB7zrVwivPGgLGbgY2fjSYGUu/GlA3rcgnXd1H2UwsHH4yP0cMFEvusTfW1vH7KyD7K8tQGl5rs/tvuOcZfM4xnnG3zbmX4V2L8JHhWPxvYHaHEZ0fJ8dhmLMhv6Um9za4t4sRUjFOvjUMkqZ3baGN9osvuArTcz2rwHcThuaxvmWW23zMvwjYPgI8K3Fea+yhBGsP6fdn4GVDm4vHCPJxzuhkEkh2m1r6vboaktrAKeigAfYNBXoFKnYSazmuA4fuGMRc1ijMjBDBGZ01UWB/DZfbWnx/pv2PjZEWVBw0cc8Lb4nEs52n22MlqlX20pg9qIPIlWCNIYRtijAVF62A6DWo5P2B2hkznJn4/dKwszepJ7b/v1JL6U60BHIuwu04NYcHb4/HJ/pVssHg+K4wk4UHpk9fMx8d37RPjWxrzWgKhWHyuvF5v8AwX/RWYKxOW/9Iz/+BJ+isXvJRX2qgPCQseuxq4j3yNkc1vhMg3n3FnvXa+0yY+3oSR1WQiuN953HHZMj6n1dFPiNzVSmsGy5pvvFn+5HylnkoIYOJ4h8e/4mMjSX9uwVEZgXzHA0uamHLTYsvEcMuOgSRcRBIFUi52jW5GtQ6W4yZA+h6VSuY3ZU5Ej3ulbWhsV9ab/ikVJHl8hn4vD4FhLluIWuQB5tB5jcDUV0TiPpNwqwo3NepLmsoaUB1KAk3FigWor2dk42D3Gq5EyxNOsIiLkKSfUb4b12jGYOA6tuDKCGve49tdCxFRiqJHi+I356jVXHcbosEnuoQDmPpXxuHjPmdtB4eSjsYWaQbetiDvDDxqHcfJmZwzcbOC/M4DMhZT12+Qn2HzDwrv0RRXDyEBF1Ytotv5xPQVxselldzcycQqVjRzL6ZG0f8xJqTU6i2p2pVWKMeG6q5ptXalbbo5UaxpjgYvHMdzxt1VT+mpb9L4kPckbnqFmt/i1EE0zpx7CdfvqYfTO69zRC9gUm0/q1xrKpfguSa8p73irb4bqZVxlYq/oncB0FK8HQV7XdPmIpSlAKUpQClKUApSlAKUpQClKUApSlAKUpQClKUApSlAKUpQClKUApSlAKUpQClKUArk31flVjFFt80cPxf0pFP8ldZrkH1icrILW0gFv661q1Hup9B0OEU/ENPX1zlcGsYI/6a1RlJeOw6g9aqx7mNCPvq81cabpOvQfTrMc1hrlr5TAjjhzMZMcP6ObAX+VlIuPxLbrkkbbBfYa3L94cZg48WLmxTfMxAJLJGm9SVHUNdeorSZOIGN1FzbpWJPHPInpTAlQRYW6W+yuhp9UlFRlsPIcW4Fcled6zhJurrXK/MbTJ75xvgwsaSRzYieT8Ii3UWs1ROOMmVst9ZWYuD4qSfD21sXxWcBWViB0FXYsRrj1fhHhetlzUxa9HDlKek4Hf7zNe9Jp1jSuVPlbwMTdkTfDoPYf/ALVSYcq2raf9PdW1VCnSqG3nrVZXeRI7kuHVVblycpcxi4WPksJWE2xVALJ13jXSpz9JXLcxk7RZRj6L4DzVGsVITDkM/wAYX8PXx1vU/wDpZxMMOHHy6Fi2SkkZuRbySEdKtWXmtybPM8b06s6mzFNusW6smnbTFed5Mo1mti6jw8ktZGV9QOMxOYPAzCc5fqCHcFBXcwDDx99YXa1k5nlAT5j8ttA1/YlrUctwfFS9/wAGZJj7slsuNt29h5hGvgDardrCEFy1ONcXpSJ9yXLR8XjfOZMjCIELcW6n7SK9lz4IcRs15R6CruZty9NPfbxqM/UXBXke1pMRrhHlQ6dfKQ3jWv5ns537byuMOdL8kkCvCQsJeR5dnqo426Bdi7a2PeYchI+Z7p43hONh5XM9R8eff6QhUOx2C503CtPi/U3hMnaYsfPF72BxiOn+FUW7pj+T7a7PiETZCY2TKrQgEs6oAtgE81zb9mujcOeNy8dZ8bEyMU3YBMhJYm00PllN9aAv8pzGNxPGPyuUJDAkXrMI13Pt0Pw3GvmrX9u948V3RLLHxi5A9FBIzTx+mpBbZ5W3Nc3rY8tHHPxObBMLxNA6sLkaW91R76bYMGL2nhSRLZpDKrG5IsJWNFtoHsJepJ8t+tavnO4MHt3GSbNWSVZt4CQL6jDZYnctxbrpWY/zXzEYiUfLm/rsev8ANtUF5TNmwO582bOgOdhySIIIscNJJCFQbjIuPZ13eG/7qAkvb3d3G9ytIvHxZEJjXefmY/SuN2zS5NZ3McxjcLgy8hmbnSFS5iSxkYAhfKtwT8VRnguR/i3c+PBi4D4OIiu7SSrKjSXjK7FE5PRtfLr91RyfuN+V598rkMGTKhwNqQCCKVl19RXDNHrfQUqKHS+N5KHlOPi5KBHjimUuiSCzgAkaj7q0c/1B4rGG5sDIcXtohra8NyWDm4kQgAglC+fDbcHjBJC7lkJcX99e5cHC8dB83mwhIkIud8mpJ8AGqQWuC7l47uSGWfBR4VhbZIJQFIPt61g53fXE8fmS4MuLkSPAbNJGm5T9hBrG7W4AYqcjeFsTH5BgFFyzWDM+8B7nUMK95LkOD4hxi42NJyM6sVnjhWaVl0vdlhPludKgEiy+Qhw8Js9g0kSWJWMbm1sOg+2o3N9RuFxz+LjZYXW7eibC3tJIradu4XJYnGiDmCDK0kj7QV0RiCmsdvCsfuaPj2wJeIGM02TyUbQxRKZCATaxkKnyA+01IL+X3ZxuHw2PzjxztiZJARYo98mv7yg1ok+rXazzpjtDnpLISEU42psL9C9/CpJwnGR4vCYfHZMe1Y11iDHy+NtwN9KiPIcRgQd2YvJ87D8ssar8hOjs0Q2hxKZnvZPiXrUAmPI85g8Vxi8xk7zjvF6yRooaUqFD29O481j0rWdt9+8F3VmyYHGx5ME8cfqn5uL0VKghbKSxudelRfnuRwE7sxIeWyUi4xJ4TAzELdTGhO1upuK1efLzD9w8Zy+Lx3yPDNI8Uby7xKZFx5AwMc5LAX1BpUHS+e7k4/tyOKTOSaUS7iq46eqw2WvuAItfdpXnb/ceB3NG0uAssIUElMpfSY2YpoCT4irXJnhuPVeT5OTbPPBGkMVyDJ6QuRGq2LEeprao1AnJ8zz2Pncbhth8bBLFK08isrSotlYWyL+y421NQbTk/qNwvEZLYuTh5UkigMWSIlbN01v7qzuA714juaSSLjYpkMW3eZFAF3vpoT0tVfcXEHM4vLOBj7+RZVGPd2AJDr1udvw3rR/TniuO4jEzseON4M58ky5Mc25W1AXcit1XcrWNRiDbcv33xHB5kmBlYs88sIVmeJNy+YbrAg+FbnjuQxeVgXJxj6cbHbZ7Ai1jc6++oLn5qcRm5a8lxEmYxmklTIRZ2BR2Mif2BC6LUY7f5/kc7hucyoE+WSPHmMShNFcTQgH8S5OjeNKkk/z/AKicNx2UcWTGyJWVmQyIl1BVipN7+6pHgZ0XJYOPn4wPpZKh0B6i/gbX1rmseRhcxwcuD2thryfKyrsy3LyKsUrIoubMEF3v10qTfTheQxe3vleSQR5eNl5cc0QsVUpLbaGHW3tpUgkCcriPyJ4tH3ZIiM5sQRtBt4HrVnneexO38ZMvNjmkjcsAMeMyN5V3G4FqinEcHjcN9SmONLJL6nGySEyKosZJLkDaBoKncgjeyyk2voASNT9lCSEJ9We2HmWD0OQWV+iHGs2gLdN9/CpTmc1h4XH/AMSnD+kU9RY1W8rCwayx3BJ81QvO4p8bvxOf5qP5bBWBIsfJVy0QlCMv4j38o2k9fGsnvbk8HC7s7ZkzZxFh+V0ca30NyD16WoQbnhO9uH57Om47FjyIJoEV2OVH6KncwQBCzanWpKF8NwA/eY2A+2uMd4P3BncxxnM4OMsfByZkS4k7f2kgiAV2MclyFNrg+NTruXnOPhyYu283JGGctYmzchxZVx3BfSR/Ju3oNKEkgw+RxM+SePFk3nHYpKQQRcHboVJ9lZd65j9K34LBzOdwePz1yGln9QbioLFnZRt22ve1dNvUogqFYfLkLw/IH2Y8hP5Kyh1rD5mw4fkPYceS/wDVrGRKHbD37bxTbRlb8lcg+oEWzGm10uCF9+5ta7D2pt/u1jnwETEfkrkv1FEaxykXDmJTbw1ZqpTfoy6S3Y+8WP7kfKa7kNq8dwqq24tiRk+7QaVE8sf8/KT0B1qU5kSR4nCyJjmFmxI7sd1pDodw3fyVHpFWblpVkGhYllqjcdLs+ZLyHvtIs2j06W+UqV5czNXnwTTSQ52K/pz4nmVvEW1Xb99T3tv6scfg8fj8bzWNkHJx0ET5EYEm+xsDbyW0qNSYTIQ0Kki97VivxuNKzNPAxc/EQW/XW+xq4KOWVcOQ5HFPy7qLl53tNlWemaLbWPNgTnuH6scdm8XkcXwcOSMzKURrkOoTat9zfv3+Gox28Mrh4c6fMYS5PJ9WU9Ij57MbddxOlqxMTDxcSQTY0JWZfga7H817VmqJZWJlFh7vGmo1qyuNtvpZPCvy1ehfhe1bjSDbypt7sHuMrFu8zSHQOens1qYfTn//AKiAfzZf5KiOOLNYdALVKPp0wXuzGAHVZAb++1c+xKt6D5ZrynoeLQpoNSlusy/lZ3YdBXtB0FK758tFKUoBSlKAUpSgFKUoBSlKAUpSgFKUoBSlKAUpSgFKUoBSlKAUpSgFKUoBSlKAUpSgFcb+sIPrE309BNP8Na7JXGfrKxXIjUdHxxu+51rTqFW1JeHqL/Cfv9j20cyxT+CPsq6x3a2t9lWsXWEfZ/LV028a41zt9R9Q03uqvc35ShlHXqRViT0ydSPzVay8sxG0JsLeY2rVT5UgXfcanx661tt2ZSxKer4lZs1UkbUtGDbSvGFgPfWnfLeIgORc6+XWsqHNZ9oY3H2VsdmSVSpZ4pp7zonju8Jl1bY31NVEnW3SqGPhWKLMngXsfaUk3Xvby26ePWuo/TYvHw2DGV/DUz6a21dq5jgxl95Ntqi5BP211D6cSiThcUXJK+sdfe7Vd06+rkeO/MLT1Vnmt/Kb3tpNvN8hqNfl9R/QkrX568q/eceemI5w4MpH3bZPMoVVNjt2/nrM7YLfx3OjGoPodf6ElTgSz7Nm9tvQAdKvW16EHyHn59uRpe48GTkOMONCfOGDagkfmvWXmQGfjZMdfjaNUB94t+qsyxXUaGvOnTrWwwIbzPAZk+FwRjCSHi8mTJmiYN+Ip6L5VJrMg57ldwUcWQuvxeqLf4lSdTIGJBt7/GqvXlkYrua/5qA1fNNkDhco40QkyGgbah3WLMBp5QT4+ytJ2A3J4nEQ8JyOKkbYgd/XT1POXkZrWkRegNS3UW11NC5JJBYn8tKYgsTRTO8bpKUSO++MdHv0v9lRfJwM3huV5Dl0hj5VOS2bMafeBD6a/smNX+K9S7UDUEHwuLV5dr2s1vCwNqMEc4eTLzOVxs+XAi49MPe+yL1D6u9DFsb1FXQbt1ak4U/aEkscHHR8yM5jKXkVwYyCTt/DV/3qneum4G3sNA7JqptUUBF+3+Ky2z8juSdhjryKxheLUHbB6Pl03BT5rX6Vn9zYMvKYGPjQnbtlLyixO5djAA29+tbkm7Fj49a8AYH2MamgqYuYJ4uKlbDA+bjhUQLqPOth+yC35BUD4vkOSwJciXK4R8rMldxJOUm1/ELLZtmoArpABBDDRh0Psq58xlDrKdPsqGDVcXl5GdiCfKgMEu5l9N9wNh0PmANW5cJ35v5s2aIQRLGGB8rq7lmH3EVtXZ5PM7Fm9pqkXta9SDX8sc+LGWfjwryxNdoXLKrhvL+wrHS9+lRTk15vvGP+FthRcaljG2Yxl9RN/m3xhowp+DxNTw3Go8reBWhdm+I3oCAdwdj/ADWTx3IyenmjjzG0uLMpKy+jEkVvKCfPsrMmh5XuF8ODKwcfjsXDkef8AyuzFo2i27ZI0H7V+tTIXPTqfZXhZwBvBGviDalAQTurE5t+fwJ0xoc/jsSGMx40xlssnmWQgRxsBuG2+vhW24TmuWkmGJPw+Pi4ybV3RtNcKTY2DxqNB76kykgeW9qHcbj8t/ZUAiuZm9wcDKc+K/KY0lolxpGkBVj5i9o0bpa1V8HDmclyM/P5MK4CPHHjfIpvsxjZ5TKfUVT5vVt91SdVAUInS97V6TfrraiT3k4biM9w5uSJH4+DiUyWyFEKZjCS8ZdbBzsRh5L1Ti9mcficJlcRjBFmy1KvkBAAN7I7DQ+1Kl0azhfIwAbwvarJUpp0+yhBzHh4MzsaefDwOKfKfOlLvlxxyKFsdouUUjwvU54DCmx8MyZJtLmyy5rrqNpyG9T0zusbrW7WacLYSED2XFWmJY+Y3N7/AH+2poDneHmc3P33DysmA8eI8BwGDLKLAMx9W5TbbT21MOXws/LSLIwMs4z4bHIeG5AnFtImsCbXrbtLOw2s5I9l6tW1vbUdDUCpAeQyuc71xX4GXj14mPI65v4xaPZruUPGq3Nrams3urtH+KPxHJMI8puDjUfKTqSmRtVUsSoJG619BU0d5HFpCSPEGqb6gjqOlKAgxxeW7jhwuPnwYOKxOMlEsfpGVrqPw9irJGo6a9ak/I8BwnLyCbksGHJmCrGZZUDNtToOtbNndh5iSKpAJ0FSCI9tdi8f2/yebnQpGPXsYQke3aVdnH5jUur07h1r1VLdBQHg6e+sHm9eHzx7YJP8ms6xBsdKwuZ/9JzvH8CS35Kxe8lFXa6he2MU9fIwt7dK5P8AUjYQ5sReJQbDQeZq6v20b9s4gHgWB+69cs+obAwT7+mwXt/SaqUuzIt2Pf2a/aR8pqeRyvmcPg4lJtDiRpqb9ANajYBHMzgm9mbX8lbiSGWLF46RgAGgQxsOpSwIB99acH/zORydS5v+SqF2ve3PZXkPoOiS+G0tNmeT/jZtAba08vWw1rEmygtlj1Y6airZllIu7hT7LgfpqrC1OSwOpf1dmz7ySRnhYx5lUXHsr0/Za9Ya/MAbkdWHuIJ/NV6OdiwSXRjbbYfppO1OO0WNVZvKtqaZl4/9pr0/+tSn6Zr6vdkRP7CTMPutUVi3b/L996lX0ycJ3ZDp8STLp77Vlp/ew9uJT4zX4DVtfYy8h3UdBSg6Urvny0UpSgFKUoBSlKAUpSgFKUoBSlKAUpSgFKUoBSlKAUpSgFKUoBSlKAUpSgFKUoBSlKAVxr6zf+Ig0/1H+etdlrjH1icNPGG8IBb3eda1aj3Uug6PBv8AkLHtfIczxf7EAeyqM1tkQ1sSegqvHB9FTe2lY+b8QJ6X/krkUTun0hOS0raMaLCy86RMPDiM+TKSI4h0Y/FYn7BWVj9nzeo3zrMNvW5RhuPVfu6Vt+1SMXnuPlLeYyMRboLI3j99b/JQAMxPxSOSBr1YmuzZjGNuLW1o+b8QuSva28pywjKiRE37MxMsCCKUxE9HARPedTaodJHNg5s2DOCkuO+yRT4W6V04syyLY2uDXOu4H+a7j5KeO231rsb3v5QPD7KmazRfMaLTdq7BwbxklQzcaYugW/Tr+Wrp6Vh4Gpf2gD9NZh9grmTVJHvdJNz08ZPo6j1dBcaH211b6bRbOHxmHQ+qL/8AWNXKBqpANj7a659Ob/wXH1O38XaD/wARquaf3T6Tyv5g++w9hG57ZIk7iygAB/YCw/oSVgcryXceZ3JkcZxrIkeNKqnfk+iSGUW8rMAfsFZfaRZu5stugvBp/gS1gZfa/Jct3nkZuJyZwo4chJJVUXMi2C7dfZarluuWK5jhT7UukkHF43cq5iy8gFGNYg7cgSa2sPLuNY2e/NczyDLwxtj4SJ8y3q+lrJutoxF/hqUQRmGJYi29lN950vc1p+2jFHJzJkIUsIdGIBNjJ0vWe+hgUce/M4UkePnQl42IV5txk2j4ixIuK1cY5nueVszj8iTHwSNiNFL6d3jO1hscipRJnYx34we8jrtUKQdSNL63rTdlKMfhRAzhZPVmNzp1f31O8G04l89IRhZ0dmxgEGQSWaW5Ny7dDVHPRZ0vHuuBK8E+5Crxvsa19ddKzYsqKeWSKM7miIDkEEa/Yapz224rsxC6r5ibePvoCIfTXP5nlsDK5Hlp5ZduQ0UaSytIto7qfjJNYPe2Z3FicviYvG5WQkXI5BhRUmZAg2ofIFIHU+NbT6Y7D23OYyCPnJ72sf2vdWN3k8a85wReVF25hsGYAjyp7ajcgbXicLluBz0xuUzJ8xcwNHG2TL6hVkBmutibGy2qQvlY8c8eKzETzf2aWNj99YHNyq/O8YkcgltJKfIQ1v8Al31NulZUhxPncf1I75X+pe2g09t9KlbAXcpzHjyuPiRWYfaBWo7Q5DJ5Xt2HPyv/ABDTzI3mLeVG2jVta2+Uu7Fnv4I36K0X0/C/3ahVmSMieclJGCn4/YaioL3H5eZyEvMYyaPBDCYDuIszvIDqemi1AOMg745Pm+VxGZliwnaRW+a6oZCBfc1unsqf9vgJyXNdApix9R0Pnl8a1XbGTjtz/ciCRQ3pWsWUf6w++hJTndzSzdqy8lBZchJGj2gsB5CFvu61KM6ZoeIXJW3qHEjl1NvMVB61BYeLmzO0MjHxxZzNKQCD++PYDUl5LlcabghFFuMiY4xyul98aqDYAk0Bn8HlHJ4SLMnaztPMhubiyOVGp+ys0zxDq6j76j+Pw2bm9sYWDDyUvGTerJkGWFAzFZCWCkOV9tYf9zea9UOe7MxkHVDClj/j0IM7ucc3lwLgcQHiGRujfNhcxvErKLSK1wLg1HeF/jPa/JRycryk/KxZQaBYMrI9cqwBl3rGjMb2W1/ZUj5zuKHgcWHC3evmzL8vEXZUvIEHmbUnW99BWq7b7On47k1z+e51edKKfRgkKHY7C29SrXvtJWgPO7YOb7gz4uI4fJlwlihSaebFl9J7ZBO29yAdvp6VHOze6Mrhu58jtXkMx+RfdFi+tkSNMyu76kFSV3C9q2PNcjy2P3t/DeNdccZ2NjRnKkkMSx7WmIK+VgbfbWBn9uY3DdycDlwNHl52XyETZ+VjjeW3bZCZGUnQN46UJJL9SuZ5TheCeXjYyzNIqPMjOpRSrNu3R9NQBUuhYy8bhv8A62XFhdj47mRSTeoz9RhEvaOcZmQXsAHYA/EOl6keJJGOMwpAwkVcaG/pkN0jXTSm8g5n3bwPcWM2Xyg5SeCINJNBGuSqg7QXCbd1wK3HbMnN9v8AbuRz/czMTGHtG8pnG1jHsaylm6XqT52NxPPYUkWVJCAfUjCTsgZWAMZO0sKhGTyOZldr8twGXvyJ4YmnTLF3UxiSONIhYdQKA0nLx9x5ONk9zNnPiYkXqNDH80EDqPxhZGYN8LjQVOe1ORl7p7NhMUxXLWKXFaRWIJaIGL1N79STreoV2rBJ3bgZGPzMwxsHipSTiynd8wpURsm1/TtovganXYGFj4HH5WNixhMVMrLXHUCwCer5QBrp99CSIcr2h3fxnGz5UfLZT+iu8FstQSeltGvUp4/I52XsvjjjxPkZ8wlhmkLNuXaSqvv+7rWVzLycvykPbsLmBHCzzyjUNGu4NGR7zathyHJ4fa3EqCoWKCNgkSkIHZV3N8R/aOtAQuHjOY7NnHOchzWXyEGMC02Jk5AlBDjaPwkYs1ifZU7m5XExcFeQypFigaMSszaWBAY2HXTdUQ4vgczleRj5zn+YinwGBjk4BnV4nCrtVyzFD183w1k988dzGVPxR4aGGXjIdwzeNlkdIpo7KFQ+nHJpaiBg9t905/Od58tizK0GFFHEcJbyBXUyBEkCPp+IvmuOtbTuLKzudy27Y42aTCmCJktl47mKUKLqV3EhbXqAdv8AI81B9QcjdxyRAjExjjK8npxRxuqrsYxAkWHiBW/5rI5HG78TG4+X5c5eMkJy5mMKJfdIfNZh+xalQXe1eZyeF7h/u1nchJyUueY0jknlMzRku0ZClSVU+XxqSc9gc9yOVJBjTy4ONjNuWaGb09+0bSGuQLeNR+btrF4zuntvNgyI8vIlylfLyIAGt+0VdlJ03Em5rf8APc7JlZ8/b/GSRRZJPpzTzTCP01lHp+ooG65UtextSoMrhszIhyF4fJkbJkZTMMhmMmhsAvqC6+FbLlAG4zMU/wCxcfmrE4biRxUISfMTPywTbJUgttIA26H3VmcmP/LMs/7p/wBFQ9gW0duDb27AEJ+J71yj6hjdi5NtQEBP3M1dX7aJPb8IGn4jjSuVd/gjAzSAPhsSett5qnLsyLVh/XWua5F+M0/IyMeK4XQ7VxowFN7fCPNUTyCfnJdul28KkWSMkcRxjTSiVTEgis1yg2Dy9NKjrkDNffrZjf31Qn72fQvIe/0v3LTtetL+Zlt0zsrKg4/jIWnyskhI1W4O9tBqKm/C/Sh8mBJ+4J5cfKkF5IQYpNpJ0XzXN7VpeymTE7u418l/jyIjEdBbzMeptXbyyyTyvcEMxZT1vc9RXRsRSgsDxfEtRO/rLmZukXRI5R3D9L8jisZ8/t2fIyZ4NrLB+HGGvcN8Fj41osOXIz43x8mEx5uFpIjA3sPITd+vnB6V3sWYa9PGuRZMML91ZS4m0KYyJ9uoJ+Ye+616ai3GduT5MajhequabWWnFujdGulGuwyQdjfEpNx99S/6Yn/3PETp5Zv82okwEXI5KACyyMunTqKl30zU/wB44ul7Ta+NrDSuPZwvRXz15T3nFnm4bqJbM1hvridxGovSg6UrunzAUpSgFKUoBSlKAUpSgFKUoBSlKAUpSgFKUoBSlKAUpSgFKUoBSlKAUpSgFKUoBSlKAVxj6wx/jpIvQQDdf+mtdnrjP1hcrLGltGgH5nWtOo91I6HB6/H2Kescxx9Y11vYaireagKCw1vV3G2mIAdba1cLe0X+2uPJ0uVPptuOfT5TI7eggy21Ypmwt/y1rBfODfcW9wqQ5ObhwljOzB1sr7VuLgW0qC5MMiPvhJXTXbpVn5ydRtkLSf0ya6djVLIoyVUjxnFeCXHfuXrTyuTq09lKcpsOZ7pxoZfQ4tTK4AO6ZGFj1sLG3SokiyNI7vYPI257dLmto7tIxKLtBtcAHwryHFJYMy7bG/Ssrl+NKLAq6Tg953VK56TWxLYuepcxI/TXd7Rb89XibVWQANOlW2PhVFvM6nrI21atqC3FL79pIAKn4r9a659N8lZuKjiH7Akb8shrkTozI1nK2Hga6J9LLeqwU+X0m8o6fGau2PdtHj+P/fYex8pMu0mJ7jyT7TCPyJLUrXAx4suTLW/qyNc+y4qHdqMV7lyD4Xh/yJanR1LH3mrtrsx6DhT7TGtanL7dwsyb1xmZOC9gGGMI2D26FvWSTp7q21K2GOw1WH27xuBN8wjyZc+hE89g1xqDaMIPzVTL25iyMZIM7Jwb9UgEbKf+1Rzr1rb15SgMXA43F41WGOCZJABNO/xuRezMB5b6+Ar3kcFOSxDhzMyxswa6WvdTfxBrKvQ0oDTdt9t4nbGLJh8buEEshlZXIPmPXwrD5nsfiOfzUzM9XMsUnqoVYABiAPZ/NqS0owa3D4LDwMn5pNzTWKhmI0v/AEbeFZ7QxtKsxX8RPhb2VWBalSBbcrKehFm+ytO/bmFu/wCXmlx0/dTaRfx+NWNbilRQGHj8ZjYsMkETMPW0kk03EDp4W/NWng7C7exczI5CHLy48jKO6cr6ZB1321Q+NSSvD9lGhUt4uNDgRehirsiuTa5JJOp61gpwPFRT/MpEQwYybLnbvJuW9utbOvLUAGgFtAAAB7AOgrwn769AJNR/k+9u2OGy0wORzSmVIu5YkiklNj/w1b2VDBa53sriO4syDPzXliycaT1oZISuj2C6hg37oq7gdn8bx8wnhmmeQAi77Oh/oqKwj9S+z1YL81MdbH/lMn/9Oq//AJM7MEmx85owRo0mPOgJ62u6AUVBibDme1uN510my1ZZ409NJEaxsOmjXFVcR2xxnCnfCrPKALO51BB3A+TaK2CZuJJi/OLMi41t3qswUWsD+1b2ivcXMxs2P1MeTdGCR6huq+U7SdzWFrjrUg1fcna+B3ZjDD5Lf6BYMQhCm6ggake+s3ieLg4jC+QguYlOm617BVQDS3gtWl7k4Vs04PzkfrKocljZLH/eHyX916v4vLcdmwZGXiS+pBiXE7hWsLdbaeb7qA0+f2JxXI5T5pnngaU7nSMptv4/GrHWtrh8LxmBjtiwRb0e+4uTcg2JB2kfu1bwu4+H5Kd8XDmLzI2xlMbrru2dWUDrWVkZ+DixvLNkwqIxdl9RS3W3wg3oDRz9gcBk5HzIyMmDW7wx7ChJJYn8RWbxt1rfYWFj8Zix4WECsUPwsxuzHxZvefdWHxvcXC8sJvlsyJWgbY6sfTN/cJNt/urDzO8eDwcl8WTIDvH8RVHcf1kUigNsvGYqZ68iL/MBdl76WOtYXcXbPEd0wJicvvEUZZo2iIDAuuwnW/hWRx3L4HLL6mFJ6gF/2WXpa/xAe2quT5XjuGxTmcpOMbHUMxcgnRBubRb9BSgNHH9PeDimWZc3Ld1FgGEVrWt4RipRADAiohICAKPeFFheow31H7LUB/4hIF8CMacj80deJ9RezpFZlz5SF8flp/8A9OmAxN4vE4a8jLyyhvm5godiTbyfDp91YnPds8V3DFtz0YyXUhlJHw3t108aucN3Fw3PB24nJ+Y2AlwVZCAG2ahwPGtpRA03Cds8XwKyDEQ3ltcsem3p8NqwcvsHgczlsjmnR1zMkBZWVtCFtbQ/ZUnpSgRr+O4XB4xg+Nu36i7W6G1+n2VkckP/AC3KHtjf9FZIrH5IX4/IHtjf9FYvYyUVdrqBwUYH+0k/TXJfqHuHH5YXx0P2bmrrHbq24NF9kkhvXH/qDMxwMhL2JYG19bbmqpJYSLWnxvWuea8pqsrGjg4bifSJvKkbuh6XMY81RjKumbJf96t1H82cDEOQgSIInoybrknb0t4aVqgnq8o6P4seutUJv62fMl5D3ukTej0yX7VyS/iZiZ0mREYORxW/GxDvW4FrrqARXSO0fqRxk+BjY3Nu6ZkKBH9GElTtIUa3t0qFzYrxgiNNyMPMP/tWG/HYkzfiIIr/ABWTx8a32NXFRSluOPxTgF93pXtPjmxcTo3dn1Q47GwZsft93bOcL6bTQkAXJ3G97eFRHt2WbFg5Hk8qz5WfcofAM34vRbW1bxrBhwePxyHjjR3GgOwXHv0rOtJMy7gQigADwtUanWxdtwgqVHCfy7eWohf1TSUH2acxfxN0uQ079Xbc39K4vUz+mIWXuRG8VE2v2WqIYwCuANALfpqWfS92XuNLC6t64v8AbaqGndb0PbXlPR8Yj/t+pphSy/IzuVKDUUrvHy8UpSgFKUoBSlKAUpSgFKUoBSlKAUpSgFKUoBSlKAUpSgFKUoBSlKAUpSgFKUoBSlKAVxb60aZmMLkXx+luvnWu01xb62Ovz+En7Rx2/wC8WtOo91I6XBlXiFjpfkObYwAiB8SKrb21RjawgewV7cAXNca522fTdN7peE8IBOovWO8UTHVR95qjKyTEdq9SL1rZ8zbYyH4jppW23am8UVNXrtParG5R9NKdZshFCp0ArxrdLWFahc5b+U6/ZWbHmCUBH69L2rOVqaxeJWs6/TXKxg1HkpSlekvNoLeFWmqsnSw6VSelQjbPYUEgJJfXTpU++k39o3/Cb/LNc/eMOrNexXpXQ/pWoXIYKNBE3+WavWPdM8Xx777BfMqSztZw3cU1vFov8iSp54muedp7f7zza+bdFp/gS10MjzW9pq9a7EThS7TPDXtRLuvuDl8Xbi9rRRT5wYF1ybovplbk7iQL1e7Q5XnM7GnTuiOLH5AOBAmMd6FCOrNc2NZmLRJ6aVDu5Ob7tgyDD2th4uUqsVdspzGQNo6eZf2r1s+2eV5HkMf0+YjjizxuLRwksm0EBfN9lBuN7769p7jQAk2H3UCF6VGT3Uk/dUfBYR3QFUMpdSrAujvoTp+xW55bkYOKwnyJWIlKMcQBSwLqOjW6DWgM03GpBHvtS/3/AGVzfC7y+oMWUJu44cROFsQ5hIdw9vLYL5virL77705XgjgR9sem7ZqOw9dbeddvt9zVFRQnhv7D+Smt65ngdx/VfIlxmyoMIY0pQy7ZEvsbU2HttU0flJo+44uH09J0DMba6xl+v2ipqKG5oL1p+e5afi8nBgxwpGUXD7v5oFrWqC893x3tFzj8TwGPiyInpWaY7TeRFPiQPiNKg6lSof2rm9/5vIr/AHixcSHjdrbpMeUNJvHTy3qYnrQFUWji+tcsj4nA5P6kRfPwJPGiwDa9+jLP7CPZXU4tZFHtrn/Gog+omwk79uMV/qz1DCIZy/1G7Q4rmOQ4xu0o5hiStD6vrMN21tt9tjasjvFu3uY+nw53jeKjwZ/mGQEEswCHYdSfG/sqH90dg9y5fc3KzY8MRjmypGW8yC4ZyR1NTPneDzeE+lvyuaqpIcp7hHD/ABPuGorFVx8RPIbzlYeUye2uKi4+QqjiRZ19o9OHbfytVfcncknBcPg8Bi4smPLkwpA3IxX2o8sKs0pDLbys1+tS/tpAOAxmPwLYub629OOonzWVynd/MSdt4O08JG4inlJ2TBZB6U9g/WzXtWRBjTduYHMcC3H8PnoOcVvVbP2ruMZIX07LI3Qn2Vqe3vqPx/FTN25NxkrxtJ6WZkRnchK/hM7i2lyl+tRLjMPlu1O9xg9sFXmaEaT7BowLnW3tQVLO4O1s3tJEbDUSYfNoZeaaRwWW9pH9JVt+05qKknQMDkey4XTLxI44J5wrswKhtzHfreXreorzfY/cZyJedTmg+BEoL4ZUAP5rfFr+8K1GR9J+B5Ht+Lm+Clm/iEiPM4kKKnqBS1vOOm+sOfn/AKqvxUnDNBhejIAGcMm6wt77fs+ylQR/Bk5PunuROL7bkXhWiZcbKcNuEknqMvraj3dK7lw3aPEYPGw4nM4cXJcnGlszOa49VvE6GuFdtYfI8BmZGY4UdwyS+thxXDQswYldzDQee9dF4r6g85xzE96wwQRsv4DYoaUlyQRuCE2G29RGj21D5jfdsdy8Hnci/EcfxZ4uQCUjddQ2whTbfY+asb6rKG7eiR9VYzqw9o9OoFlTd+8xz0HcOHBjA4pHy95FAITft3B7no9TLv6TPyOyeKl5JUTNcS/MrGboGEdjtNZV3Ax+78rtDsrhMeWft2LOeSREsHaP40L3vdvZWB2H3J2d3dmS8XH2vFhO7RosnqM4/ELan4em2s36n9r8t3Tw2IvExpI6yxGzyLHosTKfj+2tN9K+xO4+3OcOZykMSQ74WJSZHNkL30Un21GNaAkHYOLHg93dyYMCrHjwGQRxL8I/5jwro96572UAe9+6HHi8n/8Asmugg3qY7yHuPaUpUgXtVnOG/CnH+7b9FXat5Kk4eT7o2P5qxexhbSrt/ThwlrWeSuI97+YTbju81vu3vXceAt/CwGN9ZLVwvvUlIco203Hd9m9qpTbo+nEtW3S7bp68fKYT72w8CJwFTYhWxvcbQK0xG3m3TwFbraf4bgylyyhEKggC3kB8K0at6nMO58Sdfuqld7d32fkPeaBv4fR02K434c7NxfTSqTFExu67jVmfJWHav7TdBVn5qckgECwvYeyqcLVx4qqO5d1Fi3hclFdJmCKJT5UA+yq7+ArDSXKZtLMbeNhV6KYuSrgBh7KiducdtRZ1Fi5hblF9DRlwG71K/pe4XuKNT1PrW/xaicBsxPuqRfTYH+9WKD4+ofzCstO/rYe3HylPjEa6HVr/AMMn/Czvg6Cva8XRQPdXtegPlgpSlAKUpQClKUApSlAKUpQClKUApSlAKUpQClKUApSlAKUpQClKUApSlAKUpQClKUArin1rF+QxDfpjm4/w1rtdcR+tT35TEAOny5uP8MVp1PupeA6fBP8AkLPS/Ic7xj+EB7qoy5BGp2nxFVY7AQr7SKxs42IHhfp91clqt0+jRk46bMudLwlGFx8vJFtqsY77TIo3W+6vX7XmzZW3s+NEnRlVTuI01BI9lS7tuGDjcOZZQDOzB4SvQXGut6yMgCzMOrG5NdmzbjG2nTFo+ccQ1FzUau5Gcmowk6Jc2BCZezcmZHGHLJJPcBYQEBb2n4vAVGUkkgnMMoKSxttZWuCCDbxrrGA7w8pjzofMgcAdOoI61zPuQRy9wZk0Qsvrsfs0FTKKkmmthXs3Llm7FxbxkltM+CTePbVR62rEwCbEeFv5azD0rmTVJNHvdNddzTwk9vmPPN6U1jpbzVP/AKZFtxYAgem1msR+2a5+QPSkPjpbS/jXY+zMGPG4jGlVAGZpVuL30c1bse7Z5Tj6/wA7B/M+UudpsJO5shgBdTDcj+hLXQf2r9etc67GUfx/kG8Q0H+RLXRL629pOtXrfu49Bwp9pkOzmftPNblxjtPHMqwblRnPS/SEO35q2XAc3idyRvnzQCDMhf00SVXjkIHwkCdY2t16Cr2ZzcWBOycgjJCANjqb+Yi9v2f01gxFO4O58fkOKfbgxrHHLv6lgJL+32jxrIg2nI8jx3A4smWTGJArMcdQWdiButtjDPrf2VqeAklz8t+4WheFNnpeiyMvwkJezhX8fZUdTn+HburPn5cyMcWVVjg9O4Bhb07hwy/EFqb8T3Fx/NORg77gE2cWsAbdbmhBpJ++vRmeMcfM6qxXf6GT4H3RVv8AhuXblsf5lYWx73srK6HRtvSVVNbIvIRYsfymvFR2bbfcfaTUgheVg4uJ9QYJsOFIrxwl9gC3Ppyan8tVfUdwkHCPK22ITSGZybKq2TVj7KwuW7h4uL6gYsDCUtJFHtYR3A2xyXub1svqHxGTznAwx4xX0kSR8hnNiI2CHRf2jp0qNwI79UeYl5rt2bjeEBbHgkimky4CQrAm20kgLox9tW+R7Tze6+D46bBkkgmxPVTdEFvuYRa3dl/dNUPyfAZPa0/avCesc6Zg6M8DRR2WUTNcl38BUsgysntvjcaOaMvAS8k7Rm5UWQDy21199CSNcVw3dHaE0GdyfJ5WThMUHpTsuwLHqwsjOfzVm9386/C96RchBAckNHGnpIHPWFj0jVm/NWXzXcvGdw4cHF8d6zZALKwlj2KDJYdbnxrKyMRf7+BZU3+ljxtu1A1jK6EVAIxzHeknNc9wWCcFsS8jDcVmW+9f97Gg021jP3PN293hkRjGbIRxjLdVke1wr3tEj+2ph3hiQzcn27KI/wAQTTKHuTYBUtWpxM7jOM7qym5CJmlK44SRQeoAI8R4VIJ7jztkwCZgV3G20gj8xANXbitdh87x/IT+hjly9i3mFhYfea2NqkgqRtrBvZXNO+Ozs3L5ZOewOXl4t44lXdG0cQJQkbt7yJ0310muW/Wrl8eDjYeN8/zDwysQEutmeMr5v8E1D2BEVTtfncuf04u6pZsh2sEGTAWZidLfj6k1e5DsHnCg47mO451jvvOPkzQgAkEhtsk/jUL7f4wYObicnk5hx8tHSfDgjh9QyyX3LGz3X09CNdprN7jz87uLuEDuPIfjwyIDJsGSRtQqvlAh6iscMHiZHbO4eCz5e3MWHjcmVUxI2MwhK2l3LEq7vN/NvpXJMXublOF7l9TjcKY4+PLGuUsKylH9Ij1d/po19zg3t410n6cd0v3NxefxIkZzjFIoppiqXBG0WQD2R1Y4/P4/ttuS43Ixnn5h5JxEI9wjLSStJD+J0Fwwv5dKy6CDSfTeXN5f6jty0/HyY8Hyuze8cgW6sB1lVf3qx8Publs3L57tcxSZq8lJJjRTXd/RvLIPLZSg0X9oipoveMJg+S4bDdO4GN2UvZRD8V/UYMPDptrS4/HZ/wBPs5eRyVjysXkn+ZzHil2vFqZHGwg7zd/aKgEv4XhMvje1Mbi4XeLKAkd3Fg4Mt2A620JrC7xzOS4o8XAmTJG75MSuwIBIMMpINvetXk+o/azojvJMLgFl9MGx8R8dQnu7O7r7oysebAx/SggkSSJpJRclFkXp6WlxJUkGX9TeYyO3+4e1ucMRlRMaJpJTcLdCXN2QH96tr27wkvdrv3RzxOZxvIR78LEnCyQxkNo0dyGvsuNRUVy5+X7wy8DtHnIxDMqoseS0olVUl/AvsRIjoY72vXRu1cPlOEx17bnCPhccm2DJDgBl3WB9MrddP5xqCSFcZm9x4PaXcEmTk5SeguScZ5boU2yRrHsuPBelSGLjcrvHsHBxJ53kymjnvMbM93ugPnKjSsrk+Qw+8e2+V4fgTty5leGMTHapeN13XN20+6tNxHffb3aHGRcDzRyE5DBDR5Hoxeoha5bytuW/5KkGCPp73zDjDHj7n5IRg3EQZLf97WBN2h3XhyiHL7tyoGkF1WbIgjYj3LJPc1jY/wBZuR5DlYsLjsKVjIT6aPMiAkKWNz6TW0Fa/vDi+Z5Xl+P5jukpg4qrtXYwy3KA72O1Vh/eGlRhuqMd503sPtWTt1JsufLfNny1bfkPsO8tJ6u7ejOG/LUw/atWu7dSBe2+LTGb1MdYE9KQrsLDaNdlzt/LWzrJEClKUJFUzC+Hljx9JjVVJbHCzfaIGqJbGQto4LTij7bSVxLvuP8A5Obd5CzgFvGxZq7bwak8WLfzzXGPqJ58Oe48oK7h7QGaqMuzKvKWrfvbb+fHykeMMmPx2J6iBUdF9OQEHcNvsUm1aKclctyhJ161JMiERcXxhEu9ZIUIjK7dt1GnXWo5NtXNkuNATpVKXvZrmR73S/cdPyqT8rDzuNuPGhknn8sSi5a56WAqQcV9POa5KJMrJlnxUmUMEshsCfYzA9Kx+1sfG/vPhvlqDZoWg9x3t7xXa1KlRb4bAD7Kv2LcVBPezyPFNXdv6q5CUmoxaVE+Y5DyPYfPcBjPyGFLkZfoWYxWQbgdCPKzH2Vr8XIXko3Krsycc7Zo7EMGHW+4D9rSu8qiy2gcXR7A3rjeVxseP3TmJikBGVnkUX6/MOPEml+zGduXKlyEcM11zSau21JuMnRpt0xwLGMTtIb4gCDfrUv+mAX+80Nzr6c1vyLURCsubkJ4AkW++pT9OgV7pxSumkgP5BXIs4X4Lkml4z3fFHn4bqZbHKw5dcand6V4Ogr2u6fLxSlKAUpSgFKUoBSlKAUpSgFKUoBSlKAUpSgFKUoBSlKAUpSgFKUoBSlKAUpSgFKUoBXCvrHb+KYthb/l/wDOFd1rhH1mfbzWJHbQ41/s8wrRqfdPwHT4J/yFnpfkIHijdEB4kVZ5GFo4wx8TasrHuMOE9NDr99ePZ1sw3H31yXKlyp9Gt23PT5U6VqV4WXkTYrbbepEddBazdK3mJnfMoA5tIALkD2aVDJUlx33ROVvrdaR8nNCwNixW4vuI6/dXUsaiGRRlu3nieK8H1EdRO9Zo877Gx9ZI+c5bF4NRtO/PYBkjcHbtvtOq6dK5+0r5E0sxUAzNuax9vsra8hm5GfMJSSjAbeu4/nFY8OExcOTZb3ItU3L0KOj6yto+FaidxSuxxT2JrrLuHGUXX2fy1kdBVWn7IsPZXhNUXKrbPY27StW4wT7Jfx7fKZt+m1L/ANaux9pGZOHxWcDaGltr4lzXEy6pDLcXvtt7vMK7h2yS3D45W9t8un+Gauaf3UnznkeP/fYewY/ZcYj53kCDe7Y51/oS1PiST7vGoB2XdOZ5Bb380BNteqS10Cr1v3ceg4M+0zXc3wXF9yYiYPLxNNjxv6iIrtGd1rXuhBr3g+E43tnFbD4SJsaBnMrIztLdz1N5CT4Vn2r1TqNwuPH31mYkbzew+0+SyZczM495ciZi8rjIlUFj1O1WsKzeI7Y4LgXL8TitjsQVJaV5NCbn4yfGtByvbnfuVmzT8dzq42KzloYvVI2r4C3pmqezZ+6IecyeI7izTyCRY4mXIWQyRlndbKDsUXUVCarQUZOL16rMvmHWoBzffMkfeHGduYcM8IOW2PlSsNkcgKqw29dwFT3x21KBpm7U4Y5ycgY3+Yj+Bt7WFwR0vbxrcFVMLQf6tl2EeNrW61Ee8O807f5TB4aCKSebLjeQ5MJBiS3QMwvrpUqjl/5NMlwT+CsrAak3QPamANdh9p8JgTrm40brkAFQTIzCxFjoT7K2c8S5UEmNMLwyALIAbGw1GoqGdpd6Sd089lxJjzYuJFjrIkM91IbcEJ2EeNbnmOSyMPneIw4mIhyy4kUGwO0X1HjQGTgdt8Lx+Q+XhQuk7kFmMjMLqbjQm3Wti2PC+R82VJnIC7rm1hp06Vgc3ly4nHtPCSG2k3Bt0ArZJcoPbTfRbhuLcuNDO0byqWaElo9SLE9enWtdn9scHykvr5+M0shtciV06DaNFPsrb16KUBqeP7c4Xip/mOPxTDNYrvMrvofc5Ira0ryhIOhrU8p2lwXcmQr8pA8shURgpK8fl9nlIrbHpWl5zncniQY8DHGVmbd6oGII1G34FdtRfwo9hB83c1zWRx3ep9Yq2Pw+cRAhHRIW2KrFfMfKoqWdwSR90xjvzmMRZOEYrjeisjovqQj0r+Uibx+ymTx8kWXzCcbCORy+TDfNeqpHy7SkyEqYxKTZmK6helY3aHFZPb8t3Y53JFXH8FmDLjbWIYSbvM97C/8AZffWFNq5STV9jY/Ktkcjy/be2KDjTHK6NscHcXVb+t5unsrtPFZfG8hxY7uzof8AzDEjMmQVZwhfE/D+Af0PCq+X7Nw+4uOiDtFxTKh9X0VFm3hD5tY/hI8ajuPzfZnDcLm9nSZeQ5RJsWWdY4dpMjNuIBn11NSlTaNppfpZzP8AHfqTPy5VUT5Jk8l/2HUdG18a131bye6OEzDgZM6tg8hHI+wpFfYzsbXQX6WrrOE3bPavArnIkSYvqFPWhEYkJaxK/Hb/ABqjWb2vN9U2HJclKmDBhloMVJbuWQneJPNstdSOl6UwB84JE87HYBc+8DrX1Z3N3Zl9ndkJnQFPmT6MUO8blDMgbw9ynrVrtzjO1O25j2t8rjZmdiKrvkbI/N6rBl/aY3F6ze8OXxOJhwI8nEjzIcjLSF4XI2qGjlfdax6bLUUQ2cI4/v7kF7li5/n3jfayiMqlgEWRpbbYhf8AbqR90/W7Oy8X5PgjDGrApI7RMSUZCpFpRbqalv1K4heS4vCwuA4zGByYGkkljBujSqABaJH6WrnveE3D4XZvD9vDj1j5zBYDOyUQAt+E41Oj/ER1FQ67gansPl+Z7eyP7z4YRsXEMjZKOFIIO0P08/Vh8NSzJ7E5z6kZA7sEQXH5BhJ+HJGosv4Zssh3D4agWfzC90S43GcfxkeBLII4h6TswZkUgsVCj4vGs/M715/j+Hxe1PxYBxxdTNHIw3CTw2bFta/tomvASTrvbtng/p//AA7n+Jx2XIx51V1lleRSrwyKfE+J8KhXfP1F5PvBsSEiKHGhh9IRxqdSR5iWk82oArqXL5nG949rLm4z/jcXIMkxy7T6oFsXY21mIH4u69vCucHksk50Hdq8LCMHjG9GbFBe0hx/iYn0rDd6go8NhCO9dlDb2XwKk6/KRE/egreVre389OT4HjeRjhECZWPHKsCm4TcoO0dOlbEG5rNbCGe0pSgFeyj/AJLNt/sGryvJTbCzR1vCwqHsCHAi/GxqfFmB+81xz6jKI4ZgPKA669f23rsvBrbi47e1jXFvqIXLOjkEEr5b3B879apSXoyLdlZr9hctyPlMDmYYRgcCYr7nxo2kJvroNaimWAM+QeANSTMiEeLxYVjrAjEHQDQaL7RWgliE/JyRk7QWNza9UZtd5N8yPe6SLej08Vj6ckl+8yzLlSY+ThcnAovhOHlU9NqC4OuvX2V13tfuziuY4/G2SMcrYBKgjcKGBCkAke2uXtjPiEFfxI2+NSOo9h61gzcfjTytMhOKW1IjB6+34lqzY1VvKlPdvOFxTgOqd+V7TRUs9Kxqk4unOdq7o7vxOC4vIm3X5AKq48bIxS5OhJAt0B61zDt3kZ8p+V5rLC+rKTFGF+G24z3097Vp8bAihcNkTSZiAkmKUaH/ABjW1XfMAqL6US2G0aC35PZU6jWQyOFveRwr8u6qV+F7VrJGLrSqcn1GTG5lnfII1kYk/lqW/TpiO6Maxtf1AR9wqKQpbaq/s1Jfp+5XvDCA1BDi1cyw63ov568p6vikF8BqYr9mxPxRwO9r0H2V7Xi9B9le13j5aKUpQClKUApSlAKUpQClKUApSlAKUpQClKUApSlAKUpQClKUApSlAKUpQClKUApSlAK4R9aVY8/jEfCmN+lhXd64T9Zm/wDP4gL64y7fZ8VaNT7p9KOpwP8A5C14fIQeJt2FiID4Nf8ALVJ0Nj1qmP8A8Hj/AGH9NVs25izaXrkXVSb6F5D6XplS1GhbZFZTcXArDfGjJ1QEfaavzZEcWhYX8BWB/EYYmZpJAB0tr41nbjca9FMraq/pYul6dtc8qYdNS+MPH+Lbtb2A6UIA06VhNyUUjEq4t94rJSeN10YVnKM1jKvhK9rUaWdY2HD92mPUeVSxqo2vpVLURM9h5dPSmVr7jt2Ee3cK7h2fKjcXjxLoUaUkfa5riuMyWljdAxcoFYi5XzdRXbuHx0xceFY7A7pBcWB6k+FX7SrYlzs8Vxx/55Lkia7ss25jkiB0aD/JlroWtqgPZIP8X5Ldqd0Ftb/sS1P6uW/dxOJPtsiPcPP9wcdlmDjYYZEO3aZN19V3HpV3tvnOd5Od4+UhhjjUqE9LdfUNu+I+4VKleRdAxt7K9BLkB2vroT4fZWeJjgafmuVlwEWHFCtPOTGoe+htcHQ++sjjOLh4vH9KKWSYm5Mku2/mO63kCjT7KiWBzXE4vKZ2Ty0c38QErLpizS2EcjLGyyIjXugFSzjeZweVLDDEoKgsRLDLCLA209VVqQRLvLEh/vZ2hOF87ZkpdrnqFS2lSDu7npu2OBn5qNVeSGSKPa4LD8R9nRSDUY715Fv709tDHxsiZePy5Pm3jx5nRQ6oFO5EKkfZU9y8TGzomxsyJMiBiC0UqhkJU3BsffULY+Zh7jl/PZfb2DwyzzSyy5bLJJGxUWG5l0sm0eNdM4yeHL43CngJMMsERUkWNtgBqHd39icDk8XIcTj4VnjRvS9KBdxLMt6l/F40PH8Xi48KCOGCCMekq2AsgLeUe+pW8Mj2Fi4+J9QeVixl2IMHHutyeu0+N/GrvcVv7yduX6l57f1RWq4nlmzfqRyOQuPIuFk4MMcGQ0UiqXjALr51AHSpPzvGPnYjS4tznwKfk2WwcMxF9rH4dKjchvPO4Ru4eY+yJv0CttHfYCetRvEPK52SmLlwsmLGI0mLEkMAAr3DddRUl2j4vA6fkqVtb5RuKhSvLivL+6gKq8NCbGlGBe41qxFh4UXI/wATMQGWQitKCb7YwwUWvboxq+elc97v5+PtvufCzo8z1ZZ4h6/GO9lCwhgjbV8x37z4eFK8oRqMvtDvnt3K7g7h4HOGNFN6uU/4kJJTe0wurRk9WPjUQ7T57lO4+QWfFmVu83VlXkZbRj0U0CEn8LRNPhvXS/qB3fk8V23BHjYyyy8/C8CR7nDKXiVxsCi5Pn8a5xwn0o9DiRzHdGdkcCysyynbH+GpYKjXZgfNesMU8MSdxte4uU+oXbmfxuF3DySy4fKF1kWIwynbHYkfhxrb4hUR7u4rgeN7qw2MZbBnbEyM5LkllmijnmttINyWOgroH0y7VyosLnhzGO2QkhjXjpcsAllVmuybum5dpqGxdi4HLdx5/HctyL4HINkuuPiARm4klIhVSzAWKWIo6vnCI33F3Xl52H/A8NyvCI/rRwGPbaUghmufN+epZkfU7nuTk4jg+35UxlMUWM9023kCKl90u/8Adqfd9djLL2W3F8Dx6z56zK6CONFkPQNqK5UOF5fu3lsHGwOPOGMBY8XMni8hR1ujOxl2a3HWodU2icKVN72fJnYv1El/j8wlzJvlPUkXaQQ0kRXVAo+GpB3lmZmFyz4/cDiWJ1U4PpWcrOSxjY+nb/Vhuta7L+lEODiryXI8w8MipuadmgLAxrusDvv5bVZ+kUUXL8pmY/IzfOg484jbIIcrtki2yLv8bX/LWS5CCynfPdnY/M4cfIZatx+WkeQkSqkh9DcwHwBTfaOhNS3gE+n/ANR+Ty83Iwnk5GVPVy5bSxX8wjuPOR41iP2r232x3FDyXc/KJOryetjwZYidRErs2xbFiF16Vg9p90ds8f8AUfuDMhmgxuLyIxHhsoKRM3rI1k0tRc46CJ8v24fp/my5Jcxcml5OLljZZdjyMRETYW+FWvcVIeyE7I7tb0u44JMznXscqZg6As77VN43VelvCpbF9O8DA5yLujmOXkzcHFY5EkeZ6Rh2tu2hrsTtX1NK5dyicRyP1EyWws0cZx0mVEIJ8UBUGoVil7DQ61FKbgdqb6fcRx8ccHb+MMOCZyvIoJCd+PYvtBlLm/qqh09labuvBw8Hjm7C4OJY87mUdgkjMI901lVvVY2BPpG9SbvAyR8Zh5EGQ8eRjTq8EEZ1yWMbRmM21ttYvp7Kh2XwT9+ZsOTzUkvB8tjIsGNjRrd5ItfTmBn2tdju6VlhsIJX2PxPcfCcNBx/PTRv8vH6cMUTpIqgN5LMiqfg9tSkVE+zuGw+DkyOOh5eXksmFSJ4ptu6MF77iFJ8dKlWpogyqlK8qWD2qZv/AAuQo/ajINVVRMSYJQP3TUPYSi/w6leLB8F33+6uIfUKSMyvGb3Kq3Tw3vXceOYjiDcdBIPzGuHfUd39ZoQgH4CvcdfieqUuxJ8hb0z/AMxYr9rF+Mw+TMMmLwzRMX2Ycatu0sdDpUcW55SW/wC8a2XK40vE8dxOS8ZQ5USOpItuXaD4Vpnlc5AygLB/N7rnwqjci80nypLxHvdHdgrNmKdck5N+GTN8hBsG+E9RVp8XGdidnU9datfNxiMHcN1tANdbVQMmRj7B161Tjbubqo7Ny9YilKco052jIGNApBC9Kv38tvAdBWCJp+oW49xJrJjlRxY6N4ionCa21Jt3bM/dyi6cjTMiD4qkH06Uyd6YgAG1Ukb7xUfhsG61Ivp16h7wxvTBA2S3A0HhWenr3sMP2kU+LN/A6un2M/5Wd7HQV7Xi32i/W2te13z5WKUpQClKUApSlAKUpQClKUApSlAKUpQClKUApSlAKUpQClKUApSlAKUpQClKUApSlAK4T9YmP8diPgMZP0iu7Vwb6vs38ZjW+ny66feK0ar3T6UdTgf/ACFrw+Qg8Qvi448bH9NW8lxHEGvqTarkDXgxwurC+hq5LhpleVyUtrdbfy1yms1zHmR9EVxw0uZbUn1EbyJnaZAFeSQ32qoJvb7KyIe2MrOVZGKRggtY3JN/boLWradpZDtygydgM0ElotSB8Lg31qVTLsLD95t32kncfyXrsWrajCLpiz5zrtTc1Oqu5pPKnRLZguUgjdm8g6k4kkbkEDYxK3J+5q0uPktHKYmvuRtrfaCRXUIp5MbIWWI2axP5rVzPloY4e4s6CEkRrPoOvxanr7zScFJOu1GvT3rli9b7uTo5JU6TaowdQw8a8cgda9WMR+VdVHS9USruFc3DNQ943PulJr0qLrLkMgVZTY7jtKn7Deuydq5q8hgQZIcsxMl1a1xZit9K4zE6w4+QGW5KgKddD91T/wCljMfmEc+ZIrn75DV2y13TXOeO405PWqqp6CfnJR2JrzPLC3Rsa33pLU/NQP6fMsnKcyy6kPjAeH7EtTw9au2+xE4s+1IV5bUH2UpWZiY5wcIyGUwLvY3La3J/LV5Ioo9Y1C/ZVVKJIVPDGhO63m67taqOtKVKSWzeQ8TwqrfEL17pa3gdLV5Xun30BZTExI2DxwqrDoRfx++rykjUaW8aAE0F+lRTkFQdt7gWPj76X0tQLc2HWqjGwFzU0JKaX9tK9KkdelCDxutejWvPtrz3VBJUa5j31xPFYvc8HdnN46ZPGxwRocdAXmtDuR9qblvcyr4+FdOFuhrkv1Ez+Vwe58eaTFhzOKigjb0pWZTuO4SaxFX1O3xqHQIxeY+oXZ/PxY2BBxeT85jELxU08WxYZSFRHuHO220dQal/KrLg9lZB77b+MBH3ZAj/ABtytIvpAbPTvtrleN3dw3KZy8ZFwuPDNlSCASpJlFlZjbcPUlK6H2iup9xZcXa3aUsXIOeVyPUG1cgbA+5w4VjienYKOlqhYqvkJI79S+8sng+K4n+7mQ2ImRHIGWF1BARYtgZTvtYGuOY/Lc/zfc+LyKZLnlJ54BHlSECzqVSNmfbYBfbas/uXFhypcBopG3ZLyj0bAKnwsNrWuettfZW05XGxOzOPhxTjq+bNAkiZLszMrTRrkIQqEJ5d/iPtqHVvmRJ9BZfNf3X4g8tzBef5cgyeh+IxvYC3w1yvvfKyuC5bAXtSf5b+Op60xjYKA0h9QGYn1LHz61Nu3+e4DuLttMfnZZJWlkZJFRGQFUII1S3srjXKchl8a/KQ5MEbq/qDjp7ndGokYIdqWU+W3xg1LIRt+6eI78PALl8nya5GEYnnMauH8piLMNIx+zp1qU8T2RkYPDRcr2dlRQclIRHIB+GfSZVZ7veXxt+zWbxb5vL/AEhj3kSZEmPmxKdEBAR0QaaVy7sz6lc12nlPFO0cmN6bp6bR3szFdbx2P7FKqoOl5n045buLisle48qDI5sq0fGySMWCBgCBvAjt5r/smuc5WH2r2pI3Ac7A0/MYbkTywxb0JOqlWMi3/q11Ps7uTke9OWj5PNdcdMJo/RghUbZASW85kBYaHwNco+ruNPH35yOUQNjvGym/80H+SofKt45jqnH9rd8Z8CQdx5sEvB5CAZEXreoTAQGRTH6cfu/aqMct/wDGnb/Ky8XlcPLlTYpW7w4zNHcgPdWE3vrK4H6l893Vm4Xa7xw4smaFx1nhVi6hUuGHq7kv5fEV0Tj+1+CgQQ5EDZOaLnIyHd0LMSSfLEVTr7BU7edg1nG94dtd0IuSMeVP4d/zEQykEbKR/wAvuTz9bSW+ytnwvJcN3VOOdxoGXKw5fko5Z12yD0TuG3zHy+c2Ncn5bmMNe78bisjj4sXjmscqWJppJHX0nYJ53aw3gHTWtp3jz+R2PzPGz9sQRnjZMeOfJgn3MHcXvqTvAsR0NTXw0BLO0VP9/u6b/wCwU/eZanRFtPvqIdhJj8hjyd4qSubzMZTJxh/YxhHv+Ffzdfaal1gui9KLeQCfCledTXtqkDoK8cfhuD4qa9vRrem9/wB2olsYRkYNhxj6aBpNPurh/wBRvxJnyI9NsCpt/wAJta7biNt4uTdpdpQPyGuGd5TSyzyQaaxaHx0ZqpTrkl/8wLmmTlqLCW+7FeMx+6Zhl8R27DI5Pp4Udt1tDtAqKSsLLAnwxgA+8jxqRdwYbT43CgqFkTES5Bvdfab+N60UmH6DoTqrWHX23qncks9Og93o7M4adTcUsXiulliSQQDRSzEXAXU1IuK7M57m8OHLgyExllG9BISDtOgBBWrPZWBjcl3RhQZykxrPFZVJFwWI1IrtTxrAzYsVxDAxjiU62VdALnWrlm1FRVVVs8pxPiF6/qJwU3GEHglgcfz+0O5e3oHzMmWPKgi1dI3JY7tNAErBiePPiM2MnpvAds6nrcC5/PXcmVZgcdx5GUbrEg1x+fjoeM7iy8bBukWXukyQTcktM4NiaX7EZ226Ua2EcL4le0uqt1m5Qk8U+cxsYl7A9V6/lqXfTU/+7Mf+hL/JUTCiLOliQ+UNYfZcVJ/p7uTuvEI1BaRda5VnC7GPz4+JnueJPPw7US9bTykvo1O9UrxbkAnrXtdw+XClKUApSlAKUpQClKUApSlAKUpQClKUApSlAKUpQClKUApSlAKUpQClKUApSlAKUpQCuDfWCw5qLXU466fYRXea4F9ZRbn8UH/8b+UVo1KraZ1OB/8AIWfD5CE47FYoiPZVnOeVk0Y9R0q7B/Yx/ZXsibhY1yW6XK859HhBT0+XlTRp8qeaH0czBujQ7vW9M7SSbBb+J6mpfi81g5eHCzZEYm2D1AzbSCNP27eyorPA8T36r1IHjWvbjHyyfQ2g3uytp+eurZ1MHBKTpQ8HxHg+ptamUrEM+fdvJRzPOY2Kg+XlWSWwIVWPt9q38Kg6755zPJdpHbczHU3J9tX5cGeN/TlKl+txqBWXj4bLtJI0tU3b0EvRe3eadFwzUXL1bttxyvYzLhvsF69NVAWFqpbSufWrPZZcsYp40SLkemPlEjTZp76nX0kNo8gsN34Xj/xTUAkyBHBIgBO9bHwrof0rXZFkAjX0tT/1pq7Y90zx3HZJ65RW1RRIvpyxXk+XAF90mP8A5MtdCPU1z36dnbyfIhtC0kNvuWWuhNqTV632IdBxbvbl0lJIUXYgD2nQVAu4+5uY5TOi4vsmE8goUrm5WNIUELt8ALEBb+Q+NbzvflW4btybOTcW9SNRttf4h7Qaxvp3wn93eFlAZTPnzvNK6XF1IDIGuSNNxrLEwJLhLOuDjJkg/MLEnr7jc+ptG8E/0q1/cXcGF25xzZ+Y6rZlVI23eYk9AEDN016Vtxcmx8etQDu+bjeS7l4ziuTNsNJPVlRxdTfHkA6Mp6++pBV2fld5cnyC5/NY8+JxkjiTGR5d6NE2/wDYPmAttOoqQ91c4/AcScyFRLlGREjg3EEgnzW2gnQa1s8PJxsqJflH3RIqqgFjZQNo6E+yor3QY5+f47CmTdEWmJB6XGPuHSjwBomf6l4McfJySZuRGm5pcJ5lCbTpHexvruv08K6Li5kU/GRcmzhYmhEjm/lDKv4gufY4IrJzSTiS7vMNsYt9hFQJ+WMfYeYiFrY8WVu6aAzv0qMVUGtyuT7w7tyHyu3ZMnF45FUxSY0m1JGH4Uifi7Oja1KuyeX5HkuOyIeYR4+QxZbMJSxYo3wG7AfunpWg7Y704Tg+2YOOwcafPlhlld7IYlCyOTcG8l9Tapj2/wApxfcGPNyvFxNFZhFOsgIa6dNCTp5jUoMgnNYv1I/iOUeNOY2KXYwbJlVdvhYbqjnE859RP7yQ8HkplPKyF3jaa5sY2dSQNPCu25WauDiT5khOyBGkIHXyjwqBfT+PM5jmJu+p2/ClhOJBE/8AaB4WEZY2AFiL1GNSdxue8ucn4rGxeM428vL58NsaBGKyGUBSQpAIv161E58zvvt75TlOUTIkwpGWTKSSYMscYAke4jLNoNOlbP6gs3E89wvdjDdj8WXmnRT+IQBt8gPX461nd31I4Xk+HhwsWLI9fkUMXmTaA0sYHmN/a1HXlB1VWidFkgcPGwBDL0uRe1e1Y4/CbjcCLCkIZx+IWXpZgNKvK1yQPDrWRie1Hu5M/NeM8Zw6F86ZPLs8pU3DLZmG3UKfGpDrfSsCbI43Fy1aZ1jyCAQxYA2F7dWFQSce70+m/IccuPz3AxPLlxscrO9NUjKMEWRiW3XPn3dK1nH8tn9xxvyvG8hNkd2qAuNiXIYqjCO4nk2qPwyT+au28lyXGz4GRjHKRWyI3jDAqbFh1PmqA8T2LgcX2y+PxPI4+P3IJGZOYW1xG0gbZsaRl+HTpWNHXAk47j8B3XznKSJj48k2bC34g9WPcpcv0LMOpB6V1PgO2cXk3ixu9iV5MRx48GPkx+sS6WijQONPgUVpsrtPursbksbl15YZi5BMmS0KAHbHcjwcdZKnsXeXbeXznE8e2A8/KSnET5sm22Z0Tz2B8GqEtzDZyqXsnlH70XhuJx51iEPqkxrsVbqbnUhetvGpr9W8rN47j+H7fwIQZOQxzjzKCELMqRr5vA6j210xsriMLkmlL+nnMgTcOu3r4t7vZUc797B5Lvefjcvi82PClwNzh5F3Fi9tpGvupRqLqMKkE+l/cnN4GbD2lnxskMJRgjSbgBkSr+yt16N7a2H1P7a4fgMvF7kiVFCzxwyQiMKu1kmJYlbnrbwrH7Z7N7g7f73J5aaPN2NjKchDa6rIrDQDwUVvPri0Y7e3Om9RkxG3T9mSpWwbyH939xjlu4e1MntNTJPhQQKwxw8Q9YG4VmZVH31tu6+Vk7p4DF4SULJ3Bis0mbi33yITG0alnNlPmYeNabgOb4HnThcF29xp4zmZfTgi5JmLBJ2UIJdpJ6MCakGF9Ku4ouZnyB3HCvJkB8yZYgzOu4GxG72j2VHjBc+n2VNyAXuLuQtCOI3rGZhuAbHCRod1gR/aGsPu3vTtzH5Icv27yYk5VprZGPEske70gAiNIVsQWFTbveDh+B7G5X5SBYAYxvCk3eRmXc1mY/FauW8N9HMzneHxu5f4tBiw5xkljjeMsygO3U71HhU4rAE7+pXCcn3b27jx8PAMvKE6SbI2jBsI2B8zsv71W8TtDmcf6d8nws2Kxz51kMcLFCx3JEos24jqp8axn4/ursXN46ble4jyHEmYq+MkSJq8TsD4+K+2p33Ln5kfbeTm8NKRk/Lb4nQgnfZWHgwvrU0WLBz/AOjOLkcbyPLcblho8jGhKyQk32/j+4kV1vx0rk30jly8nmOayuQYtmyxt67N8RPzHjov6K6z7qR2EMeNVV5bxoL+NSDwVVcWJPS2teXrxv7N/sqJbGEX4WU8dJtFx6koH5DXAe6keTmCtzcwlQP8Nq77hrfjH/4kprhvd2LMnKQ5SsBFuVWPjcs+lqqXH9XJczL+hSersbvrYPqZY5hWjxuKQliRjr8Qt00t9laTPN4L2ttYG1SDuB5Xh4v1B8MKqrXvdf5K0zokytCw1Pielce5Kl2r5j6XpIOejS5c2zlzOhp4MvI4zOxeQxiVeKQOSptYLqDcfbXZ+F7gwM/jMTInzIlyJI1MokkCtv8AG+8g9a47PitBpIAyG5AHsq/mR4WVh4sODGMfLQqZpCLhhtt1J9utdTT6mDjSToeK4pwXVQ1E7ung7inRtLcdm5Xubh+JxJMlsyCSVANqLIHJJPT8Pca5twuUs2RzXLZjjcQzYgc9QXaQBCdfGoxBg+mwkypRIASCoXr94rYgiTbFEu1F1t+a9NRq7ag4wabaI4XwHV3dRC5qYStQi647XTcjLST18xpyNZH3flIqXfTmNZO6ICw1UykePS1RTGjAdFHUWJP31KvpsHPdUBU2X8bcPyVy7Lrdh7a8p6/iiy6DURWFLEl4Mp3YCwA9lKUruny8UpSgFKUoBSlKAUpSgFKUoBSlKAUpSgFKUoBSlKAUpSgFKUoBSlKAUpSgFKUoBSlKAVwT6ym/NYpI1+W0P+EK73XA/q+SeXjvr/y6/pFaNS/qn0o6nA/v9vol5CEQawx+8VUTVEP9lEQbaVdZgQGXRvGuPPtM+laf3SLTqGGtWRFHHqg8x61e0v5jYVQ4samLa3icIydWlUxnhS+616WsNPCrrfDVo9K2JtmiUIxbokWib61Q3Wq6oPWs0VplrJUCLd+8K6b9MVIx5XtoYyAb/wC9NcvyQZIzGTobAe7UV2/snHSLhIFQD1C0l7Cxt6hNXrPumzw3GV/uVxvkj5CnsBmblc0v5j6kVj0t5ZPZXQT8R+2udfT0luXzj0Aki+/yy10Q9T9pq9DsxOTPtOpGPqHhNn9qy40fUSIx1A/aHtrY9uuzcRDboHZP6qoK23pxyeSYBoza4YXGlQfjuUzO2OWmwOVil+QyyskMzK7Inx+pYRK/83rUxwdOXEh4onKnWub909nYfdnd+LxvKPJFjSBW3QkbiywuQNa6JG6TxJPGfw5BuQ6i4Oo0NjUY794/lMnj05HgRIeVx5AUSCwkKlTF8RI/epLZiQjYdt9rcb2njticY0jRuFjdpTckIWI/yq1vciEdycfMR5Faa5+3Ht0rP4PuPC5KLHxJS0fJoqR5OM6ShkltYgu6KpvtvoaxO9oMxMaDkuPx2ypopSHiTrtdfTvfr+ajWzmC3kmzWK4c7L4LH+kVzrNw1h7C5MpcvlQZIa5/3z9Py1sub794/KwGweKjORnZCBfQRJlZWQqerRAagGtxFxjP2WvGmPblSY0m5SBuDSEy218daPEI1n027b47iu2seWJX9aeSaOVi5PlWQuth06isXgGTgu8JOBwVth8j6Ly77s260zGzH7Ktdqd4R8DxK8Tz8LY2RjM8qmVZSX9V7hfw42Gim/WsjsdcnlszM7h5HHaCWORI8MSg3Kx+oCyFgpGjjwqKbCTa995Py3DPAnXJEsWv2CtxxHGQcLxsXE49/TR2lG43N5PMdajPeOFm8pyPH48SO0AyLyFRdQrKt79Kmkzfi+XpYa/dU72yNxz/ALyxDzvdHDcA7EYGRdMwLYPtcH4WOvVPCvOf+m/bONxMuVgwyw5WFE8kcnqs+5408pZXNuovV3vP5rjO5+F5/HgeTCxvNlyICVUID8W0M3V/ZTnu+eNzuLbA45PmMzMjaH00WbcGkWwGsduptrUNVRJvOzedye5e3o+VzERJ/WkgIjvt2w2Uda3o99ajtbhzwHAx8c+kgmklKkAG0lj+yWFba9ZLYYsrS+8WrknN9p4Pd/fmLBye8YyJHG/pkA2YSH7eqiutxf2imoLDb+/KC9iRBb8ktQyUQ7L7K+keJl5OLkZeasuOxWRQkhC2NtCBrVjuH6f9o8f2ye4u25J3kWQxpJNe3XY3kf7a5/3Zx3Lt3Ry7RY2UyHKkIZY5CGG73Cuo42PkRfTL0cqJ0b5iU7ZAQdZBbRtaxVGSyQ81lc9D2Yp4BI3ZoiJzIVFiFh22D9fGuQfTtp5e/wDHkzLDI+fhMwW1t/r+a1vfXSu/OZy+J7VwjhFoo5I5fWjRtobasNt2h9tbbslO2pe2ou5oMHGhyYYDk5UqqdxeIku7ORe+4E9Kl7VzA0/O9qx5HfMfK887R8X6SRh4trN6gRx8K+ath9Ue++W7Hj4iHhlidMqE2aZdx2IqhD+Stpzj8d3t26ox+Qgi3TEApJGT5AV/bZD41n8zj9rZHGY/8YbEzWwYFSISssjHaiqQoQk628Kmj3DAheF9ZIW7TXOyGT+ObJi8Yjk9PcoPp6gbdT1rdxrwv1W7YeLNkeOctuHoBlAMW0ft6f6w1knhOyY+BHNScRiJARKRujYC0QJ3a66geysmDI4HgeFOdxkEOMJ29KIxBluz2kIGh6hajFqgwOR8NwWP2fk507uw56GZm4OJrPHJ6bERGVl8oub33VL+1+5O3OPkyuf56d4+58qN0z4Y43aFQrb02GMFfCszneNkwOBzuc5eYDkWSWfip5tgkjWwkT0bHwLeIrnvYGLxXcHP8jP3JLFlEoWDZRFiRKqg9VHw1GzZiNpqO6u7+e7ygyDLHCvHwN6hEYAP4RIDebzdJOldM7Z7h7Q5DsTiuD5WeVWgjkSZY45NNxKmzAWNc17egkgz8qf1V/gUDztl47MgieNXA2MpbcR8PQV2nH4HsKbtyDmI+38ORJ4WKuiSHc6DzHy69fdUqta0DIb9Vee43uTjcXhOCYyzGdGCOrR6LG9zuksPCpX2+eU7M7Ay8qWJPm4w2REhYMpAjiAuUrT9ndkxdvc+nLchh74ZEaKFZEusbkbt42s5vtBGorL+pXcMvEc5w/HywnJ4vLS+VheYxyIeqskasxB0oq1beA5jJ+mcHJZmZyXdfJRrGeVV0TYwIOya4G0ajQeNdD8dKivZMcpx2yo3MXGzIWxONFgkBL3O1T5xf+cKlPhepRB7e1L0FLVNQPChN43+yleSX9J7ddprF7GStpl4X/pj/wBKT9FcZ7v9aylz5PUTy6e167Lghv4YQ2hLSfnFcc74nXyxg7irIbfYz1TutOEugu6Jf5rTqu27FeM1XNOZcPjV6bEXyj2betatbDTwArZcuZjx/HmVCilBsY+Pl6Vqo+grj3knN+A+n8Pw0sFzy/mZddEddrag1itgQEkhmF/DrWSXiX+0kCge3xrGkzLMRENy/st0vWMM/wCzgbrjtft0fSVDDi/eJrIRFjG1axocp5GsyWH23rKRopfhcAr1FJqaXpOpFudp9jxYl2C3qj7v01J/pkR/eiIDr+Mf0VGIgA2jXPT/AOtSL6dQs/deLMt9iepe3uFZaf3kPbj5SlxZJ6LVVdKWJ/ynexSvBqBXtd8+WilKUApSlAKUpQClKUApSlAKUpQClKUApSlAKUpQClKUApSlAKUpQClKUApSlAKUpQCuBfVwhuXjt/8Ajr+kV32uAfV0qvMxR38zY62H3itGq90+lHU4H9/t9DIRjs+xQDoBVw6dKoxw3pKLeGlVufTF2rkT7TPpOnf1SrhQoY63NUSypv23/wClq1mZyDmQQRKpZhpfT3+Nbrh+z+XymGRyERhxXTcjIyG5bp0N6sW9O2qvDDYcfXce09i5kXpUeLoYbzxr7atFgQSKkWf2Jm5UZm4tnmIsvpN6agG+vmYj7ahuUM/isg4udGscqsVK7g2q9fhJ9tZ/DSSqirb/ADBp7s8r9FMzSfE1bNeJMJhevTbwrCjToX3KM45ouq3MtTdB9o/SK7l2WG/h0THpeSw/wzXDZug9xH6RXbOyHLYaAnpv0t/PNXbHumeM43/yD9mJR9Pf/U84HU+rHY/4MldDPU/bXO/p2hHKcgTp+LFYf4MtdDOhP2mrtvsROPcxnIUY7k9NrlD1W9v0UpWbRieAKAABYDoKqBIIYaEdK80Nr+FLC9/GhBQ0UbTeuReS9yxJ61cvY3Gh9teUoSYcfGYcWR80kdptPNubwuPb76zNOp6+FKUBj5GBg5bBsqH1CP5zDwt4EVfVEQBVFlHQXJ/TXtKA98p1I1rwaUvSgPGRJEaKQbo30dbkXH3VjQ8Tw+LIZsPD9Gcm7SB3Nzfdexb21lUqKLaDyxHU17SlSCpCFYMwuBUI5HjeewO6oecwcWPLxFSPfH66QvdA4I86t+/U1vpTrRhEOfl+5XmZhwIsTdf/ADCL/wDTrC5xu5ee4k8UvEpjSs+75h8yNwANbbQgqf3PSl6xSfN1E1IX3H2XN3D20vHPLGmXFGwjdwxUM4jH7JH7lOye1Mvie2Mrt/knjb1oZscOhJUiSRiL21+E1M/EH2V6WJFjU0IqctT6M+jjnHxszHjfcWQ+m5sSderHwrB4D6Y8/j5kuZy2bjzJiOHgjVbFgCRYFbbdPbXXxoLUJ6e7pTLjWvgJrzHNu4+S5/M409vYuIVWIPArtMm2zIYwfgv4+2pFL25Lm9uwYDsi5EMqzAm5GibLaf0qli5MqiwI6W6Cre4k3ok+gHEfqNh92dwth4cCJHi4MJgZXkQ7rHZuFkuLgVo+0/pR3DnSGebLgwoSLMSDKSA4BG1beFfR3rye7TTpVDOzam1Q441qK4bDiWb9DORTJWPA5TGOJLYTExOpsb7vKzE+A6Gup8XgSdv9vYnEwKMqTEiKWVvSVmA8C+61zW5uabj0oliKmu4zI5DIG7Nwhh2voJ1m6HT4FXrWr5jtmTku6OK5y6HFwdvqoSQ52lidtj/OqSXppU0IqaXh+HyuN5bkc2R1bGygVgjX4lG/cNx+yt1dT060N/bYV7agAr2vB7q9oDyvG0RveK9uaN8D/wBGoewlGbhC/Hge9q4h3qyrIfCUOLH3bnrtuE4XDUH95rVw/vkgzuf5w/y3qlc7EsC7o/vem/vQ/mLHNm/G8UXGpjUDX+b1rRvIIEZvZppW05kuuFxPqH/VJs08NvurS5it6LOehNxXLuRrcpypH0vSTUNInyOT65MwcjL3Hc92OuwVm4PGctycKSYqLtY+UuwXS9vZVXanGw8xz0MGZuESPH5ENiwZmB18OldnxsWHBUYeMpWGFQqBjuP3k11LFiKim1tPD8W4nevamdqMqQg6YdBxufF5DhFJ5LHFv9pG4ewbpoB7qKFZRPj9DqwOhv8AF413CXHizsd8Wa7RSaNbQ+HjXKJ+OiwuYy8RWZYnDSLfUkmVk6/YKajTwnBtLFGHDOLX9LqIKc625OjwxxMLFfeddGHWpV9N50h7nxoHvuf1CpHTUCoosQXKljXUKSPuvUo+n8IburDe5DLvt9wrk2lS9FfPXlPa8SnCeg1EnslYk14Y1O8DoK9rxfhH2Cva7x8vFKUoBSlKAUpSgFKUoBSlKAUpSgFKUoBSlKAUpSgFKUoBSlKAUpSgFKUoBSlKAUpSgFcE+sK25nGHj8v/AJwrvdcI+sn/AP0MC+Axlt+Wq+r914UdbgH/ACNrol5CBQ39GO3W1Ws+OSREx4iXybkmJR5rAXq/ANsUT9QupHTxre9nYJ5TugZZS6QxO0l2sfMnpra3vrn2kpXfCe04lfnZ0DlGvZdfkLHH8BL25iHkMqAyup9QNJHtJHw213dN1W87nDlRfMcbnnfGfxcWPTaD5epA6EV0z6nSzY3bzzKbCKG7L1J/EjAteuDcO03JQcmyOFeExmNGHUO7htenhXUtRWKwbPnV+5Kcs0m8Sle/u5MWY+hmzhP3FZbXI/oGt9ld7YvOYC4WXBG2TPH6bTMQX3t46INbj21C8KKKLHklyo921hdlb26DQVVxXG5GbO+dixgYmHLHJkbmAYIW8AdT08K2tV3VpsNabWx0MtYcrAyDBkqyWFvMLa2vWcDcXrZd4z8fm5ofjpjIN5O1kZNNg/frVIGAF9a595KtdjPYcFuzlYpKsktjPMhAVRjqbi35RXauwUL4yLbbcP8A5Zri0wsqn2kfpFdt7D9R8aMJ8dpOun7ZrfYTdp0OLxt/7g/ZiY/09YpynIA/7WPT/BlrolzuPsrlXaHLYvFcrmxZZYPJJGylVuLASVP17j4oqTvfpc+Q1dh2EceeMmzbXFe1pR3Pw/UO+n8w0/vXwpG71JLD/dmsjE3JvpQA+JvWj/vfwRvaSTTr+G1Wj3t2+CfxpdP901ASGx9tGuR5TY1Gz3124L7ppdP9y1Ux9/drSEBMia59sDigJN4V7Ue/vx21cD15df8AcvVQ707dIuJ5bf8ABagN9fW1e1of748DqBJKSNT+E1B3jwlid0pt/MNAb6laA94cEq77y6+Gw14ne/AMxX8W41+A0BIKVHR3127qCZh/1bVWnenAS3CNLcam8bdDQG/pWjl7v4SGMyO0gUdbITVh++e344fXaSX07kX9Jr6AE6ffQEjpUbHfXbpiWUSS7X+H8Jr1aH1E7VJK/MTA+z0HoCU0qLj6idpE7RkzXHX/AJeSqo/qB2rL8GTMftx3FASalRxe++2ZBdJpjY2P4LivV747dZWYSSkKNfwmHSgJFSo9kd79vYahp2lCm3SNj118Ksv9Q+14wCzT2bp+E1ASelRYfUbtU9Gn/wCyaryd99uyMFUzXPS8Zp4QSOlaCLvLg8jeYjL+H8d0Iq1k99cDigNMZQCbC0ZPvp4QSUVblcxlbC+42qJn6ldsLe7zi2v9k1UL9Te05SQJZ7rr/YPUAmIJ6EWr2oj/APJPagxxlNLOYyxT+we9x7qqi+o/a0wJjlnIXreFh1oCWffSoqfqN2wo+Oc+H9kwq1/8ndqg2Jn+30moCYUqKL9Re223MiTttXcRsI0qhfqV2zIWHpz7kFyNh8KeEEtub1V1jk/o1EE+p3azkj0sgW1+E1cX6j9uyo6QxTh28q3XxPSoewlbSb4I/wCUQHpcmuGd5xM2Q69DvuP6713Dg8hM/ioMtQfTlUuoPXWuKd5EnKluLdf8t6o38ITOhw5V12lX/mh/Marl3kbG4yN1I2xKAT4i1q0+dv8AlWBJ2btBW55NX+X44s24CFSo6W0rXTJ66GMaX11rlzl6afMj6Vp4ZtNlS3y8rNZicrLxXJYebECI0ZDNtNhtTW5Nj7a7PwvKY3J4GPnLNGTNGCV3gkHxvex/NXFJYdjGOb9q+0jw/JVlH5LBlJwXVVNiDZT11/aBrrae/CUFGTSpys8NxfhV+1qZXrUJXIzeyMW6YH0LJyOJgQSZeXkRRRRDcXZ19oFrAk/mrl/H8lj8jzPLchI6+hGrJCzG6k+sz+U2H7JqHenn8o3/ADzo0Y1Z9oHTwsoB8a2cbQxRJi4oIvYMT03W2381TqL8IQaTTb5DVwvhOo1WphK7CVu3B4trkx3mxZ1kz55UawdztI6EXFqk/wBPmUd04qsbMS+n3VFoIyiRBvi3C5H21JuwI2m7xxHBHkEhIPsFci063oPlmvKe14jGMeH6iNcFYkk/ZjQ7wvwj7K9rwdBXtd0+YClKUApSlAKUpQClKUApSlAKUpQClKUApSlAKUpQClKUApSlAKUpQClKUApSlAKUpQCuDfWRHPcEEg6DGXS411rvNcF+sTW7jhQ9fll/TVfVe6fSjr/l9V4ja6JeQhcYQQLrcEaj2Vuu0OQi4nusN8yIMVoXVrnal9lx+etMqn0Vv+0ula7KQ/2jDf0rnWpKN115T2vENM7+iyKrWVn0DyeXw/c0MnHQZEGXC6ok5R1kCXIcXF7a7a+Yu5sSfieV5HDx19GFZyt0IAYA3X4T76m/YmfhcBx/KZE8rLkvJE0MMaXuF3A+e+nxeyo7zeK3IzyzyH1GlkaSzgrYHUajrpXSszrJrmwPnursSstRae3eQ7HyJsY74mI94NvdW27U3T8/gYkjkY+VkxrkKfhYbr2YeNYc3FSIwAYHcLgAHwrccDjw8bmJn5R3GBhJjIouSQD438utvbVjMkqt4FZRk5ZUqt4HSfq6nD4TwcVxYhXIhnYzJEAGCmNXW9vtrnq3C2OvvrIy8rM53kZuVzmLyyhSxaxNwAn7IUeFVNjm3hXNvTjmfSe24RobtvT1ao5bizKhfHJXwsT7vMKnHK4/OZvamHJwzSxZBnk82O4DFQxBHUaVFcONDHkiYXAA21sI+4eV4KCHHaV5YELemEKizN5ibbT7a36e7HLkrRvYcXj9mcdSrrTccvk2no4HlMSFV5JHfJN2Jchm2m1tVJq6vG5AjAEbC/VR/wDesOfvXKyGLyCUsQBc26D/AAasr3flgg/iWHhp/o1aUqLtHBc41rQ2Q4qXr6J2/u/9DXh4mbbsKMqn/p7aw07zlU3aOQ/eP9GrOZ3bPkrtjEkJtbdo3+bWObnGaJsIuHlUPtBIA9oF9ftq2/GZRJVUIB8bjT89aRud5ErZc2VT4jYD/JVB5zldgX5uTQ3vtX9VMxGdcjN7HxOSwBYMLdemv569fiZ11jjZSfYLVoBz/MqQfm5Co9yi/wDi1mwd15qJaeR5T4fCLa/0aKT5SVJPczarxmShHxMfu/XVAwJ1ZmKsT4E+38tYqd1vfd6b28BuH6qqPdIOnoN/WHj91ZVfKT4H1GwXCybGwOuh1H668GHkpcopPuuNfz1izc+0AWQxkxudtgwJuBfXSsY90qCvpxOoFyRcfqqMzWNaE5arBN+A2A43IVjIQx3eFxp+eqP4XkK+itb97T9dYv8AeVwtwr3GrC46H7qtv3NkmMFd6i/u/wBGjlyslRfqvqMx+Om+HYSP+nvr1OOyYxviVhIRoQRcW6eNaQdyZ7sSryADqDb/AEaqk7kzUUESyKT7AD/JUZ+cjK/Vl1G0lwOTd/UIklJAGp9n314vEZJV9+KzMw0Ygkj7K1MfdHLF1/5uUA6EbV6f1az07v5JLAyyMb/F5R/m1OfnJyv1ZdRmY/GZ8VmEMgI0AselUfwnNlfz48gHi200TvDkShu8hJ6ElRb/ABauJ3rmMfhkIHgWX/Rop85GV+q+ox/4Rmaj0XIUnUiq4+My1Up6LBD4W09tXE70yGZh6DuPe4H+bVR73jYG+E4928H/ADaKfOTlfqvqLScfmDVIDYHW3jVL8fko4JxybnUfbrVx+7RdVjgdGOt9wPX7qwZ+6M1pCyM411Fx4f4NM3OMr5H1GTJxWXMN0sTbvBTr0++rU3EyNHtbG0F+v/3q2ndWezjcXb2XZR/m163dOQ5s8bkdD5h/o1GemxkZX6r6i9Fw4KD/AJYXta1vz9ayV4jIxbOsTll8wAHt+ysKPuRySUVw1vaP1Vlnu7JjuZFexFtCD/m1Oau8ZXyPqMiKLOswMTorey+tePh5TamJmAPw+FWB3Y8gACygrrrb9VVf3mmWz7n2n9nQa/kpX5yGR+qypeK2m4ja/UHaevsrz+FyXv6JJvqbUbuicIZQJNo66j9VWk7vKsrNG7KxsV3AX+3SjdN5OR+q14C8OKlWQCLFv7HItc+zWry8dOiPbHUX6i6/rrHze8FkgKx47wPcWlVg5H3ba0v94s57kZMp10ugFvzUzPlMZUW1NG+PH5TxgfLfCSQbjWra8NL6RjOL5WN7m3j99aYdycqq7Vy5APAWX9VXD3RyjDWeQe7ym3v+GozGOeNNpJsKB8OKWEQB1lUKSdLWq0MJAzyNEAXv5bVpcTuXKTc88kkig/DYD+Ssn+90W8MYZGGlxcDT8lMOVE54mYcI6BccL43tVUXH5MWRFsQuGYNbT29NDWHJ3fA7ErDIotYDrr7elUwd3RxMzCOUnqtraH8lTs2SQzRJNF3L3dHzGLwkcE8GBAYNjLIwQoXVS1rW1BNO6ZlnlmJO7aSL9RozeNa7G7ykyWBaKV5ygjiYkDaOifs+FXpsTKylOBHKJMuX8Te3lX3gnXxqtqZPJlVG5blyHT4RBT1tieyFq5Gc5ey6jlPUGJx25Nq+gu038LVrbhVuTofE1tOcY4sOBjZEgaWOEI20hgCuh1FR7My1MXoJe5tdq51y289ORKp9E0t+EdOpcspU+k6HmbOjhY47M2vmHUVd4+GZR6jAhSLAn7as4eGzsJWIAUgge2srJzhEvyyKbrqWvpqKh7MkfCyVjLvprB4JHubkJIu1SCdNR7qu40aon9KxJt7qw8TFd2DvbYLsV9tbVURLLa9/zCsJtJZU6m22m3napzHsagyKB0BFvy1JfpxIq93QKx2sVlsPb0qPJGUdWuLMRYfaa3vYELS944sikAIsh191TY97D2olTimV6HVVdF3E/wCVnex0H2V7VKfAt+thVVd4+XClKUApSlAKUpQClKUApSlAKUpQClKUApSlAKUpQClKUApSlAKUpQClKUApSlAKUpQCuDfWMj+9UAtr8suv313muG/WOMt3LhsAbDH9nXWq2s9y+lHZ/LjS4narvUl4iDA2jhHtFUvBdA1tftq2JH2IDGfJex9tDkSD4Qbe2uW0220fQozioKLa85hTYSqwmiuJF+HxF/vq/j52VO8ONmBZYYFf01+GxbxumtGyHZrFCPy/qqn5og+WPXp7/wBFbYXLiVPlKGq0GjvSzSSxxpQxMmD0GRoRt3AkG9+ht415FxjTOjSeBuCCPGtg2SAhstx46H9VULm2Istvf/0FTK9dapiarPDOHQm7kLca19UyYcVRGY0vp+uvZYUB3Gsc5ba2Un7L6/mqlstz5bMR9h/VWnLNnTVy0lTMopbEZHpRgA+zWvGi9RRuJsfAVjtmll2bdV08dPzVQMv9k/k1qUp7nQ1XPhZxauRjOvrKuBfOOo9v5atLi3Ura6nwv768+b9oNh9v6q9XLZRoD+f9VZrvFvKr0nDWsLNv6KPHxQQylbDS5vXicfGZURgdrdTeqhnMtyFJJ+39VVSZzyHcwPS19f1Vlnuve+sj4Lh6w7i19GJS2DHHuABtqDr4VUcP1QVBJv4VZOYb3PT7auDPYDrb3f8AQVGa7hV7A9Hw2j+otr90SYUZQwyMQFFrDx++sccThlQwLX8Resp87ftJUeX39atDMtrtuT76OV3lfWbI6bQqNFbtroiUji8Rh5SxPhXh4qFW13C/TWsiPIkmk2wY5lc6BUBJv9wryXLkRikkZR10ZDoQfyVGa7ysy7rRVaUYPDYliULxUdgr39Pw11vVDcVjKR8Vj11q588xG0Lr7b1786Sel7faf5KZrvLUdxoqdmMfAYDRmGViPs+4dKyRHHkRlLkX8RXskolDbl69CaspuQ3FwKzzSa2tM0x09iEnSMZRfMXzhSqfKxsB7qp+Xn8G6delUmWYA2LWPgPGvPVlAF7/AK6jNc9YyVjSLBWuounCyTa50PQ6datHBkZgWY3U3HTrVXrzkWDEAdBevBJMerEffTNc9Yh6fSVr3XiBwWIvvNz16VUnGuUZtxCjr0qn1Jem8g176kwBAkIB661Oa56xi9NovsF1HsfFTLcRk269R414OMcvsDH2+FPVnsD6hsOmor31Z1GjkfeKZ7vrMj4XRb7UAeKlHUn3aiqf4bJ1ubfdXvzE/hIfy158xLaxJP30z3fWJ+F0P2CLcfGlRsQn220q4eNfwY/mrwTSDTX8temaQ+JH30z3fWHwmhf+AvCh/DJPafzVcbCyJAEkc7Rrptq360v75qn1ZfBifvpnu+sHpNBt7hGR8tOBYSGwGmi1afCdzudiX6HoNKo9aX2n8tVCSa2hame7vkFpNDtViPUVtHlNGYC90OtrL+msQ8SpJJU3Op81ZIkmJ+JvtrwvPc3Y2FM9z1h8JolssrqR4uFIuqmx+6vHwch+hv79BVXqSAaym/sr1cicCyykDxFSrl1ftGu5oNBNUlYi+mKZaGA4/tI95XUHdb9FXfkrDeY/L0tu8a8M0v75p6st7CQmp7276xr/AAjhn+mj1IrTjxJdtlgup83WvTxwBuy7V6gA3qlJ5luquQD8WtVGeXwcn76d7d9Yj8H4b/poeFFaYMfxRqQfA3/XSPDljbyrfc1ySaoE0vUsQftqoTyi/mOvvqO+veszNcI4Z/p4dRsYJMvFdZEjVmW20FvYbg1Us/JRzNLE4jle5I2qw8xuetaszT3B3Ej7auGaf3j761uVyuaqq9rLNnQ6G1XJZSTVOorlwJJpGmkP4jElyLak6mq4+P2lWe9h01FWRNP4Fjb316JZ2vuJA+2sW5vftLUY2I0pHZu3GRkZLQgRoBci2vsq1DjtMwkk6MfD7athAXDnUDUj21mpOAoA0A8KxdYr0dr3mxUnL08EtiMlVC6CqySevhpWOMgFh7Kr9UeytWVljPEvoxZ0HgCP01JOw9g7oxwTq3qAffUXjkuVINgCD+Q1KOyde7ePYdCx/RWdqqu2/bXlKHE0paLVbl3E6fRZ3iLSNB7h+iqq8T4V+wV7XfPlgpSlAKUpQClKUApSlAKUpQClKUApSlAKUpQClKUApSlAKUpQClKUApSlAKUpQClKUAqNdydoYfcORFkzqhkiQoN27oTf9lhUlpUSipKjVUZ27k7clO3Jxkt6Ocn6W4t/9Vb/AKz/AEqq/wDivjvS9O0V/b+J/p10Sla+4t+qi1+Jaz7VnNm+lGEzgkRHw3fifo317J9JOJZgyxxK37Tfi66f066RSp7m36qH4nrftpbKHOX+lHGtA8X4V2IIP4nh/h1gD6N46nSeHQ+UbZNP8euq0p3Nv1URDiWshXLelj4Tl8X0khjyfU9WExWICWkuNP6dXz9KsbruiL+D/ifo310mlR3Fr1UJcS1kqVvSwOWD6QQLKW9SEhzdjaT/AE69h+j2GH9WZoWa1rfif6ddSpU9zb9VGX4prdnfyObZH0l45oWSARKSNL+p1v8A061bfSPJBO14CDp1caflrrtKd1b9VGP4jrPtpYnJsT6RXdvmjCFtpYu2t/cwq/8A/EsAxniKws5vtN5AOv8ASrqVKdzb9UPiWse29LrOUwfR/E85yI4W08gDSdfuakP0fxjIxljhRdvlO6Rtb/0h4V1alR3Fv1Q+I6x1rfnjznJ2+juOisVELsfh1kH+dVJ+kEKIG2wOb6x7pB9+7dXWqU7i36qMlxTXL/Hn1nN+C+ma8XKMhGihdW3WUu3gR+97612b9JnysmbIkMLyyuWMhLi9zppu9ldZpU9zbpTKsDWtfqlJzV6alJUbzM5LJ9HsdI/UvCxB+H8Qfn31c4/6R4wUvMYQd3wj1DoPfvrq1KjuLXqo2fimupTv59ZyDkfpCQzSY7wbNTt840t72qxH9JnmidEaFLC4B3nx/pV2alR8Pb9Uy/FtdRLvpYHIcP6QsI2EjwHXT4/9KvJfpBJNIqiSBI1bX4zcdP3q6/Sp7i3yEPi2urXvpHIJvo6qRKFeAuWt/rBpb+lVeL9GU2scmWANfygCQ6faHFdcpWPw1qtaPrw6h+K677efWcZk+j8qZjKvoSQAXA3Ot7j3tV1vo8UVjsgc9V8zj/OrsNKy7i3yD8W123vpPpZx5fo0GUFvQU9bXc/d8VeH6Oh3CCKBE8ZN7n/F3V2KlO4t7KB8V1r/AMVnHJvouNu6OWAEeH4mv+NVX/w4PTALQbra/H19vxV2GlO4t8hK4trl/ivqRxnG+j7yG7tAqi/lu5/zqvS/Rosy7JYAPH4/9KuwUqPhrfI+sy/Gdf8Aa/wo5F/8MBlA9aAEDU2kN/8AGrF/+F5/VI+Yx9m2/R+v9auz0p8Pb5A+M697bz6kcTyPpBNDPDCs8Db9WNnAAOn71Z6/SCZUAEkB8uh841/rV12lPh7fIQ+Ma50+ueBxofSHkWcMJ4AgNivm/XVM/wBIMn1VYPBYEFxd9Rbp8VdnpT4a1yeMn8Z1/wBt/DHzHHF+j4IuUgH+E/8ApVRH9GJ2c75MeNDoB52t7/irs1Kh6a09z6x+M6/7X+GPmOLn6OZEUzC+PLGbBTudbH9626vW+j0ixkXgLjW+5+n9auz0p8Na5H1k/jWv+1/hRxOP6QZrAm2ONbfG3T8tep9H8zcQ/wAva/xb26X9l67XSnwtrkfWPxviH23iRxjI+j06RM8csG/oo8/6d1YUX0qzRJtkaBlIGt20N/trulKh6W1yPrJXHOIL/G8SOGn6VZUc5VpIWQgFbbtL/fVxvpblN5FeEM2inzaH8tdupT4S1yPrH45xH7Z9SOOR/SPM2AtPACRr8Rv/AI1Uf/EmZ6h/5iDZtsFs3+lXZqU+Etcj6x+OcR+2fUjjn/xFnAeWSD7Lt+uj/SjOiUF5YADppuP8tdjpT4SzyPrH45xH7Z9SOMp9KeTI8jQW/pN+urjfS7kQtkMCt0fzHUflrsVKj4OzyPrJ/HeI/bPqORwfTDJVQX9Em2o3N1/LW87Z7FfieViz5vTPpbiNpYnXp410ClTHSWYyU0sV8hjc41xC5Cdud5uM04tPkYAsAPZSlKsHMFKUoBSlKAUpSgFKUoBSlKAUpSgFKUoBSlKAUpSgFKUoBSlKAUpSgFKUoBSlKAUpSgFKUoBSlKAUpSgFKUoBSlKAUpSgFKUoBSlKAUpSgFKUoBSlKAUpSgFKUoBSlKAUpSgFKUoBSlKAUpSgFKUoBSlKAUpSgFKUoBSlKAUpSgFKUoBSlKAUpSgFKUoBSlKAUpSgFKUoBSlKAUpSgFKUoBSlKAUpSgFKUoBSlKAUpSgFKUoBSlKAUpSgFKUoBSlKAUpSgFKUoBSlKAUpSgFKUoBSlKAUpSgFKUoBSlKAUpSgFKUoBSlKAUpSgFKUoBSlKAUpSgFKUoBSlKAUpSgFKUoBSlKAUpSgFKUoBSlKAUpSgFKUoBSlKAUpSgFKUoBSlKAUpSgFKUoBSlKAUpSgFKUoBSlKAUpSgFKUoBSlKAUpSgFKUoBSlKAUpSgP/9k=;strokeColor=none;strokeWidth=2;fillColor=#EDF5FF;fontSize=12;labelBackgroundColor=#EDF5FF;fontStyle=1;fontColor=#0A3DA3;" vertex="1" parent="Gr0Zq-AI6Quabplr0KPa-98">
          <mxGeometry x="54" y="154.7682119205298" width="121.32" height="91.11978476821191" as="geometry" />
        </mxCell>
        <mxCell id="X31E-dGhFTVf8kw1BePZ-13" style="edgeStyle=orthogonalEdgeStyle;html=1;endArrow=none;endFill=0;strokeWidth=2;fontSize=12;fontColor=#0A3DA3;strokeColor=#0A3DA3;rounded=0;startSize=8;endSize=8;curved=0;entryX=0.007;entryY=0.402;entryDx=0;entryDy=0;entryPerimeter=0;" edge="1" parent="Gr0Zq-AI6Quabplr0KPa-98" target="Gr0Zq-AI6Quabplr0KPa-102">
          <mxGeometry relative="1" as="geometry">
            <mxPoint x="328" y="282.044701986755" as="targetPoint" />
            <Array as="points">
              <mxPoint x="178" y="202.62417218543047" />
            </Array>
            <mxPoint x="175" y="202.62417218543047" as="sourcePoint" />
          </mxGeometry>
        </mxCell>
        <mxCell id="X31E-dGhFTVf8kw1BePZ-16" value="&lt;div&gt;&lt;font color=&quot;#000000&quot;&gt;&lt;br&gt;&lt;/font&gt;&lt;/div&gt;&lt;font color=&quot;#000000&quot;&gt;SMS ALERTS&lt;/font&gt;" style="text;html=1;align=center;verticalAlign=middle;whiteSpace=wrap;rounded=0;" vertex="1" parent="Gr0Zq-AI6Quabplr0KPa-98">
          <mxGeometry x="207.00305177111716" y="160.88016294876272" width="62.20708446866485" height="38.8421052631579" as="geometry" />
        </mxCell>
        <mxCell id="X31E-dGhFTVf8kw1BePZ-17" value="9V battery or DC power adapter for Arduino." style="image;html=1;image=data:image/jpeg,/9j/4AAQSkZJRgABAQAAAQABAAD/2wCEAAkGBxITEhUTExMWExQWFxYYGBgYGRUdHRgWGx4YGhgXFxUaHSggGBolIBUTITEiKCkrLi4uFx8zOD8sNygtLisBCgoKDg0OFhAQGyseFx4tLy0tKystLy0rNy0rKystNzctLTUrLS0vMCswKy03KysrLjErNS0tLy0tLS0tKy0uN//AABEIAOEA4QMBIgACEQEDEQH/xAAcAAEAAgMBAQEAAAAAAAAAAAAABgcEBQgDAgH/xABGEAABAwIDBAcEBwUGBgMAAAABAAIDBBEFITEGEkFRBxMiYXGBkTJSobEjQmJygsHwFDOi0eFDY5KywsMVU3SDk6MIJHP/xAAZAQEBAQEBAQAAAAAAAAAAAAAAAQIEAwX/xAAtEQEAAgIAAwQKAwEAAAAAAAAAAQIDEQQhMRJBUXETIjJhgZGhsdHhQsHwI//aAAwDAQACEQMRAD8AvFERAREQEREBERARFh1+LQQ/vZo4/vOaCfAXuUWImZ1DMRRKt6RaCO9nukt7rSB6vsFHK7pmpm+xC5/i4D5Aj4rPaiej1nh8lfajXny+60EVLSdNFS82go2k95e4+jbL6Zt1tDJmygAH/TT/ADc9aeUxpc6KoBtFtMc/2Mf+IfIvXw7anaNutH/6HH5ORFxIqXf0i41H+8pox9+GUf7oWVS9L1QP3lIx3MtdI35td80XUreRQHDelKmk9uGZnMt3ZAPEMO//AAqWYTj9LU/uJ2SEatBs4fejNnN8wiNkiIgIiICIiAiIgIiICIiAiIgIsbEK+KFhkleGNHE/IDie4KudoukaRxMdI0t+2QC8jmG6MHefgs2vFerowcNkzezHLxnosDFsZgpm700jWDgNSfutGZ8goNi/Sm0XbTw7x4OkPyY3M+oVW4pjTd4uke6eQ6gOv/ilN7+Av4rLwHZLEsQsY4xBAfruuxpHcc3yfEeCx69vdDp1wuHr/wBLfKGXjnSFVSXD53Ae5HZo8OzY+pK0uG0tfWn/AOrA99zm62V++R1mg+JVu7NdEtDT2dOP2qT7YswHuj4/iJU+iia0BrQGtGQAAAA5ADRWMcd/N5347JMdmmqR4V5KYwjoZnks6sqQz7Ed3H/EbAHwBU3wjovwyCx6jrne9K4u/gyb8FM0Xo45mZ5y8KSjjiG7HGyMcmtDR6AL3REQREQCsCswWml/eQRP7yxt/W1ws9EWJmOiGYn0a0Umce/C7hYlwv8AdfcjyIUYxTYapizNqhrfZdZxc3vDmkSsPgXBW0imm4yT/KN/7x6qiw/a2spSAXGoj/5UzgXAf3VSB2vB4urD2Z2op61pMLiHt9uN4s9h728R3i4XhtHstFUtJaAyTnwcftD89fFVBi9BUUc/WRl0U8RuCOXycwjhpZTtanUvb0EXrN8U9Osd/wC4dAIo5sLtUyvp9+wZKzsys913MfZOo8xwUjWnKIiICIiAiIgIiIC0G0208dKNxo6yci7WA6D3nn6rfn8Vh7cbXNo2bjCDO4XF9GN9935BUfU4pLUyFjXOO+7tusXPe48ABm4ng1Ytad6r1duHh6xT0ub2e6O+f02+0O0z55e08zSHTd0b3RN0aPtH4rCwPZuvxFxbEzq4QbOeSQwEa7z9ZXdwv5KxdkujRgaHVTd1uR6m93OPOolHtf8A5ts0d6smGFrGhrGhrWiwa0AADkANAlaRHmxn4q2T1Y5VjuhC9lOjKjpLPe39pmGe+8DdB+xHmB4m5U3RFtyiIiAiIgIiICIiAiIgIiIC0W1mANqojYAStF2O/wBJPI/Bb1FJjcalvHktjtFq9Yc/YHibsNxBkpu2J56uZvJpNjcc2mzvUcV0ACqV6YKBrJ3EC3WNbJ+LNrvWxKsbo4xEz4bTPJu4M6snmYyWXPeQ0HzUrM659z24qtYvFq8otG/n+J2kqIi05hERAREQFpdrMfbRwGQ2LzlG3m7v7hqf6rcuNhc5ALnzpL2nNTO7dPYb2WD7PPxdr4WCzadco6unhsVbTNr+xXnP4+LQ4rXzVc+63ekkkdwzLnHSw+QV19HewbKFgklAfUuGZ1EYOrWd/N3kMtdZ0RbFinjFZO36eQXYD/ZsPHuc4egNuJVlJWuoYz57ZbdqfhHgIiLTxEREBERAREQEREBERAREQEREC6Ln7pMoJsOrzJTyyRsm+kBa94s653m3vmL8DwK1MfSVirdKx3nHAf8ANGSmhL+mepvUtaPqsY0+J3nfJzVKOhupa3C957g1rJZLucQAB2SSScgM1SdbtLPM5z5i2V773c5oGZG7cBtgCBpllYLCkxKV0Yh33dUHFwjBO7vG13bt8zkMypWsxvboz5K3ikV7o18XROD9IlJVVopIA99w8iXIMJbmQ0akZHOwGXFTBcv9HdYIsTpHk2HWhn/kBj/1hdQKucREQEREET6S8Y/Z6NwBs6XsD7ur/hl+JVD0c4B+3V4LxeKL6STkbey3zNvIFSLprxO87YgcomfxOzP+36KVdC+EdTQCUjtzuLvwN7LR8HH8SxHOZl15Z7GGlPH1p/r6J8ERFtyCIiAiIgIiICIiAiIgIiICIiAiLxrKpkTHSSODWMaXOcdA0C5JQV108UbXUUcn1mTADweHXH8LfRUM4KadIG3MmIOtbq6djiY2cSdN9596xOWgvbPVQuJhc5rRq4geqo2eA4DLVF25kxgu9x0aPzOY9V6yUtM3sgvcTxJAz7svDgrM2NoBHFE0tO7IHHLRpjcTd+lwGyb3fvW43UPxl1I6qkipnOjLnv3SSN0SOyLSy12Deucsm3tZYmzUQ0FThjogJWE7oIs7QtcCLG477Z87Xtle79huk2nqgyGoIhqchnkyV2l2O0BPumxvpdQ6iwxrKV0DiXOmawFptvNe0O338N0ACS2XHXJVh1dx+X5eKtZ2kw7ARV10M7UPqqZ0Eri+Wn3QHE3Lojfd3idS0gi/LdvmrFVQREQc3dJNUX1k5/vHDyBIH+UK/dloAyjpmDQQRD+ELnrbGBxnnNvZe4nuu8j5keqvzYSuE2H0sgN/omNP3mDccPVpWMfR28dGsuvdH2b1ERbcQiIgIiICIiAiIgIiICIiAiIgKJ9KjHHCqnd91hP3Q9hd8LqWLX7QUXXUs8Vr78UjfMtNvjZByfURkW/XI/mv3C6kRTRyEbwY9jiOYBBI8wCF7zOvG3mP0f8ASsJoVFsbcbYMDoJKYtMbWtIA45ZEDwJa5p5DiCBX1FT07pg9pe0l28GDMA62BsXEfFa92QNtDwOnDTPI/rw+6Ooa11y0/wCIj5BZ0u1vbKQUxZU1JDYzuAOcG7tmt1JbzdbdzzcL2uBc1Ix5c5x0uSTbhc9y2cuNnququWs1LAeyXczxOg9LrV0UNzne3l5/zVrGiUy6IMQMGJsZ9WZr4z5jfYfVjR+JdDrliGoNPUQTg5se1+lsmODtPVdTMcCARocwrKP1ERQUxjGEA4lPTuyFQJo2k6B7rTRE928xg81l9DWNmGSXDprtdvOfEDwcMpY/Hs3t3PW56T8McHRVUeTmkZ8nsO8w/A/4Qo5tlhfXsixSkPVuO651v7OZptvHuuN094B4ledOUzV9Di49Jjx5o741PnH5XMijWwu1bK+C5G5PH2Zo+LXe8B7psSPMcFJV6PniIiAiIgIiICIiAiIgIiICIiAiIg5Q2lozBWVMGgZLKB925Lf4d1amynfTVQdVijngWE0ccnmLxnz+jHqof1Qtfhz0z/V/1ktDFuvwheoZmB3jLxtl45/BbmDAMryPAtkQCy1+QeTY6+HeVNmmhbqtpCHNGQvrn6W3eOuffks8x0gIiawOcT7e+W2P3ndk8hw5leFTh72tcYyXNb7QI7bMjqPdtxHfwzU7ULqWtqHXzy/n5Lp/Yet67D6SQm5MEe994NDXfEFc0wwiVp3faAva5z1yGXdfzV29BmJCTDzFxgle38L/AKQH1c8eSsosVERQY2I0TZo3Ru0cPQ8CO8GxVcUMhw+Z8UwvTSmzxa4Y4i2/bixwyPd3tINoLV47g7ahvAPAIBIyI91w4t+WoWLV3zjq6+GzxWJx350t9PerHH8CmoahlZRvtoGOJu17XWtBMb5g5Bjzr2QbODXGwtkNq4a6M7o6uZmUsLvajdppxbe9j8jkodHUS0JdBJGZaYgh0LrFzGnUxk5SRnPL5G99ZiGFNJbWUMzvo/ZlZcywf3c8ZzkitzG8Ba+8Fa2ifNnPw1sfPrWekrkRQrZPbpspbT1YbBUkDccD9FUDg6F+lz7t7/lNVpzCIiAiIgIiICIiAiIgIiICIiCo/wD5BYdeKmqB9R74z4PG8P8AIfVUu6Uhot6/rxK6W6WMP67C6kWuY2iUf9shx/hDvVc0iIublw8P0VR94bHvOJ4taXfJo+LgrQZhFRUNmjphB9G1rSbgFu61os4hpO9YE5W9oXN8lXezsjWSvElw18L2XyyJLCwknIAuDBfhvBTbD62LcllZI6Gd3ZkaN6xaTrke0WkusTwcbalYtG2qoNPQPaHOubjXxvYix43Uk2dpTJTvm64tMVt1ttTdoLA/6vtNdbxPNaGormvmsxjt1vtF1+2/O7t0+wDfIG5yuc9JPhVPvsFO0OHWSNNhoBZzbvPvDey524KS1CP7RQdRVO3Bughr90ZAGw3gAfq7wdYeCm3QfiQjrHR3s2ojIt/eRkubb8Jl+ChO21SH1kxb7LSGD8IAPx3lj7OYsaaaKcf2MrX+LfrjzbvDzXo83WaLF/4hF749UUGUiIgxMSw2Kdu5I3eHA6Fp5tcMwVAsY2Hnif11K9xcNC0hsgHIj2ZB6eBVkIs2rEujDxOTFyjnHhPRQmJved5k0DX3N3sALLni/q9YpftMsDxBW52d29mpbMkL6umHvW/aIR38JmjnrztorUxPCIKgWlja/kdCPBwzHqoRjnRoHXMEl+TZNfKRouPRZjtR74e1p4fNHL1LfOP0mmB45T1cfWU8rZG8batPJ7Tm09xCyq6sjhjdLK8MjYLuc42AC58xbZqvoZOujEsLh9dp4ci9vZcO4rHxzaSvrqdkc8u+GuvZrWtLiPZMgbYE5OtYAceVvSJ25L45p1W1R9KmHSSFhdJG3hI9lmu78iXAeIHkpnS1LJGh8bmvY7MOaQQR3ELkWSUMyPtX4cBxJ5nT4qX4J0i1lLD1EJYGX3g5zLvBNr571reRRh0girLYTpMfUysp6hjd9xs2RhsCftNPzB8lY8NXG4lrXtc5uoDgSPEDRB7IiICIiAiIgIiIPKpga9jmOF2vaWkcwRYj4rlJsLqWokhdrG58Zvx3SW3PiL+q6yVE9OGzLoqgVsbfo5rCS31ZQLAn7wA82lUVrisWYdawPL4r9osRLSLkgjIOGtuRBycO5fbJwWlrs+X5rE6sJoSV1fTuDXOLd8DtEsc4k3Ni1tmtGVr3ccweFkl2nLP3O9vWtvutcfdYOy3XiX+SjjYb8VkOaxoyzPPh6KaNsaUkkk5nXxXzwK+wLqU9Hezhra2OO144yJJjw3Gn2fFxs23jyVFp/wDC6jv9EVkWRZ0P1ERUEREBERB+ELnbbRwFdUlgDAJXgbuVt3s5W52PquilXW2fRo2cvmpXiOV5LnMeTuOcdSHZlhNzzHggojDaQST3muG5vJPHlc95Iv5rNxqmERFrdq9h3d/n8lJsa2OqcPZH1743dYXWDC4lu7a4cSAD7QUVrKUyPNiMrD9eqo8qSNxZcjwPHLv4j+S96SqfE9ro3Fj/AKu4S0+VswthWSsZFkNAABl5XWtwbDn1Dnu4MFz3k6BBa2D9LzY4I2TRvmmFw992tBF+yeJLrWvkNFIaLpYw9/tmSI/aaCP4ST8FSGIYY+MXOQ4Xv6aa5rTl5Qdb4ZikNQzfhkbI3m06eI1B8VmLk3CMbmp3h8Mjo3Dkfh3juVq7L9MGjKxn/cZ83M0PlbwUFuosHCsYp6lgfBK2QdxzHcW6g+KzkBERAWNiNBFPE+GZgfG8Wc06EfkdCDwIWSiDnnbrowqKNzpacOnptchd8Y5PaPaA94eYGpgDTddiqOYzsJh1SS6WmZvnMvZdjieZcwi58bq7HMDWnghjPgr+l6HaAm7ZKiPuD4z/AJmErLw7oow2MguZJMR/zHm3m1oaD5psUdszs3U1snV00Zdn2nnJjBzc7h4a8guitidlYsPpxEztPd2pZLWL3+HBo0A4eJK3VJSRxMDI2NjYNGtAAHgBkvZQEREBERAREQEREBERBiYnhkNQwxzRtkbyPA8wdWnvCrzFOieBrZpYXyvkDXGNl2jtcGk27Q4WyVnIg5ZxajIduSBzCD2gRYg94IyWwwGq/ZRu6tcbk+lsvILobE8DpqggzQRykaFzQT4X5dyrHb3Y8wF00bbwOJNgLdUT9Ww+ryPlyvRD9oq2KU2baxAN89bDUfrVRqXDScwDbuvkvmqY65PevulxFzDnoqMCSnIXw0kcLga6qRsLJRla54G35rX1lDneO+4LuF/dyAOfE/mNEGLS1jo3h8b3RvGhBII8HixH9VZWy3S7PFZlW0zM03hYPGXkHeZvnqqylp9b3FuYPn4leAuoOtMExunq4xJBI14yuARvNPJzdWlbFck4Tik0EgfDI6N40LSQfDvHcrx6Odu5ql7aeqY3rCDuvblvWFyHt0BsDmLeCgsVERAREQEREBERAREQEREBERAREQEREBERAXzJGHAtcAQQQQcwQdQRxC+kQVbtT0V33pKN3M9U8/Bj/wAj6qq8VweSF5ZKx0bxwcLeY5jvXUywMXwaCpZuTxtkHC+rTza4ZtPgrscsBjm5hZNNV8Tl8jYbovyGZ0HBWVtV0XSx3fSEzMvmw23wM9ODx6HxVaVNGWkggtI1aQR32I4eCDIZGHXuBkD5k2uc/H4LHnw/Xl+tf1yXg1zm/rivWSsO7bif1kqPmkj3QbEB50J4Dif1+anGwlYymnZO/elsD7Nst4EHI6681DdmMNbUSO6xxblktzV4PPBm3tN5hZlXQmFYxBUN3onh3McR4t1Cz1zfh+NlrgbuY8aOabEKwsB6RJG2bOOub77bB48W6O8kNLORYOFYvBUN3oZA/mOI8W6hZyIIiICIiAiIgIiICIiAiIgIiICIiAiIgIiIC0+P7MUtYPpowXWsHjJ4/ENRnobhbhEFKbR9F9RCC6E/tDOQFnj8FzveXoq6rqQtJBBBF8jqD4LrBazEdn6WdwfNBHI4cS0X8zxHirsVR0d08M1CGmNx6pzmufumwcSTk+1tCOOXFbKpweWPOI9Yz3Tr/VWpTwMY0MY1rGAWDWgAAcgBkFgVmDMdmzsO7tD4tWV2pusw6Ca4Leqk9M+8LRVmFz05uO03mFbmMYGD++Z4Pb/Ph4FRqrwuaHNn0sfLjbw4+SCHYdjhYTJcscwX3mmx5WvxubC3ep/0d9I76mUU9Q0Xd+7ePg13M9/NVVtbVsdKGRtsBYuA4v8A6Xt6qx+jTD9+VrnwlsgLHb27ZojaBuho5AgC/E5qi3UREQREQEREBERAREQEREBERAREQEREBERAREQEREBERB+EXyOa1lTgzCbs7B5cD5cFtEQUdW9HVYa0yGHfY6UuuHMsQXE88vNXNh1O5jAHm7rcOA4NHcFlogIiICIiAiIgIiICIiAiIgIiICIiAiIgIiICIiAiIgIiICIiAiIgIiICIiAiIg//2Q==;strokeColor=none;strokeWidth=2;fillColor=#EDF5FF;fontSize=12;labelBackgroundColor=#EDF5FF;fontStyle=1;fontColor=#0A3DA3;" vertex="1" parent="Gr0Zq-AI6Quabplr0KPa-98">
          <mxGeometry x="561.94" y="143.56788079470198" width="121" height="123.20364238410596" as="geometry" />
        </mxCell>
        <mxCell id="X31E-dGhFTVf8kw1BePZ-20" value="" style="endArrow=none;html=1;rounded=0;" edge="1" parent="Gr0Zq-AI6Quabplr0KPa-98" source="X31E-dGhFTVf8kw1BePZ-22">
          <mxGeometry width="50" height="50" relative="1" as="geometry">
            <mxPoint x="490" y="225.78849337748343" as="sourcePoint" />
            <mxPoint x="540" y="174.87789735099338" as="targetPoint" />
          </mxGeometry>
        </mxCell>
        <mxCell id="X31E-dGhFTVf8kw1BePZ-21" style="edgeStyle=orthogonalEdgeStyle;html=1;endArrow=none;endFill=0;strokeWidth=2;fontSize=12;fontColor=#0A3DA3;strokeColor=#0A3DA3;rounded=0;startSize=8;endSize=8;curved=0;" edge="1" parent="Gr0Zq-AI6Quabplr0KPa-98">
          <mxGeometry relative="1" as="geometry">
            <mxPoint x="560" y="218.91556291390728" as="targetPoint" />
            <Array as="points">
              <mxPoint x="499" y="218.91556291390728" />
              <mxPoint x="499" y="218.91556291390728" />
            </Array>
            <mxPoint x="464" y="218.91556291390728" as="sourcePoint" />
          </mxGeometry>
        </mxCell>
        <mxCell id="X31E-dGhFTVf8kw1BePZ-22" value="&lt;font color=&quot;#000000&quot;&gt;POWER SUPPLY&lt;/font&gt;" style="text;html=1;align=center;verticalAlign=middle;whiteSpace=wrap;rounded=0;" vertex="1" parent="Gr0Zq-AI6Quabplr0KPa-98">
          <mxGeometry x="485" y="187.86009933774835" width="60" height="30.546357615894042" as="geometry" />
        </mxCell>
        <mxCell id="X31E-dGhFTVf8kw1BePZ-26" value="Buzzer (for local alerts)." style="image;html=1;image=data:image/jpeg,/9j/4AAQSkZJRgABAQAAAQABAAD/2wCEAAkGBxMTEBUQEg8VFhUXFRYYGRUXFRcZGBYYFhcaFhYXFxUaHjQgGBslGxUWITEhJSkrLi4uFx8zODYsNygtLisBCgoKDg0OGRAQGi0lHSAtLS0vLS8tNy0tLSstLS0tKy0tLystKy8tLS43LS0xLS0tLystLS0vLS0tLTctKy0tLf/AABEIANwA5QMBIgACEQEDEQH/xAAcAAEAAQUBAQAAAAAAAAAAAAAABQEDBAYHAgj/xABBEAACAQIDBQUFBQYGAQUAAAABAgADEQQSIQUGMUFREyJhcZEHFTKB0SNCUqGxFGJygsHxM0NTsuHwohYXc5PS/8QAGAEBAQEBAQAAAAAAAAAAAAAAAAECAwT/xAAcEQEBAQADAQEBAAAAAAAAAAAAARECITEDElH/2gAMAwEAAhEDEQA/AO4ykrKQEREBERAREQEREBERAREQEREBERAREQEREBERAREQEREBERArKSspAREQEREBERAREQEREBERAREQEREBERAREQEREBERAREQERECspKykBERAREQEREBE8VaqqCzMAALkk2AHUnlOd7y+1ihSJp4VO2YaZyctMeXN/yHjJo6PeUZgOJAnDn2ntzHa0xVRDwKAUUt1DkhiPmZ5/8AbTaFXvVcTSBP4qlRj/ttLNHcVqqeDA/MT3OE1PZXjV1SvQJ8HdT/ALP6zFbDbbwPeU4gKOat2yfNdQB5gR2PoCJxzd72wuCFxlEOv+pS0YeJQmx+RE6psbbFDFUxVw9Vai9RxB6MOKnwMDPiIgIiICIiAiViBSJWIFIlZSAiIgVlJWIFIlYgUiJWBSYu09oU6FJq1VgqKLkn9B1J4WmXOUb41am1Md7voNloYc/bVOWfgdOZGqgdcx5QInHbRxu265p0b0sKh1v8I6F7fG/7o0H5zdd3NyMLhAGFMVKn+rUAJv8Aujgny18ZMbNwNLDUVpU1CU0H9yx5k8zMqjVDDMpuOvXy6ianHGdewJ6tPMrKqspMTaNV1QsrItgT3he5A0HETzgKxbNd847pDWA1IN106WHrNfnrWby7xDbz7k4XGAsydnVP+agAb+ccHHnr0InLa2Cx+xcQKqmyk2Drc0ao/C45HwNiOXWd3vKVaSspVlDKdCCAQfMHjOeNMTc7eilj6Hap3XGlSmTqjf1U8j/W8npB4XA06WtGklM88iKtx42GszUxhHEXjFSES3RrBhcekuSBERAREQEREBEpEBERArERAREQERECJ3r2mcNgq+IHxJTOXxc91P8AyYSD3M2J+y4RUOtRu/UbmXYa687cPl4yb3kw/aJSpkXU10LeVO9UX/mRZ7l4ojtq0QQp7JnYHTKSLeJl3Ahspuzk8s62A8BrcjzMuY8Ds2JF9OtreN+Vph7OpqhCtUJbKosM+QXFxqfvHxnonfBw5dfTVyljqhcpkVrPlJUkACwOa5FufC8ya+Ky5u6TlXN043sPyMtVKD3AWpZbnRVUWFjbjfnPLgkU8yBnIsbtYXUX1tx1vFnG4frlNeqjs1hopVwCRZrXW+hI04jlGGpuGF2Zr5wbnx7hAGnAfnFGqzCxUDMpYWJGvMFuuo1ExcMozhuyLNf4lBst9CQSB+pMudYzb3K91MNaoGFFmADA5m0vcEEZjfkeXOSgMxMViXU5VUOSNFvYjxJ4W9JdwrEqL3vzuuXXy6THPbNrpwycrIxGpmszXJFNTlygkZyOJYjWw4WmNhsEuaoq3psrWBQkaEAgleB4kajlL9IDM1BmZTmZ1sbF1Y3Nj4EkG3hLfu6mK+oYhk5sx1Ujib9G/KdNzZrn31cX9n4t85pvpUXW44Ov4gOXQibBSe4vNcNv2hEQfAj5v3Q1soJ6mxNpOYI6GcPpMsrvwu6ypSInNsiIgIiICIiAiIgViIgIiICImNtLHU6FJ69VsqIpZj0A/U8rQLOPxtMOtFnHaMrMq31IWyswHhnA+ctTiu7m9z4rby4ioCBUV6SLf/DQKXRR1N118WM7UBNTwW8TSDIVPMf2kfRLF8pptdmDkkqq2WyjQEnTQ26yUEh8W/2hzPqL8ahBAOuiU1uRoOJ5Tt898cPt1lSdVWJ0cKP4bn1Jt+Ux8IDlIDKxDkgmxtfU3y8D3jPNSklQK7ZSppkXbQa2sQG+fHWVw2Q3CsrEoBYcDluL/wDlLJ0btMFjmcj7MW1uyk2UjS2oF9ehMtELY50c1NdbN8srcFFrcx4zJwyuVUlwBYHKqADrbW5/SWtoABsz1UC2+B/h8SbEZvneJn6yJl/Orq4ghU0zswtcEWuBcm/TjwnqjXbPkdVHduLMTwNjfQdRLdB1qrqQbH7uZbaaEcxoeMvUMOqXIvc8SSST8ybzNybL63x2+XpXE4Vags63HLqD1BGoPlLHu4cO1q26dof14/nMPejeBMHQNZxmN7IgNixtfjyHjbp1nMsV7VsWWOWjRQchlctx01LWOngJic+U6lbvCXux11KdOkhPdRQCzEkAeLMx/UzTcP7WsOuJek1FjQzWWuupPVjT45b8CNbcpy3bm9GLxeleuzLx7MAIl/4V4+ZvIkTFtt2rJj6o2VtajiafaUKyVF6qb28GHFT4GZs+VNn7Sq0KgqUar03H3kJB8jyI8DpOlbte15ltTxtLMOHa0wA3m1PgfNbeUiuwxI3Yu3sPikz4eutQcwD3l8GQ95T5iSUBERAREQERECsREBERAThntr3w7Wr7vov9nTN6pB0eoOCX6Jz/AHv4Z0H2nb2jAYQhG+3q3WmPw/iqW6Lf1I8Z811HJNyb35k3J8SZBl7FrsldHRrMLlTa9mCkqfkQDO+ez/e9cdSZSoSqmpQG4KHgyk8gbg9LDqJ88UXysG6GbFsqvVwtZMTQci2o58u8jDmORHT5TWj6QtIvapfOqhlym5yZWZnI5kAgZRpxNus87vbw08VTVhZahUM1O97XFzlP3h4+sy8ZhWY3psFOUqSQT3TrpY8bzp8+WXty+kt4q0ahZTcBnH3WGW3Trp4i8YXDMLZmWwzWAB+8b2uTqB5S9So2JYkkmwJ8hwH5n5y7LeX8Jw80mPXw4Zrm1ijKfI9Pzl+BMy43Zvq1To2Ja5JKqD/LfX857ZgASTYDUk8ABqSTyitVVFLuwVVBJZiAABxJJ0A8Zxf2je0IYkNhMKT2HB6moNb90DlT/wB3l8WbSTPEX7Q96RjMSQh+xQZUNzqL95rfvG3os1io93a4tbS3lpMak/Q+HO559LW0lw1b1CeHh/TxMy0vAT1KKYLQKNJPYezkqitVrVSlGgis5UAuzOStOnTDd3MxB1Og063EfTW5AC5iTYDXUk6AATZcJs/G4VXqU6KsjjLUpOgqowHDMnGwJJvy6nhAs4DYeILLiMIxpByf2cVcQlPEVQOOTLYMdCeQt1Gp2bd/2t4iiezxlPtlBsWACVVtobj4WPh3fOathd5V7cYvFJVq16Xdo0lFOnQTKO5mHxCzEmwHIG55RmycBUxuLyX71R2qVHtwDNmqPbzOg6kCB9Mbv7do4yiK9BiUJI7ylSCOIsf1FxJORW7mylw9BKarYBQAOgA0Hn18SZKwEREBERArERATH2hjUo0nrVWCoilmY8gBeX7ziHts3v7Sp7vot3EINYjgzjVU8QvE+PlJRpO9e3qm0Ma1Y37xy00/BTF8q+lyfEmbJu57PVqpmqs1uoNhfnbQ3/7rNM3cqqMXSZ/hzi/hfS/5z6O3bwS/s6EgGygWBuBYWN/G4M1ByzeH2bBKbVsKxZlBJpsBqANcuW1+enE8jeR23tm9kocj7GsgZSNcjlQRp46H+07htI0qVNqz2QIpJbhw5W5z5/q73GvSXBMgXKwVW0+FdVQrw0+G/hMtWJnZOMvRSorEMumYHUMvjxBM2/ZW/brZa6doPxLYP8wdG/Kc62PiwFylbd7W34hoQfHx5/LWSrG5JU/98RKy6vht8ME/+fkPR1K2+drfnMwbcwpF/wBsof8A3U//ANTiLm08PCO0196MEnHGUj/Cwc6eC3mr7d9q2Fo3WjSqVmtxP2dMHldm73os5nXFuZ4WkHtRCSLKe9oLcyOnyI0+sKmN6988Vjriq4WmCCKKXVAQdM1zdz4seWgE1atUIut+c9utsysLN59PIyxTpDRmuF8OJ8r/AK8IF7C1bBmPCxsORPTy5/IS3Sq94fMy1i8TmI0AUaBRwA/qfGWsObtfygTK1hPa1NdZigX4zKwNM1GCggDmSbAA8LkwLjZ0YNb5/wBVPP5TYdhb8VaNkde1pgAWJs46lXtr/CwPgRLuL3IxIoh6Lq5Iv2XA2toVv3Wv8pGbG2atJmxGIFuxJtSKtftLd3MG5cwOtjysQ3fF7Hwe0AzpelXF83dy1VI4itRPxcR3h1Hek97Md0hhi/aMruWuSOBVT3FAOvVj525CatsDB1sXXp0HLL2AY1XQlahr12zigtQaqKa5c1jxB5azqn/p90UFapdh961m+duJ8dIGyRIDD7XemctZSRwzc/n1k1h8SrjMjAj/ALx6QLsREBERArKSspAWmgb4ezujibvlyuSTnQWa/wC8PvfOb/KwPmHb24+KwxLqva0xrnQd4Dq1PiLdReetie0DF4ZMiuG4fFflwuAdf6T6SxeBSoO8Nes0Lej2bUK5Z+zs346ejeZFrE+YMDkG8G+uLxYy1avd/CugvNRrEhswm67f3ExOHJZF7ZL8UBzgcdU+hM1CsNf+8uIgSGy9qFGzcQdGB4MPH6za6Dq4DUnuOjcR1F+M52QVNxw6ScwCYgUf2hKbmnmy9oFJAYcR+mvCBs9WsRoQR48f0nipUULcsLdb+XLlx/WQybbqHQgEjnpLZ2u7NlyAfLXrzgZ2Oxa2IDgHz1FxcaW8vWRQVbXzuGHBgSAvjrbXyMrULOTdr6XFrWPXhzmJi6tjkB0048epBgXkqKillAPC9zoTysOZ5yJrVizXJlxmB5jj5AfSY1U62U38R/SB4bpLlMWlFpyRwuEKgOwIvqoI5fi8b8vKBcwycnuBca8fymWFNO7qQRbiPpyPnJbdnYi4lgO1W9yezyuxyra5OUaD/ul5sm3vZ8G+1wlS19ezJAB0/wAuoNAPPTxgaxurvDiqdQJTcMpuzI9zT6s2mqHxW17i9+E6JgsXRxa02rUTTqXVkFS2rAAqaVQ6VB3hYEC9/hM0TC7KKAUCOyqNdqzVL/Z00BLk8snE+Nha95uvs+2D+21v2upT+wCilh6bj4KCn/EIOmdyL/8ABEDctwtnUMKnZZznuTmf4nZ9XdmPFyfym7SGxO7yFbJcW4XJP5nWYdLFV8ObOMyePLyPL8xAnsRhVf4hIXEbJemc9JiPL6SXwO0adUd0681PEfWZUCEwO2jcJVQgnS4GnzH0k3LD4NCwcqLg3Hn1mRApErEBKSspACViICIiBhYzZqVOIseo/qOc0TfD2dUcQGdqdnt/ip8Q6E9fJsw8Z0iIHyzvBuFisOSyKa1PU5kXvADrT4nzW8xti701KVXCipZqOGJUIBbuu32rEA998pYd7T9Z9Q4rZNJ7krYnmOvUjgT4zRd6/ZzQr3d6dm/1KWj9Bm01GvMHhxgcz3W2ThcQuMqg1XCVSKaqhapSotcrV7MHM9uBAvYLw1iruxSd6XY42nUzU6rVnBGSjRpjvVn+8hvYZGub310Mx9sbh43Bua1BmcJqHpEpVUcb5Qbn+Unynj2f5qjYrDNReqlemBWC1Up1QA/xoahAcgucwJ878DUamrVCrhFZlXvFgpsovlDHTug3A169ZiMx4zruzNl4SnVbZVJmrKFbEYo379YU8vZYcZBqq5gxCnU6cyJhb17vYSphHr0EoJUWpTSkKJZDULuENGrh2+CqM178dLmwvGGuWhJcCWmxbT3KxuHTtamHOUfEUK1Oz/8AkyE5etzp4yAIkVbIk1nU06RbMpyKpLag5QFBtyFgLcdJY3fw9B8VSXEvkol/tG6KBe2moBNhflmvym0b34LEDEHF1KKPhWYlKtBg9FafBBpotlsLkAXgawaWS7LcE8GB081M2XdXbWJoUmq9p9ney03GYVG4sbXFrD7wIOvgZBGjlzZWBQqp5EG5W9uhHyOk2XC4lDmxTITToBFp0gLCpVbSlSXzPeNuVjzgbp+24fFqcJiKfZ1GRM1JmtpUAdQtRTobr8LZSSvAzft2a1KmnZfA3DUWFhoqjpYcpr/s83YK02qYgipUqMXrE6h6jD4Rf7iDQDh5TbMZsVSO5oeQ6eUCWnmpTDCxF5rtLGVqBysMyDrxHkf7yawePSoO62vQ8R8oEdjdhj4qRynj/aU2Rja3amjVW+lw1jcAdTwP6yci0BERAREQEpKykCsREBERAREQEREDDxWzqb6ka9f+Jzzez2e06pLNRzdKiaMvHUka+oInT4gfMW1NxcTh7VsMzOAdDTJWqvSwHHzU/KROHxwbF/tGPFWqSLMyMKdZGUKFbgAWXLbKdDz4T6lxWy6b30yk9BofMcD58ZpO9e4FGuGZ6dmtpVTRhpof+CCIHOt696MO1FauGxTnF5h9qlJqLtRKkMmIYd2oQTe4FuFgNSedgcpuO8Hs+xNAF6Q7ZOPdFqlv4B8X8t/KaiyEEgggjiCNR4EQkjxlvM/ZG2cRhGzYesyX4rxRuuZD3T58fGZO7uy1r11R6gp0wGerUJAy00GZyL8TbQDqZXeHaK4iu1RKa06YCpTpgAZaaDKgNuLW1J11JhUiNoYDF6YimcFWP+dQGagxPOpQOq663X5mblufstMViaa0bnC4U5KLEH7auR9tin624L00ta1pzDZmzGr1koU/idreQ+8x8ALn5T6e3L2EmFw6oq20AA55R18SSSfOBOYagqKEUWAl2IgeKtMMLEXkNjNi65qZsePjJyIEVsnE1Sxp1Bewvm+p5/rJaebSsCsREBEpECspKykCsREBERAREQEREBERAREQMHF7Kpvrax6jn5jgZp+8u4NCuCalIE20qJcOPnx+RuJv0QPmzb/s/r0STS+2TlYWcfy8Dz1Bv4TT6ikEgggg2IOhB8Ryn1xitno/Fdeo09RwM1Tbm41Cswaph1Ygghhe+hvYka2PQ3EDV/Y7umVT9qqr3nAIuNQnFV14EnU+QnXRMfAYYU0CD5+J5zIgIiICIiAiIgIiICIiBWUlZSBWJSVgIiICIiAiIgIiICIiAiIgIiIFIiICIiAiIgIiICIiAiIgVlJFe836L6H6x7zfovofrAlYkV7zfovofrHvN+i+h+sCViRXvN+i+h+se836L6H6wJWJFe836L6H6x7zfovofrAlYkV7zfovofrHvN+i+h+sCViRXvN+i+h+se836L6H6wJWJFe836L6H6x7zfovofrAlYkV7zfovofrHvN+i+h+sCViRXvN+i+h+se836L6H6wJWJFe836L6H6x7zfovofrAlYkV7zfovofrHvN+i+h+sCViRXvN+i+h+se836L6H6wJWJFe836L6H6x7zfovofrAlYkV7zfovofrHvN+i+h+sCViRXvN+i+h+sQP/Z;strokeColor=none;strokeWidth=2;fillColor=#EDF5FF;fontSize=12;labelBackgroundColor=#EDF5FF;fontStyle=1;fontColor=#0A3DA3;" vertex="1" parent="Gr0Zq-AI6Quabplr0KPa-98">
          <mxGeometry x="570" y="313.60927152317885" width="126" height="123.20364238410596" as="geometry" />
        </mxCell>
        <mxCell id="X31E-dGhFTVf8kw1BePZ-28" style="edgeStyle=orthogonalEdgeStyle;html=1;endArrow=none;endFill=0;strokeWidth=2;fontSize=12;fontColor=#0A3DA3;strokeColor=#0A3DA3;rounded=0;startSize=8;endSize=8;curved=0;" edge="1" parent="Gr0Zq-AI6Quabplr0KPa-98" source="X31E-dGhFTVf8kw1BePZ-26">
          <mxGeometry relative="1" as="geometry">
            <mxPoint x="444" y="306.4850844489971" as="targetPoint" />
            <Array as="points">
              <mxPoint x="444" y="382.8476821192053" />
            </Array>
            <mxPoint x="554.008" y="369.3258278145696" as="sourcePoint" />
          </mxGeometry>
        </mxCell>
        <mxCell id="X31E-dGhFTVf8kw1BePZ-29" style="edgeStyle=orthogonalEdgeStyle;rounded=0;orthogonalLoop=1;jettySize=auto;html=1;exitX=1;exitY=0.25;exitDx=0;exitDy=0;entryX=1;entryY=0.5;entryDx=0;entryDy=0;" edge="1" parent="Gr0Zq-AI6Quabplr0KPa-98">
          <mxGeometry relative="1" as="geometry">
            <mxPoint x="269.21013623978183" y="173.64532502614162" as="sourcePoint" />
            <mxPoint x="269.21013623978183" y="183.35585134193104" as="targetPoint" />
          </mxGeometry>
        </mxCell>
        <mxCell id="X31E-dGhFTVf8kw1BePZ-30" value="&lt;div&gt;&lt;font color=&quot;#000000&quot;&gt;&lt;br&gt;&lt;/font&gt;&lt;/div&gt;&lt;font color=&quot;#000000&quot;&gt;LOCAL ALERTS&lt;/font&gt;" style="text;html=1;align=center;verticalAlign=middle;whiteSpace=wrap;rounded=0;" vertex="1" parent="Gr0Zq-AI6Quabplr0KPa-98">
          <mxGeometry x="479.00305177111716" y="341.1036728825376" width="62.20708446866485" height="38.8421052631579" as="geometry" />
        </mxCell>
        <mxCell id="X31E-dGhFTVf8kw1BePZ-31" value="Trash Bin" style="image;html=1;image=data:image/jpeg,/9j/4AAQSkZJRgABAQAAAQABAAD/2wCEAAkGBw0PEhANDw8NDQ8PDxANDg0ODQ8NDQ0NFRIWFhURFRYYHSoiGBolGxUVITEhJS0rLjAwFx8/ODMsNygtOisBCgoKDQ0NDw0NDi0ZFRkrKy0tLS0rKys3KysrKy0rKys3KysrKysrKysrKysrKysrKysrKysrKysrKysrKysrK//AABEIAOEA4QMBIgACEQEDEQH/xAAcAAEAAwEBAQEBAAAAAAAAAAAABAUGAwcCAQj/xABDEAACAgEBBQEMCAQDCQAAAAAAAQIDBBEFBhIhMUETIjI0UWFxcoGRobIHFDNSc4KxwSNCs8JiY/AkRVODhJLD0dL/xAAVAQEBAAAAAAAAAAAAAAAAAAAAAf/EABQRAQAAAAAAAAAAAAAAAAAAAAD/2gAMAwEAAhEDEQA/APcQAAAAAAAAAAAAAAAAAAAAAAAAAAAAAAAAAAAAAAAAAAAAAAAAAAAAAAAAAAAAAAAADjl5CqhO181CLlour0XRed9AIWdkX2TePjSjXKOjuyJR41TF9Ixj0lY/PyS5vXknzpqvxpw48i3Jqtkq33aNfdKrWuTi4RXevRpp9OWhN2dQ664qXOb7+2X3rZc5P3/BI57Vf2MO2eRUl+Vub+EGBOAAAAAAAAAAAAAAAAAAA/NT9Mvv/OUaapwlKEo3LSUW4yXeS6NAagHnOzNu570j9YbX+ZXCz46av3mqxL9pSXFxYM15HXfS/fxSAvAU09o5sPCx8aXnhlzXwdRGlvJZHw8Vr1b4z/ZAaI+Jmee99S8Km9ejhf7nw98sbtqyF+SL/cC+sIdmvlfvZUT3vofg05H5oRX6SZxlvHxeDTL8z0/YosrrJrpOa9EmRZ5t8els/a9f1K+3aWTLwaqvbc1/YfNeFtK/wPqlfnlZOXwUSCY9t5Uf51LzShH9kcMneW6XCpwrlGM42SjHWDs4ecVq29O+UX07At0M+f2mbTDzVY8m17ZS/YpNrbFVGqlddc12vSte6IHoGxdtUZcZOptOHDxwku+jqtV/r9D7zO+vxofd7tkf9sFX/wCY8O3qv7lXTKMu56TnwuL4GnoujR6D9EuVdfjwndbZkSqqlBW2WStnrZkWycHJtvlGFfLyaAb8AAAAAAAAAAAAAAAAAADNb/1t4vGlKXc7IS4YpNtPWL0Xt19hpSl3w8Vn61fzIDznY+0sZzS7rXGXbGcu5zT9EtGem7JlrXqmmvKnqjz6nCpu0jbXXavJZCM9PeX2z9xdmtd0hVZRP71GTfW/dxafAC9zW+ZQZjOuXuxOC/h7Q2lHzTvjbFe+Jn8zZWateHaNv58WiYV2vRHZXX7P2l2bQg/Tg1L9GRJ4W1ezOo9uJFBF7Ek1GU+o7Z7M7HX/AEsf/R9x2XtuX+86oeriVfvADbUlzsy3hZ51Tu/teXhbYsXqYsI/K0WGNuTfP7Xau0p+Xgusqj7nNoK9TnkQjHinKMI/enJRj72eZb3bxbPUpaZVNjT5qmfd2vTwa6e0scX6Mdlvv7VkZU/v3Xd974KL+JG2hsDCxnpVj0wa6S4XOa/NNt/EI8+3jy+6wpfc5Qg3bwOxaTmu81en3eaPWPogxIVbMpcYqLssyJyfa/404rV+iKMXfsCe0snExVPuceDItts04nCmLqT4f8Tcopa+XzHruydm04lNeNTFxqqjwwTbk+urbb6ttt+0CWAAAAAAAAAAAAAAAAAABTb3eKz9aHzIuSm3u8Vs9MPnQGM2f1N5sp94YPZ3U3WyfAA/c58jM5q5mlzUZ7OiBT3EWRLuRDkB+xJNJFgSqgJ1BbYbKmgtMRhV/jdDJ7y+EzV4r5GT3i8JhHfcKiLd1rXfRUa4vyRk25fLH3GxMpuD4N/rQ/SRqwAAAAAAAAAAAAAAAAAAAFPvb4rZ6a/nRcFPvZ4rZ6a/niBjdnLmbjZHgmJ2b1Ntsh96B3yo8jObQiaTKfIzefLmwKS8hzJt5CmB+RJNRGRIqAn0FniMq6SyxGFaDFfIyu8HVmnxvB9hl94OrCJ+4a7y714/ozVGX3EXeXetH9GagAAAAAAAAAAAAAAAAAAABUb2eK2emv8AqRLcqN6/FbfTX/UiBjdnvmbXY75GKwOps9jvkBKzOhm81c2aTL6Gdzu0CmvIUydkEGYHyiRUR0d6gJtJZ4nUq6SyxHzQVoqFpH2GU2/1Zq633nsMlt182VFruL9nb68f0NOZrcZfwrPxF8ppSAAAAAAAAAAAAAAAAAAABU71eK2/k/qRLYqt6fFbfyf1IgYvBNjsd8jG4Rr9jPkBNzXyM7mPqX+c+RnsvtAq7yFYTriFYBzR3qOB2qAmVFhjMrqSfQFaCifeewy+2nzNFRLvTN7Y6sqLzchfwrPxF8qNIZ3cn7Kz8X+1GiIAAAAAAAAAAAAAAAAAAAFVvQv9lu/J88S1KvefxW70R+eIGHw+prdkPoZLC6mq2SwJ+a+RQ5Re5fQo8sKqriHYTbyFaEcjrWcjrWBLqJ+OQKidQFXNT70zm13zNDDwTO7WfNhGi3J+xn+K/liaEz25P2E/xX8sTQgAAAAAAAAAAAAAAAAAAAKvebxa70R+eJaFZvJ4td6sfmQGHwupptmMy+I+ZpdlsIs8l8ikyy6yOhS5SCqy4hWk28hWgcTpWcz7rCplJPxyvqJ+MBbR8Ez21upoY+CZ3az5hGl3J+wl+NL5YmgKDctfwJfiy+WJfgAAAAAAAAAAAAAAAAAAAKzeTxa71V8yKnP3uWPkvCurjGx6TqTnwfWKX0dUnylLVNOL4efm0bl7U2nRfjXqEu/jBOdUlwWwXEubi+zzrk+xgY2myMe+k1FLTVt6Jamk2ZLoeRfSFtbgVeLCTT1V9uj5pLVQj+r9iG6m/mTRw1z4bYLlpLql5mEe5WvkVGUc9g7w1Z0JOEXCUNOKLevJ9p0yQqrvRCtJ95BuAjn3A+GfdYEuosMVFfUWWH2AWM3pEzm03zL/ACJcjObQfMDW7l+Lv8WXyxL8oNy/F3+LL9Il+AAAAAAAAAAAAAAAAAAAGV+kHdJbTpgocEcmiXHTOevC09OOuTS5J6L2xRn9n7o5dNU5598XRCK4KlrddXNvRyhZqnBc+ib5dNO30ooN9doUU4tqttqqclHhjOajKWk03wrq+WvQDxTfPce2U7MjGulktxV7hLRysrba4q31lppo1omtFy8nn9V0oPR6pp9Ge3bM2jj3aVRuqctXOpqxawnpzT8kZJJPyaRf8pmd7d1PrUuKmuUcqTacVBruk+3jXY+usvNz8oF79D1rnXkyf+Wl7eL/AOTb5JQfRzu9fgY0oZChG6yUXKEZKfBGMdNG1yb1cny8pf5AVXXEG4n3kC0Ijs/YH4z9iFS6ixxWVtRPxmETsh8jO575l5fLkZ3OnzA2+5Xi3/Mn+xfGY3BvUqbYf8O7R+ZuuEtPc0/aacAAAAAAAAAAAAAAAAAAAKjefBzL6XDDyXi2p666LS1aeA5aaw9ZHh238HJolOGXG2N0urtbnKz/ABKfPjXnTZ/RBF2ls7HyYOnIqhdB/wAs1ro/Kn1T865gfzDs7NdM1ybinquF6Ti/Kmek7P3iptjW/rWPCcZwfBe3RbNR14kl0m2tOj073tZdZX0P7NnKUo5GfSm9VCuyiUY+ZOdbfvZGj9CuzlJWRy9o8cXrGUp47Sl5XpWn8UBpsS7ulcLNGlOKnHXti+j9q0ftOV5Es2Bt2j7DOx8yK6V5lXA9PJrFav2yK/JytuV/a7J7rHtnjZMH7oc2BKvK+5lblb02Q17rsrbFXneHLh970Ky/fTEXhV5lfr4/D+4F62fUTLLfXDb72vLn6tKf9xNo3jc9O54O1bdenBg2T+XUDS1E7HRnce/a9uncNjZbT7cmcMTT2WaMs8bYO8lvWeBs6L7Y65F8fepRfwAuMmrhg5zca4Jauc5KMUvK2zIXZssqx42zYPMufKV2jWLQvvyk+q+D7NXyNVj/AEbUWSjZtDLy9pTi9eCdjqoT8qinqvY0bHBwaMeCqoqrprXSFcFCOvl5dvnAr91NiLAx44/G7bG5W32vrbfLwpejol5ki4AAAAAAAAAAAAAAAAAAAAAAAAAAAAAAAAAAAAAAAAAAAAAAAAAAAAAAAAAAAAAAAAAAAAAAAAAAAAAAAAAAAAAAAAAAAAD/2Q==;strokeColor=none;strokeWidth=2;fillColor=#EDF5FF;fontSize=12;labelBackgroundColor=#EDF5FF;fontStyle=1;fontColor=#0A3DA3;" vertex="1" parent="Gr0Zq-AI6Quabplr0KPa-98">
          <mxGeometry x="316" y="445.97682119205297" width="126" height="128.29470198675497" as="geometry" />
        </mxCell>
        <mxCell id="X31E-dGhFTVf8kw1BePZ-34" style="edgeStyle=orthogonalEdgeStyle;html=1;endArrow=none;endFill=0;strokeWidth=2;fontSize=12;fontColor=#0A3DA3;strokeColor=#0A3DA3;rounded=0;startSize=8;endSize=8;curved=0;exitX=0.5;exitY=0;exitDx=0;exitDy=0;" edge="1" parent="Gr0Zq-AI6Quabplr0KPa-98" source="X31E-dGhFTVf8kw1BePZ-31">
          <mxGeometry relative="1" as="geometry">
            <mxPoint x="380" y="303.58318047548715" as="targetPoint" />
            <Array as="points">
              <mxPoint x="379" y="379.79304635761594" />
              <mxPoint x="380" y="379.79304635761594" />
            </Array>
            <mxPoint x="506" y="379.9457781456954" as="sourcePoint" />
          </mxGeometry>
        </mxCell>
        <mxCell id="X31E-dGhFTVf8kw1BePZ-7" style="edgeStyle=orthogonalEdgeStyle;rounded=0;orthogonalLoop=1;jettySize=auto;html=1;" edge="1" parent="1" source="Gr0Zq-AI6Quabplr0KPa-98" target="Gr0Zq-AI6Quabplr0KPa-98">
          <mxGeometry relative="1" as="geometry" />
        </mxCell>
      </root>
    </mxGraphModel>
  </diagram>
</mxfile>
